<svg version="1.2" xmlns="http://www.w3.org/2000/svg" viewBox="0 0 5394 4623" width="5394" height="4623">
	<title>vecteezy_happy-man-shopping-with-cart_</title>
	<style>
		.s0 { fill: #a2f4fd } 
		.s1 { fill: #1d767e } 
		.s2 { fill: #0d4c4f } 
		.s3 { fill: #f4fda2 } 
		.s4 { fill: #f2b59e } 
		.s5 { fill: #d8a2fd } 
		.s6 { fill: #72102e } 
		.s7 { fill: #fdaba2 } 
		.s8 { fill: #d6998a } 
		.s9 { fill: #ffffff } 
		.s10 { fill: #a2c6fd } 
		.s11 { fill: #a2fdd9 } 
	</style>
	<g id="Illustration">
		<g id="&lt;Group&gt;">
			<g id="&lt;Group&gt;">
				<path id="&lt;Path&gt;" class="s0" d="m4820.86 3196.48c106.24-800.89-573.38-1399.27-657.97-1471.49-138.07-117.87-605.61-482.93-1270.02-453.94-120.03 5.24-830.05 36.21-1152.7 515.15-178.18 264.46-52.05 389.16-249.93 647.76-277.8 363.06-644.4 271.52-795.67 581.46-124.43 254.92 7.45 554.76 66.3 688.56q4.53 10.28 9.22 20.4h3861.73c150.28-256.45 182.66-479.86 189.04-527.9z"/>
				<path id="&lt;Path&gt;" class="s0" d="m1375.41 1579.35c170.48 129.49 132.62 418.26 125.82 470.17-4.62 35.23-53.47 364.45-350.97 509.89-187.32 91.58-494.5 120.69-642.34-59.6-165.06-201.29-24.5-533.14 119.2-701.93 185.35-217.7 550.27-368.93 748.29-218.53z"/>
			</g>
			<g id="&lt;Group&gt;">
				<g id="&lt;Group&gt;">
					<path id="&lt;Path&gt;" class="s1" d="m1529.79 1978.16c-69.17-81.27-91.64-129.69-129.69-200.58-38.04-70.89-105.47-50.14-91.64 5.19 13.83 55.33 5.19 214.41 24.21 356.19 12.44 92.76 72.25 120.39 112.12 128.41 5.82 0.14 41.41 0.56 59.9-9.38 103.02-64.49 89.74-203.88 25.1-279.83z"/>
					<path id="&lt;Path&gt;" class="s1" d="m1373.2 2650.85q0 0 0.02-0.01c-33.8-36.79-91.92-73.05-151.68-56.96-89.92 24.21-126.23-39.77-219.6 8.65-72.1 37.39-33.87 122.19 11.97 152.52 18.59 8.7 38.29 9 47.98 8.46 54.23-7.75 138.8 35.75 204.6 62.07 60.25 24.1 112.62-30.51 125.12-45 23.51-32.01 8.34-81.2 0.67-100.99-4.96-10.74-19.08-28.74-19.08-28.74z"/>
					<path id="&lt;Path&gt;" class="s1" d="m1835.48 2814.07c-43.23 39.77-160.81 91.65-228.24 134.87-46.96 30.11-45.29 80.32-39.94 108.05l0.06-0.08c0 0 4.69 17.33 10.47 27.84 18.08 27.52 32.98 49.48 79.55 54.4 56.31 5.94 115.85-79.54 143.52-146.98 27.66-67.43 115.85-112.39 131.41-164.26 15.56-51.88-53.6-53.61-96.83-13.84z"/>
					<path id="&lt;Path&gt;" class="s1" d="m1711.18 2758.53c0 0-46.68 58.79-131.41 8.64-84.73-50.14-53.6-188.47 0-252.45 53.6-63.98 110.66-174.64 110.66-259.37 0-84.72 41.5-223.05 138.33-178.09 96.83 44.95 25.94 152.16-5.19 219.59-31.12 67.44-48.41 171.19-44.95 235.16 3.46 63.98-8.65 167.73-67.44 226.52z"/>
					<path id="&lt;Path&gt;" class="s1" d="m1397.4 3203.88c0 0-69.76 60.24-117.2-13.72-47.45-73.95-51.63-136.74-89.31-192.56-37.67-55.81-20.93-143.72 40.47-125.58 61.39 18.14 64.19 92.09 96.28 122.79 32.09 30.7 89.88 82.73 96.28 124.19 5.18 33.58 5.95 54.78-26.52 84.88z"/>
					<path id="&lt;Path&gt;" class="s1" d="m1375.38 2491.41c0 0-83.95 72.48-141.03-16.51-57.09-88.98-62.12-164.54-107.46-231.7-45.33-67.16-25.18-172.93 48.69-151.11 73.88 21.83 77.24 110.82 115.85 147.76 38.62 36.93 108.15 99.53 115.85 149.43 6.24 40.41 7.17 65.91-31.9 102.13z"/>
					<path id="&lt;Path&gt;" class="s2" d="m1876.34 2864.42c-0.23-0.57-0.66-1.02-1.22-1.26-0.56-0.25-1.19-0.26-1.76-0.03l-29.77 11.73c16.57-20.14 25.82-32.03 25.91-32.15 0.37-0.48 0.54-1.08 0.46-1.69-0.08-0.61-0.38-1.15-0.87-1.53-1-0.77-2.44-0.59-3.22 0.41-0.33 0.43-33.75 43.42-87.46 104.29v-69.49c0-1.26-1.03-2.29-2.3-2.29-1.26 0-2.29 1.03-2.29 2.29v74.68c-43.61 49.18-87.28 95.07-129.8 136.39l3.3-92.4c0.04-1.26-0.95-2.33-2.21-2.37q-0.04-0.01-0.07-0.01c-1.25 0-2.26 0.96-2.31 2.22l-3.45 96.83q0 0.17 0.03 0.3c-44.76 43.23-88.07 81.12-128.72 112.65 6.66-100.11 9.64-202.69 8.88-304.91 34.19-45.39 69.26-108.27 104.23-186.89l103.66-74.29c1.03-0.73 1.26-2.17 0.53-3.2-0.36-0.5-0.89-0.83-1.5-0.93-0.6-0.09-1.21 0.05-1.7 0.4l-97.34 69.76c32.61-74.35 64.82-161.43 95.74-258.84 5.46-17.18 10.96-34.97 16.36-52.89l37.25-33.86c0.46-0.41 0.72-0.97 0.75-1.59 0.03-0.61-0.18-1.2-0.59-1.65-0.85-0.93-2.31-1-3.24-0.15l-31.61 28.73c38.7-129.41 61.1-227.85 61.32-228.83 0.14-0.6 0.03-1.22-0.29-1.74-0.33-0.51-0.84-0.87-1.44-1.01-0.59-0.13-1.2-0.03-1.72 0.3-0.52 0.32-0.88 0.83-1.02 1.43-0.07 0.32-7.49 32.84-20.88 84.17l-25.31-68.04c-0.21-0.57-0.64-1.03-1.2-1.28-0.55-0.26-1.18-0.28-1.75-0.07-0.57 0.22-1.03 0.64-1.29 1.2-0.25 0.56-0.27 1.18-0.06 1.75l27.59 74.16c-12.75 48.53-26.4 96.99-40.56 144.03-0.41 0.48-0.6 1.1-0.52 1.73-5.34 17.71-10.78 35.28-16.17 52.25-12.53 39.48-25.5 77.89-38.55 114.21l-4.73-114.94c-0.02-0.61-0.28-1.18-0.73-1.6-0.45-0.41-1.03-0.62-1.65-0.59-0.61 0.02-1.18 0.28-1.59 0.73-0.42 0.46-0.63 1.04-0.61 1.65l5.18 126.14c-52.28 143.48-104.98 251.86-156.63 322.14-0.42-45.82-1.55-91.43-3.36-135.56-6.86-167-23.48-335.49-49.4-500.78-3.24-20.62-6.69-41.57-10.25-62.26l42.49-104.49c0.48-1.17-0.09-2.51-1.26-2.99-0.57-0.23-1.19-0.23-1.75 0.01-0.57 0.24-1.01 0.68-1.24 1.25l-39.72 97.68c-5.4-30.98-11.18-62.08-17.19-92.44q0.04-0.6-0.22-1.14c-9.02-45.5-18.74-90.38-28.89-133.4l22.91-56.11c0.23-0.57 0.22-1.19-0.01-1.75-0.24-0.57-0.68-1.01-1.25-1.24-0.57-0.23-1.19-0.23-1.76 0.01-0.56 0.24-1 0.68-1.23 1.25l-20.48 50.16c-23.57-98.93-41.32-154.17-41.5-154.72-0.39-1.2-1.68-1.87-2.89-1.48-1.2 0.39-1.86 1.69-1.47 2.89 0.07 0.23 7.6 23.76 19.09 66.28l-27.41-26.7c-0.44-0.42-1.01-0.65-1.63-0.65-0.62 0.01-1.19 0.26-1.62 0.7-0.88 0.9-0.86 2.36 0.05 3.24l32.93 32.08c12.1 45.42 30.45 119.26 49.29 213.44l-76.4-75.33c-0.43-0.42-1.01-0.66-1.61-0.66q-0.01 0-0.02 0c-0.61 0.01-1.19 0.25-1.62 0.68-0.43 0.44-0.66 1.02-0.66 1.63 0.01 0.61 0.25 1.19 0.69 1.62l81.21 80.07c10.57 53.44 20.29 108.31 28.88 163.09 16.62 105.95 29.54 215.16 38.4 324.61-56.69-27.79-111.81-72.6-163.84-133.19v-97.98c0-1.26-1.03-2.29-2.3-2.29-1.26 0-2.29 1.03-2.29 2.29v92.61c-31.29-37.12-61.16-79.6-88.78-126.27q-1.17-1.99-2.33-3.97l9.09-65.96c0.18-1.25-0.7-2.41-1.96-2.59-1.25-0.16-2.41 0.71-2.58 1.96l-8.3 60.15c-30.58-52.97-52.86-101.51-66.19-132.98l5.86-28.9c0.13-0.6 0.01-1.21-0.33-1.72-0.34-0.52-0.86-0.86-1.46-0.99-1.24-0.25-2.45 0.56-2.7 1.8l-4.52 22.29c-8.71-20.99-13.14-33.57-13.19-33.69-0.42-1.19-1.73-1.83-2.92-1.41-1.19 0.42-1.83 1.73-1.41 2.92 0.06 0.15 5.37 15.25 15.99 40.4q0.07 0.69 0.51 1.22c9.88 23.3 20.79 46.93 32.47 70.26l-36.33-19.15c-1.12-0.59-2.51-0.16-3.1 0.96-0.59 1.12-0.16 2.51 0.96 3.1l42.03 22.15c10.69 21.03 21.95 41.69 33.48 61.4q0.14 0.47 0.49 0.85 1.22 2.08 2.46 4.17c13.14 22.22 27.05 43.86 41.34 64.35l-63.17-24.86c-0.57-0.23-1.19-0.21-1.76 0.03-0.56 0.25-0.99 0.69-1.22 1.27-0.46 1.17 0.12 2.51 1.3 2.97l69.65 27.4c15.08 21.21 30.81 41.42 46.76 60.07 0.2 0.62 0.63 1.12 1.19 1.38 53.18 61.86 109.53 107.38 167.53 135.29 5.16 64.81 8.94 130.47 11.23 195.17-42.44-0.32-99.18-9.45-168.63-27.16l-42.53-93.09c-0.25-0.56-0.71-0.99-1.28-1.2-0.58-0.22-1.2-0.19-1.76 0.06-1.15 0.53-1.66 1.89-1.13 3.04l40.98 89.73c-40.28-10.44-84.83-23.72-132.41-39.47l-26.5-50.69c-0.28-0.54-0.76-0.94-1.35-1.12-0.58-0.19-1.2-0.13-1.74 0.15-1.12 0.59-1.56 1.98-0.97 3.1l24.29 46.47c-53.75-17.94-101.13-35.62-131.49-47.33l-27.39-41.95c-0.69-1.06-2.12-1.36-3.18-0.67-1.06 0.69-1.36 2.12-0.67 3.18l23.91 36.61c-22.59-8.78-35.89-14.28-36.02-14.34-1.17-0.48-2.51 0.08-3 1.24-0.48 1.17 0.07 2.52 1.24 3 0.4 0.17 41.53 17.14 100.91 38.71l-46.14 5.89c-1.26 0.16-2.15 1.31-1.99 2.56 0.16 1.24 1.29 2.15 2.57 1.99l54.18-6.92q0.34-0.05 0.61-0.19c53.61 19.29 104.63 36.03 151.67 49.75l-90.32 23.18c-1.22 0.31-1.96 1.57-1.65 2.79 0.26 1.02 1.17 1.72 2.22 1.72q0.3 0 0.57-0.07l97.7-25.07q0.06-0.02 0.12-0.05c92.95 26.67 166.74 40.38 219.33 40.74 5.88 171.56 1.47 341.73-13.08 505.84-45.09-22.03-88.97-57.42-130.43-105.22q0.03-0.1 0.04-0.25v-80c0-1.26-1.03-2.29-2.3-2.29-1.26 0-2.29 1.03-2.29 2.29v74.96c-25.66-30.26-50.13-64.98-72.76-103.2l-0.25-0.44 7.38-53.51c0.17-1.25-0.71-2.41-1.96-2.58-0.6-0.09-1.2 0.07-1.69 0.44-0.49 0.37-0.81 0.91-0.89 1.52l-6.59 47.73c-24.69-42.58-42.73-81.68-53.55-107.07l4.87-24c0.12-0.6 0-1.21-0.33-1.72-0.34-0.51-0.86-0.86-1.46-0.98-0.6-0.12-1.21-0.01-1.72 0.33-0.51 0.34-0.86 0.86-0.98 1.46l-3.53 17.4c-7.06-16.98-10.74-27.39-10.77-27.49-0.42-1.19-1.73-1.82-2.93-1.4-0.58 0.2-1.04 0.61-1.31 1.17-0.26 0.55-0.3 1.17-0.09 1.75 0.13 0.38 13.9 39.25 40.04 91.34l-28.14-14.83c-1.12-0.59-2.51-0.16-3.1 0.96-0.59 1.12-0.16 2.51 0.96 3.1l33.86 17.84c9.03 17.64 18.51 34.88 28.2 51.25 10.64 17.98 21.9 35.5 33.47 52.08l-50.62-19.92c-0.57-0.22-1.19-0.21-1.75 0.04-0.56 0.24-1 0.69-1.22 1.26-0.23 0.57-0.21 1.19 0.03 1.75 0.25 0.57 0.69 1 1.26 1.22l56.75 22.33q0.17 0.06 0.31 0.07c53.6 75.04 111.82 128.04 173.04 157.51-2.27 25.26-4.76 50.26-7.4 74.32-0.14 1.26 0.77 2.4 2.03 2.54q0.12 0.01 0.25 0.01c1.17 0 2.15-0.88 2.28-2.05 5.74-52.31 10.53-106.48 14.24-161.01 61.43-47.29 128.07-108.41 198.05-181.66q0.17-0.01 0.34-0.04l56.48-12.68c0.6-0.14 1.11-0.5 1.44-1.01 0.33-0.52 0.43-1.14 0.3-1.73-0.14-0.6-0.5-1.11-1.02-1.44-0.52-0.33-1.13-0.43-1.72-0.3l-50.16 11.26c52.8-55.62 96.36-106.43 123.66-139.34l37.5-14.77c0.57-0.23 1.01-0.66 1.26-1.22 0.24-0.56 0.25-1.19 0.03-1.76z"/>
				</g>
				<path id="&lt;Path&gt;" class="s3" d="m1683.77 3322.28h-353.29c-15.37 0-27.11 13.72-24.73 28.9l55.77 355.83c1.9 12.17 12.4 21.15 24.72 21.15h241.77c12.33 0 22.82-8.98 24.73-21.15l55.76-355.83c2.38-15.18-9.36-28.9-24.73-28.9z"/>
			</g>
			<path id="&lt;Path&gt;" class="s4" d="m2207.25 1528.03l178.08-104.4 76.76 254.84 359.04 403.93h-102.33c0 0-140.04-118.38-189.16-146.02-49.13-27.63-211.86-119.74-211.86-119.74 0 0-113.6-254.84-110.53-288.61z"/>
			<g id="&lt;Group&gt;">
				<g id="&lt;Group&gt;">
					<path id="&lt;Path&gt;" class="s5" d="m3335.27 2361.36l525.49-11.77 87.2 633.78-536.88 34.61z"/>
					<g id="&lt;Group&gt;">
						<path id="&lt;Path&gt;" class="s6" d="m3530.57 2360.41c-0.14-1.36-3.28-33.75 3.08-73.12 8.55-52.92 30.47-92.83 63.4-115.42 32.96-22.61 72.77-24.32 109.21-4.68 25.67 13.85 47.29 37.09 62.51 67.23 16.44 32.58 24.7 72.45 23.88 115.31l-15-0.29c1.78-92.47-39.39-147.95-78.51-169.04-31.32-16.88-65.44-15.48-93.61 3.84-37.13 25.47-51.5 71.21-57.02 105.1-6.11 37.49-3.05 69.25-3.02 69.57z"/>
					</g>
				</g>
				<path id="&lt;Path&gt;" class="s7" d="m2882.81 2075.14h-2.55-182.2c-19.26 0-34.88 15.62-34.88 34.89 0 19.27 15.62 34.89 34.88 34.89h229.63c0 0 7.79-69.78-44.88-69.78z"/>
				<g id="&lt;Group&gt;">
					<path id="&lt;Path&gt;" class="s7" d="m2903.54 3064.99l30.53-829.1h558.2l117.74 771.88z"/>
					<g id="&lt;Group&gt;">
						<path id="&lt;Path&gt;" class="s6" d="m3031.25 2236.42c-0.15-2.14-3.58-52.86 7.02-108.42 6.29-32.97 16.26-60.72 29.64-82.47 17.15-27.88 39.9-45.98 67.63-53.81 25.54-7.2 51.15-8.21 76.13-2.99 24.49 5.11 47.25 15.95 67.64 32.23 56.13 44.79 85.62 123.27 80.9 215.31l-14.98-0.77c4.47-87.15-22.97-161.08-75.28-202.82-37.78-30.15-84.07-39.57-130.34-26.52-106.27 29.98-93.54 227.21-93.4 229.2z"/>
					</g>
				</g>
				<g id="&lt;Group&gt;">
					<path id="&lt;Compound Path&gt;" class="s6" d="m4162.62 2975.23v-475.63l-6.81 0.33-283.51-66.45 2.2 15.92 226.94 53.2-301.94 14.79-853.74-159.78-19.74-243.47-14.95 1.22 19.41 239.39-332.87-62.3-26.81-167.02-14.81 2.38 153.72 957.49 22.9-1.73v75.66l-143.55 143.55v168.23h-14.67v15h1543.76v-15h-1231.97v-162.02l159.5-159.49 288.01-19.2-1-14.96-585.08 38.98v-71.89zm-1139.68 175.78l-151.77 151.77v168.22h-267.12v-162.01l139.36-139.35zm-390.19-639.59l206.78 35.7 30.94 232.82-196.98-14.78zm222.26 38.37l243.51 42.05 21.88 206.86-234.64-17.61zm936.45 287.42h-157.93l-5.93-0.44-8.73-155.09 172.59 29.8zm-178.95-1.58l-234.11-17.57-16.07-180.68 241.37 41.68zm-249.27-18.71l-227.64-17.09-21.72-205.35 233.16 40.26zm1.34 15.14l16.66 187.31-220.65 16.71-23.39-221.09zm15.16 1.14l233.62 17.54 8.46 150.41-225.62 17.09zm248.7 18.66l4.24 0.32 0.28 0.02h158.5v136.09l-154.68 11.72zm178.01 0.34h184.42l3.76 120.69-188.18 14.26zm0-15v-125.03l179.69-11.73 4.26 136.76zm194.66-137.74l146.48-9.57v147.31h-142.18zm146.47-24.6l-146.94 9.59-5.04-161.68 151.98-7.45zm-161.92 10.58l-179.22 11.7v-165.1l174.18-8.53zm-194.22 10.8l-173.46-29.95-9.53-169.41 182.99 34.24zm-188.63-32.56l-241.88-41.77-15.5-174.26 247.84 46.39zm-257.18-44.41l-233.42-40.3-18.88-178.5 236.78 44.32zm-248.78-42.96l-243.94-42.12-24.37-183.28 249.41 46.68zm25.12 237.53l23.62 223.36-223.57 16.94-34.28-257.88zm887.61 157.91l-3.73-119.56h141.72v109.1zm-1196.56-623.74l24.4 183.51-207.22-35.78-30.11-187.59zm-137.13 432.36l196.56 14.75 34.58 260.17-184.76 13.99z"/>
				</g>
				<path id="&lt;Path&gt;" class="s7" d="m2529.11 2072.4h-2.55-182.2c-19.27 0-34.89 15.62-34.89 34.89 0 19.26 15.62 34.88 34.89 34.88h229.63c0 0 7.78-69.77-44.88-69.77z"/>
				<g id="&lt;Group&gt;">
					<path id="&lt;Path&gt;" class="s6" d="m2744.68 3645.41c0 49.77-40.35 90.12-90.12 90.12-49.78 0-90.13-40.35-90.13-90.12 0-49.78 40.35-90.13 90.13-90.13 49.77 0 90.12 40.35 90.12 90.13z"/>
					<path id="&lt;Path&gt;" class="s3" d="m2676.66 3485.51h-59.6c-10.83 0-19.62 8.78-19.62 19.62v50.88c0 10.84 8.79 19.62 19.62 19.62h0.98q-0.24 1.61-0.25 3.27v53.06c0 13.45 10.9 24.35 24.35 24.35h10.17c13.45 0 24.35-10.9 24.35-24.35v-53.06q-0.01-1.66-0.24-3.27h0.24c10.84 0 19.63-8.78 19.63-19.62v-50.88c0-10.84-8.79-19.62-19.63-19.62z"/>
				</g>
				<g id="&lt;Group&gt;">
					<path id="&lt;Path&gt;" class="s6" d="m3851.33 3645.4c0 49.77-40.35 90.12-90.12 90.12-49.78 0-90.13-40.35-90.13-90.12 0-49.78 40.35-90.13 90.13-90.13 49.77 0 90.12 40.35 90.12 90.13z"/>
					<path id="&lt;Path&gt;" class="s3" d="m3783.31 3485.49l-59.6 0.01c-10.84 0-19.62 8.78-19.62 19.62v50.88c0 10.83 8.78 19.62 19.62 19.62h0.97q-0.23 1.61-0.24 3.27v53.06c0 13.45 10.9 24.35 24.35 24.35h10.17c13.45 0 24.35-10.9 24.35-24.35v-53.06q-0.01-1.66-0.24-3.27h0.24c10.84 0 19.62-8.79 19.62-19.62v-50.88c0-10.84-8.78-19.62-19.62-19.62z"/>
				</g>
				<path id="&lt;Path&gt;" class="s3" d="m4071.46 3568.24c2.11-3.13 3.35-6.91 3.35-10.97v-50.88c0-10.83-8.79-19.62-19.63-19.62h-59.59c-10.84 0-19.63 8.79-19.63 19.62v50.88c0 4.68 1.64 8.96 4.37 12.33-26 15.81-43.37 44.41-43.37 77.07 0 49.78 40.35 90.13 90.12 90.13 49.78 0 90.13-40.35 90.13-90.13 0-33.63-18.44-62.95-45.75-78.43z"/>
				<path id="&lt;Path&gt;" class="s3" d="m2960.06 3567.97c2.11-3.13 3.35-6.9 3.35-10.96v-50.88c0-10.84-8.79-19.62-19.63-19.62h-59.59c-10.84 0-19.63 8.78-19.63 19.62v50.88c0 4.67 1.64 8.96 4.37 12.33-26 15.81-43.37 44.41-43.37 77.07 0 49.77 40.35 90.12 90.12 90.12 49.78 0 90.13-40.35 90.13-90.12 0-33.64-18.44-62.95-45.75-78.43z"/>
			</g>
			<path id="&lt;Path&gt;" class="s3" d="m3335.61 1458.12c0-179.43-145.46-324.88-324.89-324.88-179.43 0-324.89 145.45-324.89 324.88 0 151.2 103.28 278.27 243.14 314.51l70.68 141.36c4.09 8.18 15.98 7.49 19.1-1.1l49.05-134.88c152.21-26.98 267.81-159.93 267.81-319.89z"/>
			<g id="&lt;Group&gt;">
				<path id="&lt;Path&gt;" class="s4" d="m2140.85 804.17c0 0 61.23 56.95 59.89 148.86-1.34 91.92 15.41 167.61-87.28 169.77 0 0-8.69 61.04 54.64 89.88 0 0-71.69 84.03-217.74 6.8 0 0 58.32-66.42 28.67-154.1 0 0-92.01-90.09-24.31-198.42 67.71-108.33 186.13-62.79 186.13-62.79z"/>
				<path id="&lt;Path&gt;" class="s6" d="m2144.93 744.85c0 0-111.1-58.26-189.29 61.35 0 0-77.98-3.41-84.04 87.12 0 0 37.32 127.89 110.77 178.17l-1.41-38.88c0 0-40.23-35.91-25.58-61.35 14.65-25.45 38.54-10.74 38.54-10.74 0 0-10.5-117.96 100.68-143.78 0 0 93.71 8.15 103.7 101.22 0 0 47.72-47.53 44.42-95.68-3.3-48.15-46.3-74.62-97.79-77.43z"/>
				<path id="&lt;Path&gt;" class="s6" d="m2083.7 974.4c-4.32 6.41-13.03 8.11-19.44 3.79-6.42-4.32-8.12-13.02-3.8-19.44 4.32-6.41 13.03-8.11 19.44-3.79 6.42 4.32 8.12 13.02 3.8 19.44z"/>
				<path id="&lt;Path&gt;" class="s6" d="m2183.82 958.83c0.28 7.73-5.76 14.23-13.49 14.51-7.73 0.28-14.22-5.76-14.5-13.49-0.28-7.73 5.76-14.22 13.49-14.5 7.73-0.28 14.22 5.76 14.5 13.48z"/>
				<path id="&lt;Path&gt;" class="s8" d="m2124.59 957.09c0 0 38.18 43.77 32.29 53.32-5.88 9.56-21.26 14.79-39.34 9.99l4.91-57.79c0 0-0.15-4.27 2.14-5.52z"/>
				<path id="&lt;Path&gt;" class="s9" d="m2093.47 1060.09l85.61-7c0 0-6.08 39.36-39.99 37.91-33.91-1.45-45.62-30.91-45.62-30.91z"/>
				<path id="&lt;Path&gt;" class="s6" d="m2041.71 918.69c-1.67-2.6-0.4-6.47 0.86-8.59 3.42-5.73 11.31-6.32 19.6-6.94 8.72-0.65 18.17-1.35 21.57 4.28 1.42 2.36 1.83 5.93 0.31 8.55-1.88 3.24-5.73 3.39-22.42 4.32-14.45 0.8-18.2 1.05-19.92-1.62z"/>
				<path id="&lt;Path&gt;" class="s6" d="m2156.47 920.25c-1.67-2.61-0.4-6.47 0.86-8.6 3.42-5.73 11.31-6.32 19.6-6.93 8.72-0.65 18.17-1.36 21.57 4.28 1.42 2.36 1.83 5.92 0.31 8.55-1.88 3.23-5.73 3.39-22.43 4.31-14.44 0.8-18.19 1.05-19.91-1.61z"/>
				<g id="&lt;Clip Group&gt;">
					<path id="&lt;Path&gt;" class="s8" d="m2113.46 1122.8c0 0-45.39-6.66-79.58-33.45 0 0 17.48 81.37 108.31 95.73z"/>
				</g>
			</g>
			<g id="&lt;Group&gt;">
				<g id="&lt;Group&gt;">
					<path id="&lt;Path&gt;" class="s4" d="m2162.13 3379.43l21.69 229.62 80.05-5.95 16.41-224.85z"/>
				</g>
				<path id="&lt;Path&gt;" class="s6" d="m2409.79 3679.75c-2.9-0.46-6.36-1.49-10.25-3-66.93-20.92-121.02-77.35-133.16-84.79-14.73 8.91-70.32 15.77-81.35 8.81-1.04-0.65-2.27-1.2-3.62-1.67-4.38 5.59-34.38 45.11-32.17 73.99 0.26 3.43 0.45 7.51 0.59 12.02l2.34 44.59 292.93 2.69c3.32-16.48-4.5-47.8-35.31-52.64z"/>
			</g>
			<g id="&lt;Group&gt;">
				<g id="&lt;Group&gt;">
					<path id="&lt;Path&gt;" class="s4" d="m1364.79 3280.72l-151.85 173.59 59.35 54.06 174.58-142.65z"/>
				</g>
				<path id="&lt;Path&gt;" class="s6" d="m1316.93 3667.03c-1.66-2.42-3.29-5.64-4.87-9.51-30.82-62.99-27.01-141.06-29.95-154.99-16.61-4.57-59.79-40.23-62.33-53.02-0.24-1.21-0.69-2.48-1.27-3.78-7.07 0.66-56.39 6.04-75.85 27.49-2.31 2.55-5.15 5.5-8.33 8.69l-30.78 32.36 199.42 214.59c14.25-8.92 31.62-36.13 13.96-61.83z"/>
			</g>
			<g id="&lt;Group&gt;">
				<path id="&lt;Path&gt;" class="s10" d="m1657.8 2184.06l-47.97 627.98-348.87 545.11 101.74 111.19 465.18-499.31 165.71-453.54 150.55 1024.82 160.6-21.81-23.33-1334.44z"/>
				<g id="&lt;Group&gt;">
					<path id="&lt;Path&gt;" class="s9" d="m2261.38 2377.25c-0.6 0-1.21-0.18-1.73-0.55-34.62-24.44-49.9-61.48-56.63-88.26-7.25-28.89-6.39-51.72-6.35-52.68 0.07-1.65 1.49-2.93 3.12-2.87 1.65 0.07 2.94 1.47 2.87 3.12-0.01 0.23-0.85 23.06 6.23 51.14 6.48 25.73 21.15 61.31 54.22 84.65 1.35 0.96 1.68 2.83 0.72 4.18-0.58 0.83-1.51 1.27-2.45 1.27z"/>
				</g>
				<g id="&lt;Group&gt;">
					<path id="&lt;Path&gt;" class="s9" d="m1678.52 2377.25c-1.5 0-2.79-1.11-2.98-2.64-0.2-1.64 0.98-3.14 2.62-3.34 43.68-5.28 76.01-22.46 96.11-51.07 36.55-52.06 20.33-125.08 20.16-125.81-0.37-1.62 0.64-3.23 2.25-3.6 1.62-0.37 3.22 0.64 3.6 2.25 0.17 0.78 4.35 19.27 3.91 44.68-0.41 23.53-5.08 57.54-25.01 85.93-21.12 30.06-54.86 48.09-100.3 53.58q-0.18 0.02-0.36 0.02z"/>
				</g>
				<path id="&lt;Path&gt;" class="s11" d="m1976 1174.04c0 0-222.26 2.65-292.03 255.59-69.78 252.93-43.61 784.96-43.61 784.96 0 0 470.98 91.58 667.22 0 0 0 0-518.95 0-614.89 0 0 87.22-17.44 174.44-143.91 0 0-98.93-236.97-332.85-254.07 0 0 18.51 29.32-47.55 36.19-80.24 8.34-119.1-23.09-125.62-63.87z"/>
			</g>
			<path id="&lt;Path&gt;" class="s7" d="m2863.22 2144.91v0.01h-10.62c-4.98-8.06-10.08-15.53-10.08-15.53 0 0-12.57-21.52-16.57-30.77-4-9.25-69.71 3.54-81.14 5.25-11.43 1.72-12 62.29-5.14 72 6.85 9.72 122.85-6.28 122.28-12.57 1.77-1.17 1.73-10.02 1.27-18.39z"/>
			<path id="&lt;Path&gt;" class="s4" d="m2454.24 2141.61c0 0-48.86-44.14-51.43-46.32-2.57-2.18-65.88-58.22-73.45-59.82-20.86-25.83-43.76-53.65-54.25-64.57-22.07-22.94-203.08-191.3-203.08-191.3l-76.52-279.6c0 0-67.7 85.35-241.34 67.69 0 0 103.01 273.72 126.55 291.38 23.55 17.65 335.52 161.87 362.01 188.36 26.49 26.48 58.86 94.18 58.86 94.18 0 0 31.79 48.36 45.5 51.79 13.72 3.42 96-21.43 102-32.58 6-11.14 5.15-19.21 5.15-19.21z"/>
			<g id="&lt;Group&gt;">
				<path id="&lt;Path&gt;" class="s9" d="m1754.17 1570.69c-1.35 0-2.57-0.9-2.91-2.27-0.18-0.7-17.46-70.71-19.17-152.39-0.03-1.66 1.29-3.03 2.94-3.06 1.69-0.04 3.03 1.28 3.06 2.93 1.69 80.98 18.82 150.38 18.99 151.07 0.4 1.6-0.58 3.23-2.18 3.63q-0.37 0.1-0.73 0.09z"/>
			</g>
			<g id="&lt;Group&gt;">
				<path id="&lt;Path&gt;" class="s9" d="m2307.58 1602.7q-0.14 0-0.28-0.01c-1.65-0.15-2.86-1.62-2.71-3.27 0.16-1.66 15.12-166.97-13.49-252.79-0.52-1.57 0.33-3.27 1.9-3.8 1.57-0.52 3.27 0.33 3.8 1.9 29 87.02 13.92 253.58 13.77 255.25-0.15 1.56-1.46 2.72-2.99 2.72z"/>
			</g>
			<g id="&lt;Group&gt;">
				<path id="&lt;Path&gt;" class="s9" d="m1995.51 1503c-1.33 0-2.54-0.88-2.9-2.22-0.64-2.41-15.77-59.22-18.34-76.71-0.24-1.64 0.89-3.16 2.53-3.4 1.64-0.24 3.16 0.89 3.4 2.53 2.52 17.15 18.05 75.44 18.21 76.03 0.42 1.6-0.53 3.24-2.13 3.67q-0.39 0.1-0.77 0.1z"/>
			</g>
			<g id="&lt;Group&gt;">
				<path id="&lt;Path&gt;" class="s6" d="m2984.66 1621.04l-178.38-178.38c-2.93-2.93-2.93-7.68 0-10.6 2.93-2.93 7.68-2.93 10.61 0l167.77 167.76 231.89-231.89c2.93-2.93 7.68-2.93 10.6 0 2.93 2.93 2.93 7.68 0 10.61z"/>
			</g>
			<g id="&lt;Group&gt;">
			</g>
		</g>
	</g>
</svg>