<?xml version="1.0" encoding="UTF-8"?>
<svg id="Layer_1" xmlns="http://www.w3.org/2000/svg" version="1.1" viewBox="0 0 3750 2501.25">
  <!-- Generator: Adobe Illustrator 29.6.1, SVG Export Plug-In . SVG Version: 2.1.1 Build 9)  -->
  <defs>
    <style>
      .st0 {
        fill: #ff8080;
      }

      .st1 {
        fill: #f300d3;
      }

      .st2 {
        fill: #fff;
      }

      .st3 {
        fill: #f2f2f2;
      }

      .st4 {
        fill: #d5e5ff;
      }

      .st5 {
        fill: #d3f300;
      }

      .st6 {
        fill: #f7c560;
      }

      .st7 {
        fill: #00d3f3;
      }
    </style>
  </defs>
  <path class="st7" d="M1429.45,887.39v113.67c-.14,11.64,9.25,21.14,20.89,21.14,11.64,0,21.03-9.51,20.89-21.14v-113.67s0-41.78,0-41.78v38.21c.27-19.06-23.03-28.5-36.1-14.63-3.72,3.95-5.76,9.19-5.68,14.62v-38.2s0,41.78,0,41.78Z"/>
  <path class="st7" d="M1429.45,716.25v113.67c-.14,11.64,9.25,21.14,20.89,21.14,11.64,0,21.03-9.51,20.89-21.14v-113.67s0-41.78,0-41.78v38.21c.27-19.06-23.03-28.5-36.1-14.63-3.72,3.95-5.76,9.19-5.68,14.62v-38.2s0,41.78,0,41.78Z"/>
  <path class="st7" d="M2281.09,868.53v129.82c-.14,11.64,9.25,21.14,20.89,21.14,11.64,0,21.03-9.51,20.89-21.14v-129.82s0-41.78,0-41.78v-113.67c.27-19.06-23.03-28.5-36.1-14.63-3.72,3.95-5.76,9.19-5.68,14.62v113.67s0,41.78,0,41.78Z"/>
  <path class="st7" d="M3014.47,1047.87l-587.41-.45c-12.18-.01-21.99,9.65-21.98,21.65l.16,330.17c0,12.01,9.82,21.68,22.01,21.69l587.41.45c12.19.01,21.99-9.65,21.99-21.66l-.17-330.17c0-12.01-9.82-21.68-22.01-21.69Z"/>
  <path class="st5" d="M2443.15,1101.62l56.28.46c7.23.06,13.11,6.88,13.19,15.3l.48,54.27c.07,8.42-5.69,15.14-12.92,15.08l-56.28-.46c-7.23-.06-13.11-6.88-13.19-15.3l-.48-54.27c-.07-8.42,5.69-15.14,12.92-15.08Z"/>
  <path class="st4" d="M2440.75,1359.96l105.49.87c3.66.03,6.57-3.57,6.53-8.07v-.96c-.05-4.5-3.03-8.15-6.68-8.18l-105.49-.87c-3.66-.03-6.57,3.57-6.53,8.07v.96c.05,4.5,3.03,8.15,6.68,8.18Z"/>
  <path class="st4" d="M2440.47,1327.62l43.93.36c3.66.03,6.57-3.57,6.53-8.07v-.96c-.05-4.5-3.03-8.15-6.68-8.18l-43.93-.36c-3.66-.03-6.57,3.57-6.53,8.07v.96c.05,4.5,3.03,8.15,6.68,8.18Z"/>
  <path class="st2" d="M2444.28,1235.37l77.42.64c6.48.05,11.74,6.17,11.81,13.7v1.6c.08,7.54-5.08,13.57-11.56,13.51l-77.42-.64c-6.48-.05-11.74-6.17-11.81-13.7v-1.6c-.08-7.54,5.08-13.57,11.56-13.51Z"/>
  <path class="st2" d="M2589.61,1236.56l77.42.64c6.48.05,11.74,6.17,11.81,13.7v1.6c.08,7.54-5.08,13.57-11.56,13.51l-77.42-.64c-6.48-.05-11.74-6.17-11.81-13.7v-1.6c-.08-7.54,5.08-13.57,11.56-13.51Z"/>
  <path class="st2" d="M2734.94,1237.75l77.42.64c6.48.05,11.74,6.17,11.81,13.7v1.6c.08,7.54-5.08,13.57-11.56,13.51l-77.42-.64c-6.48-.05-11.74-6.17-11.81-13.7v-1.6c-.08-7.54,5.08-13.57,11.56-13.51Z"/>
  <path class="st2" d="M2880.26,1238.94l77.42.64c6.48.05,11.74,6.17,11.81,13.7v1.6c.08,7.54-5.08,13.57-11.56,13.51l-77.42-.64c-6.48-.05-11.74-6.17-11.81-13.7v-1.6c-.08-7.54,5.08-13.57,11.56-13.51Z"/>
  <path class="st4" d="M2643.98,1135.2l231.03,1.9c3.66.03,6.64,3.68,6.68,8.18v.96c.05,4.5-2.87,8.1-6.53,8.07l-231.03-1.9c-3.66-.03-6.64-3.68-6.68-8.18v-.96c-.05-4.5,2.87-8.1,6.53-8.07Z"/>
  <path class="st5" d="M2888.57,1344.59c.07,8.1,3.46,15.89,9.41,21.67,5.95,5.77,13.99,9.06,22.34,9.13,17.38.14,31.36-13.41,31.21-30.28-.15-16.86-14.36-30.65-31.74-30.79-8.35-.07-16.33,3.08-22.18,8.76-5.85,5.68-9.1,13.42-9.03,21.52Z"/>
  <path class="st6" d="M990.06,1326.52l11.73,9.73c5.95,4.93,6.66,13.58,1.6,19.39l-213.15,244.72c-5.06,5.81-13.92,6.52-19.87,1.58l-11.73-9.73c-5.95-4.93-6.66-13.58-1.6-19.39l213.15-244.72c5.06-5.81,13.92-6.52,19.87-1.58Z"/>
  <path class="st2" d="M1262.08,1323.32c-33.2,38.12-80.43,61.93-131.3,66.17-50.86,4.25-101.2-11.41-139.92-43.53-38.73-32.12-62.68-78.06-66.58-127.73-3.91-49.67,12.56-98.99,45.76-137.11,69.15-79.39,190.58-89.52,271.22-22.65,38.73,32.12,62.68,78.06,66.58,127.73,3.91,49.67-12.55,98.99-45.76,137.11Z"/>
  <path class="st5" d="M1154.66,998.15c-72.45-14.52-150.94,9.17-202.39,68.25-74.84,85.92-64.76,214.86,22.69,287.38,87.45,72.52,219.49,61.44,294.33-24.49,74.84-85.92,64.76-214.86-22.69-287.38-27.33-22.66-59.01-37.16-91.94-43.76ZM1147.87,1029.31c27.72,5.59,54.41,17.85,77.49,36.98,73.85,61.24,82.41,169.45,18.96,242.29-63.45,72.85-174.27,82.05-248.12,20.81-73.85-61.24-82.41-169.44-18.96-242.29,43.62-50.08,109.63-70.08,170.63-57.79Z"/>
  <path class="st0" d="M944.66,1378.8c-35.77-24.19-58.89,29.03-79.37,47.98-37.03,47.91-86.13,89.01-117.18,140.35-8.16,31.2,43.21,65.49,72.97,24.94,47.49-58.73,104.32-111.96,146.93-173.58,4.87-17.6-10.2-30.63-23.36-39.69Z"/>
  <path class="st7" d="M1529.03,520.25h691.95c46.69,0,84.28,44.5,84.28,99.78v1482.14c0,55.28-37.59,99.78-84.28,99.78h-691.95c-46.69,0-84.28-44.5-84.28-99.78V620.02c0-55.28,37.59-99.78,84.28-99.78Z"/>
  <path class="st2" d="M1553.96,551.21h642.08c43.32,0,78.2,42.86,78.2,96.1v1427.57c0,53.24-34.88,96.1-78.2,96.1h-642.08c-43.32,0-78.2-42.86-78.2-96.1V647.31c0-53.24,34.88-96.1,78.2-96.1Z"/>
  <path class="st7" d="M1611.15,1785.01l523.73-.53c43.82-.04,79.13,48.94,79.17,109.83v12.94c.05,60.89-35.19,109.95-79,110l-523.73.53c-43.82.04-79.13-48.94-79.17-109.83v-12.94c-.05-60.89,35.19-109.95,79-110Z"/>
  <path d="M1903.25,611.94c0,15.6-12.65,28.25-28.25,28.25-7.49,0-14.68-2.98-19.97-8.27s-8.27-12.48-8.27-19.97,2.98-14.68,8.27-19.97c5.3-5.3,12.48-8.27,19.97-8.27,15.6,0,28.25,12.65,28.25,28.25Z"/>
  <path class="st1" d="M1556.98,1635.62c219.31,0,438.28,2.7,631.99,2.7,33.66,0,26.48-35.53,26.48-35.53l-73.29-513.45c-8.69-60.91-27.35-91.63-59.13-91.27-84.24.95-327.29-2.98-411.47-2.98-29.97,0-64.65,34.26-64.65,75.82l-76.11,524.04s-8.06,40.66,26.17,40.66Z"/>
  <path class="st2" d="M1695.61,1062.77c0,13.56,5.55,26.56,15.43,36.15,9.88,9.59,23.29,14.98,37.26,14.97,29.1,0,52.7-22.89,52.7-51.13,0-28.24-23.59-51.13-52.7-51.13-13.98,0-27.38,5.39-37.26,14.97-9.88,9.59-15.43,22.59-15.43,36.15Z"/>
  <path class="st2" d="M1935.66,1062.77c0,13.56,5.55,26.56,15.43,36.15,9.88,9.59,23.29,14.98,37.26,14.97,29.1,0,52.7-22.89,52.7-51.13,0-28.24-23.59-51.13-52.7-51.13-13.98,0-27.38,5.39-37.26,14.97-9.88,9.59-15.43,22.59-15.43,36.15Z"/>
  <path class="st5" d="M1865.04,775.74c-35.37-.09-77.56,10.44-104.92,32.81-27.35,22.37-45.6,57.08-45.35,100.76l.87,152.67c.22,38.85,65.44,39,65.2.08l-.87-141.51c-.2-35.22,13.2-51.68,33.59-68.35,20.39-16.68,86.47-16.36,107.17.28,20.7,16.64,34.45,32.75,34.5,66.73l.88,143.37c.2,33.18,65.4,34.76,65.21.07l-.88-155.13c-.24-42.68-18.94-76.78-46.43-98.88-27.49-22.1-73.61-32.8-108.98-32.89Z"/>
  <path class="st2" d="M1703.27,1929.61h-17.4q-3.77,0-5.4-1.67t-1.59-5.4v-42.81q0-3.77,1.63-5.4,1.67-1.67,5.36-1.67h18.45q4.08,0,7.07.51,2.99.51,5.36,1.94,2.02,1.2,3.57,3.07,1.55,1.83,2.37,4.08.82,2.21.82,4.7,0,8.55-8.55,12.51,11.23,3.57,11.23,13.91,0,4.78-2.45,8.62-2.45,3.81-6.6,5.63-2.6,1.09-5.98,1.55-3.38.43-7.89.43ZM1702.42,1904.32h-12v16.63h12.39q11.69,0,11.69-8.43,0-4.31-3.03-6.25-3.03-1.94-9.05-1.94ZM1690.41,1881.32v14.72h10.57q4.31,0,6.64-.82,2.37-.82,3.61-3.11.97-1.63.97-3.65,0-4.31-3.07-5.71-3.07-1.44-9.36-1.44h-9.36Z"/>
  <path class="st2" d="M1735.27,1906.06v-27.39q0-3.5,1.55-5.24t4.16-1.75,4.23,1.75,1.59,5.24v28.01q0,4.78,1.05,8,1.09,3.19,3.81,4.97,2.72,1.75,7.61,1.75,6.76,0,9.56-3.57,2.8-3.61,2.8-10.92v-28.24q0-3.54,1.55-5.24,1.55-1.75,4.16-1.75,2.6,0,4.2,1.75,1.63,1.71,1.63,5.24v27.39q0,6.68-1.32,11.15-1.28,4.47-4.89,7.85-3.11,2.87-7.23,4.2-4.12,1.32-9.63,1.32-6.57,0-11.3-1.4-4.74-1.44-7.73-4.39-2.99-2.99-4.39-7.61-1.4-4.66-1.4-11.11Z"/>
  <path class="st2" d="M1810.44,1923.55v-18.06l-13.91-21.56q-1.83-2.91-2.6-4.55t-.74-2.84q0-1.98,1.52-3.42,1.55-1.44,3.81-1.44,2.37,0,3.57,1.36,1.24,1.32,3.69,5.32l10.64,17.29,10.76-17.29q.97-1.59,1.63-2.68.66-1.09,1.44-2.02.82-.97,1.79-1.48.97-.51,2.37-.51,2.18,0,3.61,1.44,1.48,1.4,1.48,3.26,0,1.52-.74,3.03-.74,1.52-2.53,4.2l-14.26,21.87v18.06q0,3.54-1.63,5.28-1.63,1.75-4.16,1.75-2.56,0-4.16-1.71-1.59-1.75-1.59-5.32Z"/>
  <path class="st2" d="M1886.64,1878.6l22.18,33.56v-33.87q0-3.3,1.4-4.93t3.85-1.67,3.92,1.67,1.44,4.93v44.79q0,7.5-6.22,7.5-1.55,0-2.8-.47-1.24-.43-2.33-1.4-1.09-.97-2.02-2.25-.93-1.32-1.86-2.68l-21.64-33.18v33.37q0,3.26-1.52,4.93-1.52,1.67-3.88,1.67-2.45,0-3.92-1.67-1.48-1.71-1.48-4.93v-43.94q0-2.8.62-4.39.74-1.75,2.45-2.84,1.71-1.13,3.69-1.13,1.55,0,2.64.51,1.13.5,1.94,1.36.85.85,1.71,2.21.89,1.36,1.83,2.84Z"/>
  <path class="st2" d="M1959.24,1871.68q8.86,0,15.19,3.61t9.63,10.22,3.26,15.54q0,6.6-1.79,12-1.79,5.4-5.36,9.36-3.57,3.96-8.78,6.06-5.21,2.1-11.93,2.1-6.68,0-11.97-2.14-5.28-2.18-8.82-6.1-3.54-3.92-5.36-9.44-1.79-5.52-1.79-11.93,0-6.57,1.86-12.04,1.9-5.48,5.48-9.32,3.57-3.85,8.7-5.87,5.13-2.06,11.65-2.06ZM1975.64,1900.98q0-6.25-2.02-10.84-2.02-4.58-5.79-6.91-3.73-2.37-8.59-2.37-3.46,0-6.41,1.32-2.91,1.28-5.05,3.77-2.1,2.49-3.34,6.37-1.2,3.85-1.2,8.66,0,4.86,1.2,8.78,1.24,3.92,3.46,6.53,2.25,2.56,5.13,3.85,2.91,1.28,6.37,1.28,4.43,0,8.12-2.21,3.73-2.21,5.9-6.84,2.21-4.62,2.21-11.38Z"/>
  <path class="st2" d="M2040.68,1920.63l-9.21-34.15-9.32,34.15q-1.09,3.88-1.75,5.59t-2.21,3.03-4.23,1.32q-2.14,0-3.54-.82-1.36-.78-2.21-2.21-.85-1.48-1.4-3.46-.54-2.02-.97-3.73l-9.48-38.34q-.85-3.34-.85-5.09,0-2.21,1.55-3.73,1.55-1.52,3.85-1.52,3.15,0,4.23,2.02,1.09,2.02,1.9,5.87l7.46,33.25,8.35-31.12q.93-3.57,1.67-5.44.74-1.86,2.41-3.22,1.67-1.36,4.55-1.36,2.91,0,4.51,1.44,1.63,1.4,2.25,3.07.62,1.67,1.67,5.52l8.43,31.12,7.46-33.25q.54-2.6,1.01-4.08.51-1.48,1.67-2.64,1.2-1.17,3.46-1.17,2.25,0,3.81,1.52,1.59,1.48,1.59,3.73,0,1.59-.85,5.09l-9.48,38.34q-.97,3.88-1.63,5.71-.62,1.79-2.18,3.15-1.52,1.36-4.31,1.36-2.64,0-4.23-1.32-1.59-1.32-2.21-2.95-.62-1.67-1.75-5.67Z"/>
  <path class="st6" d="M1596.28,1954.59c.42-.33-.5-.56-.94-.85l-211.33-136.72-219.53,136.72c-.43.27-1.32.56-.94.85l222.32,167.71,210.43-167.71Z"/>
  <path class="st7" d="M1225.79,1714.45c-17.04,0-30.76,14-30.76,31.39v320.14c0,17.39,13.72,31.39,30.76,31.39h309.58c17.04,0,30.76-14,30.76-31.39v-320.14c0-1.01-.05-2-.14-2.99l37.75-19.17-15.67-9.49-362.28.26Z"/>
  <path class="st2" d="M1493.88,1782.32l-218.6-.49c-5.64-.01-10.2,5.45-10.22,12.24-.02,6.8,4.51,12.29,10.15,12.3l218.6.49c5.64.01,10.2-5.45,10.22-12.24.02-6.8-4.51-12.29-10.15-12.3Z"/>
  <path class="st2" d="M1493.16,1863.44l-218.6-.49c-5.64-.01-10.2,5.45-10.22,12.24-.02,6.8,4.51,12.29,10.15,12.3l218.6.49c5.64.01,10.2-5.45,10.22-12.24.02-6.8-4.51-12.29-10.15-12.3Z"/>
  <path class="st2" d="M1493.4,1944.56l-218.6-.49c-5.64-.01-10.2,5.45-10.22,12.24-.02,6.8,4.51,12.29,10.15,12.3l218.6.49c5.64.01,10.2-5.45,10.22-12.24.02-6.8-4.51-12.29-10.15-12.3Z"/>
  <path class="st2" d="M1493.64,2025.69l-218.6-.49c-5.64-.01-10.2,5.45-10.22,12.24-.02,6.8,4.51,12.29,10.15,12.3l218.6.49c5.64.01,10.2-5.45,10.22-12.24.02-6.8-4.51-12.29-10.15-12.3Z"/>
  <path class="st3" d="M1591.87,1714.19c-14.29,0-25.87,12.69-25.87,28.35,0,.23.01.47.02.7h51.69c.01-.23.02-.47.03-.7,0-15.66-11.58-28.35-25.87-28.35Z"/>
  <path class="st5" d="M1164.48,1955.77l219.53,132.78,211.33-132.78c.43-.27.94.38.94.85v246.59c0,.47-.42.85-.94.85h-430.86c-.43.27-.94-.38-.94-.85v-246.59c0-.47.42-.85.94-.85Z"/>
  <path class="st2" d="M1277.4,2117.32c0,7.96-3.26,15.59-9.06,21.21-5.8,5.63-13.66,8.79-21.87,8.79-17.08,0-30.92-13.43-30.92-30,0-16.57,13.84-30,30.92-30,8.2,0,16.07,3.16,21.87,8.79,5.8,5.63,9.06,13.26,9.06,21.21Z"/>
  <path class="st7" d="M1231.2,260.24l360.13.31c84.67.07,153.33,73.11,152.74,163.76l-.21,32.26c-.59,90.65-68.27,163.57-152.94,163.5l-25.94,79.1-87.29-79.19-246.9-.21c-84.67-.07-153.33-73.11-152.74-163.76l.21-32.26c.59-90.65,68.27-163.57,152.94-163.5Z"/>
  <path class="st2" d="M1472.17,435.65c0,15.73-6.44,30.82-17.91,41.94s-27.01,17.37-43.23,17.37c-33.76,0-61.13-26.55-61.13-59.31,0-32.76,27.37-59.31,61.13-59.31,16.21,0,31.76,6.25,43.23,17.37,11.46,11.12,17.91,26.21,17.91,41.94Z"/>
  <path class="st2" d="M1318.37,435.65c0,15.73-6.44,30.82-17.91,41.94s-27.01,17.37-43.23,17.37c-33.76,0-61.13-26.55-61.13-59.31,0-32.76,27.37-59.31,61.13-59.31,16.21,0,31.76,6.25,43.23,17.37,11.46,11.12,17.91,26.21,17.91,41.94Z"/>
  <path class="st2" d="M1625.96,435.65c0,15.73-6.44,30.82-17.91,41.94s-27.01,17.37-43.23,17.37c-33.76,0-61.13-26.55-61.13-59.31,0-32.76,27.37-59.31,61.13-59.31,16.21,0,31.76,6.25,43.23,17.37,11.46,11.12,17.91,26.21,17.91,41.94Z"/>
  <path class="st1" d="M2097.72,637.36c-10.76,2.76-19.69,10.88-24.43,23.12-6.32,16.32-1.85,41.97,10.91,57.24,12.76,15.27,25.73,20.59,38.79,25.85,13.06,5.25,24.93,8.58,36.04,9.11,3.21.15,6.57.44,10.39-.58,6-.47,9.64-3.09,13.19-5.36,9.36-6.01,17.98-14.83,26.66-25.91,8.68-11.08,17.25-22.18,20.67-41.78,3.42-19.6-5.53-44.05-19.17-55.02-10.23-8.23-22.02-10.8-32.72-7.81-3.57.99-7.01,2.61-10.24,4.84-11.83,8.18-18.65,19.47-22.95,31.27-9.69-8.2-21.34-14.71-35.85-15.89-3.91-.32-7.7,0-11.29.92Z"/>
  <path class="st1" d="M2412.82,700.07c-9.68-.11-19.04,4.72-25.79,13.96-9.01,12.32-11.03,34.93-3.73,50.66,7.3,15.73,17.02,23.15,26.83,30.52,9.81,7.37,19.06,12.85,28.3,15.8,2.67.85,5.43,1.85,8.88,1.86,5.16.96,8.82-.43,12.32-1.54,9.24-2.95,18.49-8.43,28.3-15.8,9.81-7.37,19.53-14.79,26.83-30.52,7.3-15.73,5.28-38.34-3.73-50.66-6.76-9.24-16.11-14.07-25.79-13.96-3.23.03-6.5.62-9.71,1.77-11.81,4.22-20.1,12.19-26.38,21.16-6.31-9.1-14.65-17.2-26.6-21.47-3.22-1.15-6.49-1.73-9.72-1.77Z"/>
  <path class="st1" d="M2291.99,364.5c-7.18-2.01-15.09-.28-21.95,5.24-9.15,7.36-15.15,23.76-12.86,36.91,2.29,13.15,8.04,20.59,13.86,28.02,5.82,7.43,11.6,13.35,17.88,17.38,1.81,1.16,3.67,2.46,6.23,3.15,3.65,1.74,6.64,1.44,9.46,1.31,7.45-.35,15.42-2.58,24.18-6.11,8.76-3.52,17.46-7.1,26.02-17.34,8.56-10.24,11.56-27.44,7.32-38.39-3.18-8.21-9.17-13.66-16.39-15.51-2.4-.62-4.95-.83-7.57-.62-9.62.78-17.36,5.06-23.82,10.47-2.88-8.02-7.46-15.7-15.49-21.26-2.16-1.5-4.48-2.58-6.87-3.25Z"/>
  <path class="st2" d="M2848.79,452.76c0,4.7,1.92,9.21,5.35,12.53s8.07,5.19,12.92,5.19c10.09,0,18.26-7.93,18.26-17.72,0-9.79-8.18-17.72-18.26-17.72-4.84,0-9.49,1.87-12.92,5.19-3.43,3.32-5.35,7.83-5.35,12.53Z"/>
  <path class="st2" d="M2541.19,452.76c0,4.7,1.92,9.21,5.35,12.53s8.07,5.19,12.92,5.19c10.09,0,18.26-7.93,18.26-17.72,0-9.79-8.18-17.72-18.26-17.72-4.84,0-9.49,1.87-12.92,5.19-3.43,3.32-5.35,7.83-5.35,12.53Z"/>
  <path class="st2" d="M2696.15,305.64c0,4.7,1.92,9.21,5.35,12.53,3.43,3.32,8.07,5.19,12.92,5.19,10.09,0,18.26-7.93,18.26-17.72,0-9.79-8.18-17.72-18.26-17.72-4.84,0-9.49,1.87-12.92,5.19-3.43,3.32-5.35,7.83-5.35,12.53Z"/>
  <path class="st2" d="M2696.15,596.21c0,4.7,1.92,9.21,5.35,12.53s8.07,5.19,12.92,5.19c10.09,0,18.26-7.93,18.26-17.72,0-9.79-8.18-17.72-18.26-17.72-4.84,0-9.49,1.87-12.92,5.19-3.43,3.32-5.35,7.83-5.35,12.53Z"/>
  <path class="st2" d="M2657.23,427.84l67.66,49.05c3.96,2.87,9.63,2.92,13.93-1.29l.91-.89c4.3-4.21,5.54-11.03,1.58-13.9l-67.66-49.05c-3.96-2.87-9.63-2.92-13.93,1.29l-.91.89c-4.3,4.21-5.54,11.03-1.58,13.9Z"/>
  <path class="st2" d="M2700.41,477.5l105.89-71.97c3.67-2.5,4.16-8.14,1.09-12.66l-.65-.96c-3.07-4.52-8.5-6.14-12.17-3.65l-105.89,71.97c-3.67,2.5-4.16,8.14-1.09,12.66l.65.96c3.07,4.52,8.5,6.14,12.17,3.65Z"/>
  <path class="st5" d="M2514.11,452.76c0,51.54,21.1,100.97,58.67,137.41,37.56,36.44,88.51,56.92,141.63,56.92,110.62,0,200.3-87.01,200.3-194.33,0-107.33-89.68-194.33-200.3-194.33-53.12,0-104.07,20.47-141.63,56.92-37.56,36.44-58.67,85.87-58.67,137.41Z"/>
  <path class="st1" d="M2848.79,452.76c0,4.7,1.92,9.21,5.35,12.53s8.07,5.19,12.92,5.19c10.09,0,18.26-7.93,18.26-17.72,0-9.79-8.18-17.72-18.26-17.72-4.84,0-9.49,1.87-12.92,5.19-3.43,3.32-5.35,7.83-5.35,12.53Z"/>
  <path class="st1" d="M2541.19,452.76c0,4.7,1.92,9.21,5.35,12.53s8.07,5.19,12.92,5.19c10.09,0,18.26-7.93,18.26-17.72,0-9.79-8.18-17.72-18.26-17.72-4.84,0-9.49,1.87-12.92,5.19-3.43,3.32-5.35,7.83-5.35,12.53Z"/>
  <path class="st1" d="M2696.15,305.64c0,4.7,1.92,9.21,5.35,12.53,3.43,3.32,8.07,5.19,12.92,5.19,10.09,0,18.26-7.93,18.26-17.72,0-9.79-8.18-17.72-18.26-17.72-4.84,0-9.49,1.87-12.92,5.19-3.43,3.32-5.35,7.83-5.35,12.53Z"/>
  <path class="st1" d="M2696.15,596.21c0,4.7,1.92,9.21,5.35,12.53s8.07,5.19,12.92,5.19c10.09,0,18.26-7.93,18.26-17.72,0-9.79-8.18-17.72-18.26-17.72-4.84,0-9.49,1.87-12.92,5.19-3.43,3.32-5.35,7.83-5.35,12.53Z"/>
  <path class="st1" d="M2657.23,427.84l67.66,49.05c3.96,2.87,9.63,2.92,13.93-1.29l.91-.89c4.3-4.21,5.54-11.03,1.58-13.9l-67.66-49.05c-3.96-2.87-9.63-2.92-13.93,1.29l-.91.89c-4.3,4.21-5.54,11.03-1.58,13.9Z"/>
  <path class="st1" d="M2709.72,473.68l96.85-65.82c3.36-2.28,3.8-7.45,1-11.58l-.6-.88c-2.81-4.13-7.77-5.62-11.13-3.34l-96.85,65.82c-3.36,2.28-3.8,7.45-1,11.58l.6.88c2.81,4.13,7.77,5.62,11.13,3.34Z"/>
  <path class="st1" d="M1011.43,663.9q6.61-19.15,18.16-25.51t26.04-1.35q14.88,5.13,20.05,17.26,5.31,12.06-1.34,31.31-6.61,19.15-18.26,25.47-11.55,6.35-25.94,1.39-14.88-5.13-20.18-17.19-5.17-12.12,1.47-31.37ZM1032.79,671.05q-4.8,13.9-3.23,19.78,1.22,4.34,5.5,5.82,4.38,1.51,8.01-1.15,4.76-3.69,9.55-17.59,4.8-13.9,3.3-19.64-1.19-4.44-5.56-5.95-4.28-1.48-7.92,1.19-4.85,3.66-9.65,17.56ZM1024.53,794.63l-20.22-6.98,127.84-124.21,19.64,6.78-127.26,124.41ZM1081.59,772.43q6.61-19.15,18.16-25.51,11.65-6.32,26.23-1.29,14.68,5.07,19.86,17.19,5.27,12.16-1.34,31.31-6.64,19.25-18.29,25.57-11.55,6.35-25.94,1.39-14.88-5.13-20.15-17.29-5.17-12.12,1.47-31.37ZM1102.91,779.68q-4.8,13.9-3.2,19.68,1.19,4.44,5.47,5.91,4.38,1.51,7.92-1.19,4.85-3.66,9.65-17.56,4.8-13.9,3.33-19.74-1.22-4.34-5.6-5.85-4.38-1.51-7.92,1.19-4.85,3.66-9.65,17.56Z"/>
  <path class="st2" d="M982.53,1870.46c-6.65,9.04-45.4-5.27-56.1-1.86-10.7,3.41-34.02,37.5-44.68,33.97-10.66-3.53-9.02-44.81-15.56-53.93-6.55-9.12-46.18-20.77-46.12-31.99.06-11.23,39.83-22.42,46.48-31.47,6.65-9.04,5.48-50.34,16.18-53.75,10.7-3.41,33.63,30.95,44.29,34.48,10.66,3.53,49.57-10.34,56.11-1.22,6.55,9.12-19.04,41.55-19.11,52.78-.06,11.23,25.15,43.94,18.5,52.99Z"/>
  <path class="st2" d="M2517.77,1706.03c-8.19,3.59-29.23-21.72-37.97-23.63-8.74-1.91-38.42,12.32-44.36,5.64-5.95-6.68,11.63-34.51,10.74-43.41-.88-8.9-23.59-32.73-19.08-40.45,4.52-7.72,36.42.39,44.61-3.2,8.19-3.59,23.84-32.55,32.57-30.64,8.74,1.91,10.88,34.76,16.82,41.44,5.95,6.68,38.32,12.61,39.21,21.51.88,8.9-29.69,21.09-34.21,28.81-4.52,7.72-.15,40.35-8.34,43.94Z"/>
  <path class="st1" d="M2496.51,1954.82q-4.58-23.65,3.53-37.05t26-16.87q18.36-3.56,30.9,5.85,12.63,9.26,17.23,33.03,4.58,23.65-3.65,37.07-8.11,13.4-25.88,16.84-18.36,3.56-30.99-5.7-12.53-9.4-17.14-33.17ZM2522.75,1949.49q3.32,17.16,8.43,22.28,3.84,3.74,9.12,2.72,5.4-1.05,7.57-5.95,2.7-6.63-.62-23.79-3.32-17.16-8.28-22.18-3.86-3.86-9.26-2.81-5.28,1.02-7.45,5.93-2.82,6.65.5,23.81ZM2587.7,2081.62l-24.97,4.84,57.78-203.85,24.25-4.7-57.06,203.71ZM2633.24,2024.85q-4.58-23.65,3.53-37.05,8.23-13.43,26.24-16.91,18.12-3.51,30.66,5.89,12.65,9.38,17.23,33.03,4.6,23.77-3.63,37.19-8.11,13.4-25.88,16.84-18.36,3.56-31.02-5.82-12.53-9.4-17.14-33.17ZM2659.51,2019.64q3.32,17.16,8.4,22.16,3.86,3.86,9.14,2.84,5.4-1.05,7.45-5.93,2.82-6.65-.5-23.81-3.32-17.16-8.31-22.3-3.84-3.74-9.24-2.69-5.4,1.05-7.45,5.93-2.82,6.65.5,23.81Z"/>
</svg>