<?xml version="1.0" encoding="UTF-8"?>
<svg id="Illustration" xmlns="http://www.w3.org/2000/svg" version="1.1" xmlns:xlink="http://www.w3.org/1999/xlink" viewBox="0 0 5394 4623">
  <!-- Generator: Adobe Illustrator 30.2.1, SVG Export Plug-In . SVG Version: 2.1.1 Build 1)  -->
  <defs>
    <style>
      .st0 {
        fill: #f26957;
      }

      .st1 {
        fill: #db9ac5;
      }

      .st2 {
        fill: #72102e;
      }

      .st3 {
        fill: #fff;
      }

      .st4 {
        fill: #fdaba2;
      }

      .st5 {
        fill: #d6998a;
      }

      .st6 {
        fill: none;
      }

      .st7 {
        fill: #f2b59e;
      }

      .st8 {
        fill: #e2e454;
      }

      .st9 {
        fill: #1d767e;
      }

      .st10 {
        fill: #0d4c4f;
      }

      .st11 {
        fill: #00d3f3;
      }

      .st12 {
        clip-path: url(#clippath);
      }
    </style>
    <clipPath id="clippath">
      <path class="st6" d="M2140.85,804.17s61.23,56.95,59.89,148.87,15.41,167.6-87.28,169.76c0,0-8.69,61.04,54.64,89.89,0,0-72.75,85.17-218.79,7.93,0,0,59.37-67.55,29.73-155.23,0,0-92.01-90.09-24.31-198.42s186.13-62.79,186.13-62.79h0Z"/>
    </clipPath>
  </defs>
  <g>
    <path class="st11" d="M4820.86,3196.48c106.24-800.9-573.37-1399.28-657.96-1471.49-138.07-117.87-605.61-482.93-1270.02-453.94-120.04,5.24-830.05,36.21-1152.71,515.15-178.17,264.47-52.04,389.16-249.92,647.76-277.8,363.06-644.4,271.52-795.68,581.46-124.43,254.92,7.46,554.77,66.31,688.56,3.02,6.86,6.1,13.65,9.22,20.4h3861.73c150.28-256.46,182.66-479.86,189.03-527.9Z"/>
    <path class="st11" d="M1375.41,1579.35c170.49,129.49,132.62,418.26,125.82,470.16-4.62,35.24-53.47,364.46-350.97,509.9-187.32,91.58-494.49,120.69-642.33-59.6-165.07-201.3-24.5-533.15,119.2-701.93,185.35-217.7,550.26-368.93,748.29-218.53h0Z"/>
  </g>
  <g>
    <g>
      <path class="st9" d="M1529.79,1978.16c-69.17-81.27-91.64-129.68-129.68-200.58-38.04-70.89-105.48-50.14-91.64,5.19,13.83,55.33,5.19,214.41,24.21,356.2,12.44,92.76,72.25,120.39,112.12,128.41,5.82.14,41.41.55,59.9-9.39,103.01-64.48,89.74-203.87,25.1-279.83h-.01Z"/>
      <path class="st9" d="M1373.19,2650.85h.02c-33.79-36.8-91.92-73.06-151.68-56.96-89.91,24.21-126.23-39.77-219.6,8.65-72.11,37.39-33.87,122.19,11.97,152.52,18.59,8.7,38.29,9,47.98,8.46,54.23-7.75,138.8,35.75,204.61,62.07,60.25,24.1,112.61-30.51,125.12-45,23.51-32.02,8.34-81.2.67-101-4.96-10.74-19.09-28.73-19.09-28.73h0Z"/>
      <path class="st9" d="M1835.48,2814.07c-43.23,39.77-160.81,91.64-228.24,134.87-46.96,30.1-45.29,80.32-39.94,108.04l.06-.08s4.69,17.33,10.47,27.84c18.08,27.52,32.98,49.48,79.55,54.4,56.3,5.94,115.85-79.54,143.52-146.97s115.85-112.39,131.41-164.27c15.56-51.87-53.6-53.6-96.83-13.83h0Z"/>
      <path class="st9" d="M1711.18,2758.53s-46.69,58.79-131.41,8.65c-84.73-50.14-53.6-188.47,0-252.45s110.66-174.64,110.66-259.37,41.5-223.06,138.33-178.1,25.94,152.16-5.19,219.6c-31.12,67.44-48.42,171.18-44.96,235.16,3.46,63.98-8.65,167.72-67.44,226.51h0Z"/>
      <path class="st9" d="M1397.4,3203.88s-69.76,60.24-117.21-13.72c-47.44-73.95-51.63-136.75-89.3-192.56s-20.93-143.72,40.47-125.58,64.19,92.09,96.28,122.79,89.88,82.73,96.28,124.19c5.18,33.58,5.95,54.78-26.52,84.88h0Z"/>
      <path class="st9" d="M1375.38,2491.41s-83.94,72.48-141.03-16.51-62.12-164.54-107.45-231.7-25.18-172.94,48.69-151.11c73.88,21.83,77.23,110.81,115.85,147.75s108.15,99.54,115.85,149.43c6.24,40.41,7.16,65.91-31.91,102.13h0Z"/>
      <path class="st10" d="M1876.34,2864.42c-.23-.57-.66-1.02-1.22-1.27-.56-.24-1.18-.25-1.76-.03l-29.78,11.73c16.58-20.14,25.82-32.03,25.91-32.15.38-.48.54-1.09.46-1.69s-.39-1.15-.87-1.52c-1-.77-2.44-.59-3.22.41-.33.43-33.75,43.42-87.46,104.29v-69.49c0-1.26-1.03-2.29-2.29-2.29s-2.29,1.03-2.29,2.29v74.68c-43.61,49.18-87.28,95.07-129.8,136.39l3.3-92.4c.05-1.26-.95-2.33-2.21-2.37h-.06c-1.25,0-2.26.96-2.31,2.21l-3.46,96.83c0,.11.02.21.04.3-44.76,43.23-88.07,81.13-128.72,112.65,6.66-100.11,9.65-202.69,8.88-304.91,34.19-45.39,69.26-108.26,104.23-186.88l103.66-74.29c1.03-.74,1.26-2.17.53-3.2-.36-.5-.89-.83-1.49-.93-.6-.1-1.21.04-1.71.4l-97.34,69.76c32.61-74.35,64.83-161.43,95.75-258.84,5.45-17.18,10.95-34.97,16.36-52.89l37.25-33.86c.45-.41.72-.98.75-1.59s-.18-1.2-.6-1.65c-.85-.93-2.3-1-3.24-.15l-31.61,28.73c38.7-129.41,61.1-227.85,61.32-228.83.14-.6.03-1.21-.3-1.73-.33-.52-.83-.88-1.43-1.01-.59-.14-1.21-.03-1.73.3s-.88.84-1.02,1.43c-.07.32-7.49,32.84-20.88,84.17l-25.32-68.03c-.21-.58-.64-1.03-1.2-1.29-.56-.25-1.18-.28-1.75-.06-.57.21-1.03.64-1.29,1.2-.25.56-.28,1.18-.06,1.75l27.59,74.16c-12.75,48.53-26.4,96.99-40.56,144.03-.41.48-.6,1.09-.52,1.73-5.34,17.7-10.78,35.28-16.16,52.25-12.53,39.48-25.5,77.89-38.56,114.21l-4.72-114.93c-.02-.62-.29-1.19-.74-1.6-.45-.41-1.03-.62-1.65-.59-.61.02-1.18.29-1.59.74-.41.45-.63,1.04-.6,1.65l5.18,126.13c-52.28,143.48-104.98,251.87-156.63,322.15-.42-45.83-1.56-91.43-3.37-135.57-6.85-167-23.47-335.48-49.4-500.77-3.24-20.62-6.68-41.57-10.24-62.26l42.49-104.49c.48-1.17-.09-2.51-1.26-2.99-.57-.23-1.19-.23-1.75.01-.57.24-1,.68-1.24,1.25l-39.72,97.68c-5.4-30.98-11.18-62.08-17.19-92.44.02-.4-.05-.79-.23-1.15-9.02-45.5-18.73-90.38-28.88-133.4l22.9-56.11c.23-.57.23-1.19,0-1.76-.24-.57-.68-1-1.25-1.24-.57-.23-1.19-.23-1.75,0-.57.24-1.01.68-1.24,1.25l-20.47,50.16c-23.57-98.92-41.32-154.17-41.5-154.72-.39-1.2-1.68-1.87-2.89-1.48-1.2.39-1.86,1.68-1.48,2.89.07.23,7.61,23.76,19.09,66.28l-27.41-26.7c-.44-.43-1.01-.65-1.63-.65s-1.19.25-1.61.69c-.88.91-.86,2.36.04,3.24l32.93,32.08c12.1,45.43,30.45,119.26,49.29,213.44l-76.4-75.32c-.43-.43-1-.66-1.61-.66h-.02c-.61,0-1.19.25-1.61.68-.43.44-.67,1.01-.66,1.63,0,.61.25,1.19.68,1.62l81.21,80.07c10.57,53.44,20.29,108.31,28.88,163.09,16.62,105.95,29.54,215.16,38.39,324.61-56.68-27.79-111.81-72.6-163.84-133.19v-97.97c0-1.26-1.03-2.29-2.29-2.29s-2.29,1.03-2.29,2.29v92.61c-31.29-37.12-61.15-79.6-88.77-126.27-.79-1.33-1.56-2.65-2.34-3.97l9.1-65.96c.17-1.25-.71-2.41-1.96-2.59-1.25-.17-2.41.71-2.58,1.96l-8.3,60.15c-30.58-52.97-52.86-101.51-66.19-132.98l5.86-28.9c.12-.6,0-1.21-.34-1.72s-.86-.86-1.46-.98c-1.25-.25-2.45.55-2.7,1.79l-4.52,22.29c-8.7-20.98-13.14-33.56-13.18-33.69-.42-1.19-1.73-1.83-2.92-1.41-1.19.42-1.83,1.73-1.41,2.92.05.15,5.36,15.25,15.98,40.39.05.45.23.88.52,1.23,9.87,23.3,20.79,46.93,32.46,70.25l-36.33-19.14c-1.12-.59-2.51-.16-3.1.96-.59,1.12-.16,2.51.96,3.1l42.03,22.15c10.69,21.03,21.95,41.69,33.48,61.4.09.31.26.6.49.84.81,1.39,1.63,2.78,2.45,4.17,13.15,22.22,27.06,43.87,41.35,64.35l-63.17-24.85c-.57-.23-1.19-.22-1.75.03-.56.24-1,.69-1.22,1.26-.46,1.18.12,2.51,1.29,2.97l69.65,27.4c15.08,21.21,30.81,41.42,46.76,60.07.2.63.63,1.12,1.19,1.39,53.17,61.86,109.53,107.37,167.53,135.28,5.16,64.82,8.94,130.48,11.23,195.18-42.44-.32-99.17-9.46-168.63-27.16l-42.53-93.1c-.26-.56-.71-.98-1.28-1.2-.58-.22-1.2-.19-1.76.06-1.15.53-1.66,1.89-1.13,3.04l40.99,89.72c-40.28-10.43-84.83-23.71-132.42-39.47l-26.5-50.68c-.28-.54-.76-.94-1.35-1.12-.58-.19-1.21-.13-1.75.15-1.12.59-1.56,1.98-.97,3.1l24.3,46.48c-53.75-17.94-101.13-35.63-131.49-47.33l-27.4-41.95c-.69-1.06-2.11-1.36-3.17-.67-1.06.69-1.36,2.12-.67,3.18l23.91,36.61c-22.59-8.78-35.89-14.28-36.02-14.33-1.17-.48-2.51.08-3,1.24-.48,1.17.07,2.51,1.24,3,.4.17,41.53,17.14,100.91,38.71l-46.14,5.89c-1.25.16-2.14,1.31-1.99,2.57.16,1.24,1.29,2.15,2.57,1.99l54.18-6.92c.23-.03.43-.11.61-.19,53.61,19.28,104.64,36.02,151.67,49.75l-90.32,23.18c-1.23.31-1.97,1.57-1.65,2.79.26,1.01,1.17,1.72,2.22,1.72.2,0,.39-.02.57-.07l97.69-25.07s.09-.03.12-.05c92.95,26.67,166.74,40.37,219.33,40.74,5.88,171.56,1.47,341.73-13.09,505.84-45.08-22.02-88.96-57.42-130.43-105.22.02-.07.04-.15.04-.25v-80c0-1.27-1.03-2.29-2.29-2.29s-2.29,1.03-2.29,2.29v74.96c-25.66-30.26-50.13-64.98-72.75-103.2l-.26-.44,7.38-53.51c.17-1.25-.71-2.41-1.96-2.59-.6-.09-1.2.07-1.7.44-.49.37-.81.91-.89,1.51l-6.58,47.73c-24.69-42.57-42.73-81.67-53.55-107.06l4.87-24c.12-.6,0-1.21-.34-1.72s-.86-.86-1.46-.98c-.6-.12-1.21,0-1.72.33-.51.34-.86.86-.98,1.46l-3.53,17.41c-7.05-16.98-10.73-27.39-10.77-27.49-.42-1.19-1.73-1.82-2.92-1.41-.58.2-1.04.62-1.31,1.17s-.3,1.17-.1,1.75c.13.38,13.91,39.25,40.04,91.34l-28.14-14.83c-1.12-.59-2.51-.16-3.1.96-.59,1.12-.16,2.51.96,3.1l33.86,17.85c9.02,17.64,18.51,34.88,28.19,51.24,10.64,17.98,21.9,35.5,33.48,52.08l-50.62-19.91c-.57-.23-1.19-.22-1.76.03-.56.24-1,.69-1.22,1.26s-.21,1.19.03,1.75.69.99,1.26,1.22l56.75,22.33c.11.04.22.06.31.07,53.6,75.05,111.82,128.04,173.05,157.51-2.27,25.26-4.76,50.26-7.41,74.32-.14,1.26.77,2.39,2.03,2.53.08,0,.17.01.25.01,1.17,0,2.15-.88,2.28-2.04,5.74-52.32,10.54-106.49,14.25-161.01,61.43-47.29,128.06-108.41,198.05-181.66.11,0,.22-.02.34-.05l56.48-12.68c.6-.13,1.11-.49,1.43-1.01.33-.52.44-1.13.3-1.73-.14-.6-.5-1.11-1.02-1.44-.52-.33-1.13-.43-1.73-.3l-50.16,11.26c52.8-55.62,96.36-106.43,123.65-139.34l37.5-14.77c.57-.22,1.02-.66,1.26-1.22s.26-1.18.03-1.76l.05-.03Z"/>
    </g>
    <path class="st8" d="M1683.77,3322.28h-353.29c-15.37,0-27.11,13.72-24.73,28.9l55.76,355.82c1.91,12.18,12.4,21.15,24.73,21.15h241.77c12.33,0,22.82-8.98,24.73-21.15l55.76-355.82c2.38-15.18-9.36-28.9-24.73-28.9Z"/>
  </g>
  <path class="st7" d="M2207.25,1528.03l178.08-104.39,76.76,254.84,359.04,403.92h-102.33s-140.04-118.38-189.16-146.01c-49.13-27.63-211.86-119.74-211.86-119.74,0,0-113.6-254.84-110.53-288.61h0Z"/>
  <g>
    <g>
      <polygon class="st1" points="3335.27 2361.36 3860.76 2349.59 3947.96 2983.37 3411.08 3017.98 3335.27 2361.36"/>
      <path class="st2" d="M3530.57,2360.41c-.14-1.36-3.28-33.75,3.08-73.12,8.55-52.92,30.47-92.83,63.4-115.42,32.97-22.61,72.77-24.32,109.21-4.68,25.68,13.84,47.29,37.09,62.51,67.22,16.45,32.58,24.71,72.45,23.88,115.31l-15-.29c1.78-92.47-39.39-147.96-78.51-169.04-31.31-16.88-65.43-15.48-93.61,3.84-37.13,25.47-51.5,71.21-57.02,105.09-6.11,37.49-3.05,69.26-3.02,69.58l-14.92,1.5h0Z"/>
    </g>
    <path class="st4" d="M2882.81,2075.14h-184.75c-19.27,0-34.89,15.62-34.89,34.89h0c0,19.27,15.62,34.89,34.89,34.89h229.63s7.79-69.77-44.88-69.77h0Z"/>
    <g>
      <polygon class="st1" points="2903.54 3064.99 2934.07 2235.89 3492.26 2235.89 3610.01 3007.77 2903.54 3064.99"/>
      <path class="st2" d="M3031.25,2236.42c-.15-2.13-3.58-52.86,7.02-108.42,6.29-32.97,16.26-60.72,29.64-82.47,17.14-27.88,39.9-45.98,67.63-53.8,25.54-7.2,51.15-8.21,76.13-3,24.49,5.11,47.25,15.96,67.64,32.23,56.13,44.8,85.61,123.27,80.9,215.31l-14.98-.77c4.47-87.15-22.97-161.08-75.27-202.82-37.78-30.15-84.07-39.57-130.34-26.52-106.28,29.98-93.54,227.2-93.4,229.19l-14.96,1.06h0Z"/>
    </g>
    <path class="st2" d="M4162.62,2975.23v-475.63l-6.81.33-283.51-66.45,2.19,15.92,226.95,53.19-301.94,14.79-853.73-159.78-19.75-243.46-14.95,1.21,19.42,239.39-332.87-62.3-26.81-167.01-14.81,2.38,153.72,957.49,22.9-1.73v75.67l-143.55,143.55v168.23h-14.67v15h1543.76v-15h-1231.97v-162.01l159.5-159.5,288.01-19.19-1-14.97-585.09,38.99v-71.89l1415.02-107.2v-.02ZM3022.95,3151.01l-151.77,151.77v168.23h-267.12v-162.01l139.36-139.36,279.53-18.63h0ZM2632.77,2511.42l206.77,35.7,30.95,232.82-196.98-14.78-40.74-253.74ZM2855.03,2549.8l243.51,42.05,21.88,206.86-234.65-17.61-30.74-231.3ZM3791.48,2837.22h-157.93l-5.93-.45-8.72-155.09,172.59,29.8v125.73h-.01ZM3612.53,2835.64l-234.11-17.57-16.07-180.68,241.38,41.67,8.81,156.57h-.01ZM3363.26,2816.93l-227.64-17.09-21.72-205.35,233.15,40.26,16.21,182.18h0ZM3364.61,2832.08l16.66,187.31-220.66,16.72-23.39-221.09,227.38,17.07h.01ZM3379.77,2833.22l233.61,17.53,8.46,150.41-225.61,17.09-16.46-185.03ZM3628.47,2851.88l4.24.32.28.02h158.5v136.09l-154.68,11.72-8.33-148.14h-.01ZM3806.48,2852.22h184.42l3.76,120.69-188.17,14.26v-134.95h-.01ZM3806.48,2837.22v-125.02l179.69-11.74,4.26,136.76h-183.95ZM4001.15,2699.49l146.48-9.57v147.3h-142.19l-4.29-137.74h0ZM4147.62,2674.89l-146.94,9.6-5.04-161.69,151.98-7.44v159.53h0ZM3985.7,2685.46l-179.22,11.71v-165.1l174.17-8.53,5.05,161.93h0ZM3791.48,2696.27l-173.45-29.95-9.53-169.42,182.98,34.25v165.12ZM3602.86,2663.7l-241.89-41.76-15.5-174.26,247.84,46.39,9.54,169.64h0ZM3345.68,2619.29l-233.42-40.3-18.88-178.5,236.77,44.31,15.52,174.49h0ZM3096.9,2576.34l-243.94-42.12-24.36-183.28,249.4,46.68,18.9,178.73h0ZM3122.02,2813.87l23.62,223.36-223.58,16.94-34.28-257.88,234.23,17.58h.01ZM4009.63,2971.78l-3.73-119.56h141.72v109.11l-137.99,10.45h0ZM2813.08,2348.03l24.39,183.51-207.21-35.78-30.12-187.59,212.94,39.85h0ZM2675.95,2780.39l196.56,14.75,34.58,260.16-184.75,14-46.38-288.91h-.01Z"/>
    <path class="st4" d="M2529.11,2072.4h-184.75c-19.27,0-34.89,15.62-34.89,34.89h0c0,19.27,15.62,34.89,34.89,34.89h229.63s7.78-69.77-44.88-69.77h0Z"/>
    <g>
      <circle class="st2" cx="2654.49" cy="3645.23" r="90.13"/>
      <path class="st8" d="M2676.66,3485.51h-59.6c-10.84,0-19.62,8.79-19.62,19.62v50.88c0,10.84,8.79,19.62,19.62,19.62h.97c-.14,1.07-.24,2.16-.24,3.27v53.06c0,13.45,10.9,24.35,24.35,24.35h10.18c13.45,0,24.35-10.9,24.35-24.35v-53.06c0-1.11-.1-2.2-.25-3.27h.25c10.84,0,19.62-8.79,19.62-19.62v-50.88c0-10.84-8.79-19.62-19.62-19.62h-.01Z"/>
    </g>
    <g>
      <circle class="st2" cx="3761.09" cy="3645.2" r="90.13"/>
      <path class="st8" d="M3783.31,3485.49h-59.6c-10.84,0-19.62,8.79-19.62,19.62v50.88c0,10.84,8.79,19.62,19.62,19.62h.97c-.14,1.07-.24,2.16-.24,3.27v53.06c0,13.45,10.9,24.35,24.35,24.35h10.17c13.45,0,24.35-10.9,24.35-24.35v-53.06c0-1.11-.1-2.2-.24-3.27h.24c10.84,0,19.62-8.78,19.62-19.62v-50.88c0-10.84-8.79-19.62-19.62-19.62Z"/>
    </g>
    <path class="st8" d="M4071.46,3568.24c2.11-3.13,3.35-6.9,3.35-10.97v-50.88c0-10.84-8.79-19.62-19.62-19.62h-59.6c-10.84,0-19.62,8.79-19.62,19.62v50.88c0,4.67,1.64,8.96,4.37,12.33-26,15.81-43.37,44.41-43.37,77.07,0,49.77,40.35,90.12,90.12,90.12s90.13-40.35,90.13-90.12c0-33.64-18.44-62.95-45.75-78.43h0Z"/>
    <path class="st8" d="M2960.06,3567.98c2.11-3.13,3.35-6.91,3.35-10.97v-50.88c0-10.84-8.79-19.62-19.62-19.62h-59.6c-10.84,0-19.62,8.79-19.62,19.62v50.88c0,4.67,1.64,8.96,4.37,12.33-26.01,15.81-43.37,44.41-43.37,77.07,0,49.78,40.35,90.13,90.12,90.13s90.13-40.35,90.13-90.13c0-33.63-18.44-62.95-45.75-78.43h0Z"/>
  </g>
  <path class="st8" d="M3335.61,1458.12c0-179.43-145.46-324.89-324.89-324.89s-324.89,145.46-324.89,324.89c0,151.19,103.28,278.26,243.14,314.51l70.68,141.35c4.09,8.18,15.98,7.49,19.1-1.1l49.05-134.88c152.21-26.98,267.81-159.93,267.81-319.89h0Z"/>
  <g>
    <path class="st7" d="M2140.85,804.17s61.23,56.95,59.89,148.87,15.41,167.6-87.28,169.76c0,0-8.69,61.04,54.64,89.89,0,0-71.69,84.03-217.74,6.79,0,0,58.31-66.42,28.67-154.1,0,0-92.01-90.09-24.31-198.42s186.13-62.79,186.13-62.79h0Z"/>
    <path class="st2" d="M2144.93,744.85s-111.1-58.26-189.3,61.35c0,0-77.98-3.41-84.04,87.12,0,0,37.33,127.88,110.77,178.16l-1.41-38.88s-40.23-35.91-25.58-61.36c14.65-25.44,38.54-10.74,38.54-10.74,0,0-10.5-117.96,100.67-143.78,0,0,93.72,8.16,103.7,101.22,0,0,47.72-47.53,44.42-95.68-3.3-48.15-46.3-74.62-97.78-77.43v.02Z"/>
    <path class="st2" d="M2083.69,974.4c-4.32,6.41-13.02,8.11-19.44,3.79s-8.11-13.02-3.8-19.44c4.32-6.42,13.02-8.11,19.44-3.8,6.42,4.32,8.11,13.02,3.79,19.44h.01Z"/>
    <path class="st2" d="M2183.82,958.83c.28,7.73-5.76,14.22-13.49,14.5s-14.22-5.76-14.5-13.49,5.76-14.22,13.49-14.5,14.22,5.76,14.5,13.49Z"/>
    <path class="st5" d="M2124.59,957.09s38.17,43.77,32.29,53.33-21.26,14.78-39.34,9.99l4.91-57.79s-.15-4.28,2.14-5.53h0Z"/>
    <path class="st3" d="M2093.47,1060.09l85.6-7s-6.08,39.36-39.99,37.91-45.61-30.91-45.61-30.91Z"/>
    <path class="st2" d="M2041.71,918.69c-1.68-2.61-.41-6.47.86-8.59,3.42-5.73,11.31-6.32,19.6-6.94,8.72-.65,18.17-1.35,21.57,4.28,1.42,2.36,1.83,5.93.31,8.55-1.88,3.23-5.73,3.39-22.42,4.31-14.44.8-18.2,1.05-19.91-1.61h-.01Z"/>
    <path class="st2" d="M2156.47,920.25c-1.68-2.61-.41-6.47.86-8.59,3.42-5.73,11.31-6.32,19.6-6.94,8.72-.65,18.17-1.35,21.56,4.28,1.42,2.36,1.83,5.93.31,8.55-1.88,3.23-5.73,3.39-22.42,4.32-14.45.8-18.2,1.05-19.91-1.61h0Z"/>
    <g class="st12">
      <path class="st5" d="M2113.46,1122.8s-45.39-6.66-79.58-33.45c0,0,17.48,81.37,108.31,95.73l-28.73-62.28Z"/>
    </g>
  </g>
  <g>
    <polygon class="st7" points="2162.13 3379.43 2183.82 3609.05 2263.87 3603.1 2280.28 3378.25 2162.13 3379.43"/>
    <path class="st2" d="M2409.79,3679.75c-2.9-.46-6.36-1.49-10.25-3-66.93-20.91-121.02-77.35-133.15-84.79-14.74,8.91-70.32,15.77-81.36,8.81-1.04-.65-2.27-1.2-3.62-1.67-4.38,5.59-34.37,45.11-32.17,73.99.26,3.43.45,7.52.59,12.02l2.34,44.6,292.93,2.68c3.31-16.48-4.5-47.8-35.31-52.64h0Z"/>
  </g>
  <g>
    <polygon class="st7" points="1364.79 3280.72 1212.93 3454.32 1272.29 3508.37 1446.87 3365.72 1364.79 3280.72"/>
    <path class="st2" d="M1316.93,3667.03c-1.66-2.42-3.29-5.65-4.87-9.51-30.82-62.99-27.01-141.06-29.95-154.99-16.6-4.58-59.79-40.23-62.33-53.03-.24-1.2-.69-2.48-1.27-3.78-7.07.67-56.39,6.04-75.85,27.5-2.31,2.55-5.15,5.5-8.32,8.69l-30.78,32.36,199.42,214.59c14.24-8.92,31.62-36.13,13.96-61.83h-.01Z"/>
  </g>
  <g>
    <polygon class="st0" points="1657.8 2184.06 1609.83 2812.03 1260.96 3357.15 1362.7 3468.34 1827.88 2969.03 1993.59 2515.49 2144.14 3540.31 2304.74 3518.5 2281.41 2184.06 1657.8 2184.06"/>
    <path class="st3" d="M2261.38,2377.25c-.6,0-1.2-.18-1.73-.55-34.62-24.44-49.9-61.49-56.63-88.26-7.25-28.9-6.4-51.72-6.36-52.68.07-1.66,1.49-2.93,3.12-2.87,1.65.07,2.94,1.47,2.87,3.12-.01.23-.85,23.06,6.22,51.14,6.48,25.73,21.16,61.31,54.23,84.65,1.35.95,1.68,2.83.72,4.18-.58.83-1.51,1.27-2.45,1.27h0Z"/>
    <path class="st3" d="M1678.52,2377.25c-1.5,0-2.79-1.12-2.97-2.64-.2-1.64.97-3.14,2.62-3.34,43.68-5.28,76.01-22.46,96.1-51.07,36.56-52.06,20.33-125.08,20.16-125.81-.37-1.61.64-3.23,2.25-3.6,1.62-.37,3.23.64,3.6,2.25.18.77,4.36,19.26,3.92,44.67-.41,23.53-5.08,57.54-25.02,85.93-21.11,30.06-54.86,48.09-100.29,53.58-.12.01-.24.02-.36.02h-.01Z"/>
    <path class="st8" d="M1976.01,1174.04s-222.26,2.66-292.04,255.59c-69.77,252.93-43.61,784.96-43.61,784.96,0,0,470.98,91.58,667.22,0v-614.89s87.22-17.44,174.44-143.91c0,0-98.92-236.97-332.84-254.07,0,0,18.51,29.32-47.56,36.19-80.24,8.34-119.09-23.09-125.61-63.87h0Z"/>
  </g>
  <path class="st4" d="M2863.22,2144.91h-10.62c-4.98-8.05-10.07-15.52-10.07-15.52,0,0-12.57-21.52-16.57-30.77s-69.72,3.54-81.14,5.25c-11.43,1.72-12,62.29-5.14,72,6.86,9.72,122.86-6.28,122.29-12.57,1.77-1.16,1.73-10.02,1.27-18.39h-.02Z"/>
  <path class="st7" d="M2454.24,2141.61s-48.86-44.13-51.43-46.32c-2.57-2.18-65.88-58.22-73.45-59.83-20.85-25.82-43.76-53.65-54.25-64.56-22.07-22.95-203.08-191.3-203.08-191.3l-76.52-279.6s-67.69,85.35-241.34,67.69c0,0,103.01,273.71,126.56,291.37,23.55,17.66,335.52,161.87,362.01,188.36s58.86,94.18,58.86,94.18c0,0,31.78,48.36,45.5,51.79,13.71,3.43,96-21.43,102-32.57s5.14-19.22,5.14-19.22h0Z"/>
  <path class="st3" d="M1754.17,1570.69c-1.34,0-2.57-.91-2.91-2.27-.17-.7-17.46-70.71-19.16-152.39-.03-1.66,1.28-3.03,2.94-3.06,1.69-.04,3.03,1.28,3.06,2.94,1.69,80.98,18.81,150.37,18.99,151.06.4,1.61-.58,3.24-2.18,3.64-.25.06-.49.09-.73.09h0Z"/>
  <path class="st3" d="M2307.58,1602.7c-.09,0-.19,0-.28-.01-1.65-.15-2.86-1.61-2.71-3.26.15-1.66,15.12-166.97-13.49-252.79-.52-1.57.33-3.27,1.9-3.8,1.57-.52,3.27.33,3.8,1.9,29.01,87.02,13.92,253.58,13.77,255.25-.15,1.56-1.45,2.72-2.98,2.72h-.01Z"/>
  <path class="st3" d="M1995.51,1503c-1.33,0-2.54-.89-2.9-2.23-.64-2.41-15.77-59.21-18.34-76.71-.24-1.64.89-3.16,2.53-3.4,1.63-.24,3.16.89,3.4,2.53,2.52,17.15,18.04,75.44,18.2,76.03.43,1.6-.52,3.25-2.12,3.67-.26.07-.52.1-.77.1h0Z"/>
  <path class="st2" d="M2984.66,1621.03l-178.37-178.37c-2.93-2.93-2.93-7.68,0-10.61,2.93-2.93,7.68-2.93,10.61,0l167.77,167.77,231.89-231.89c2.93-2.93,7.68-2.93,10.61,0,2.93,2.93,2.93,7.68,0,10.61l-242.5,242.5h-.01Z"/>
</svg>