<?xml version="1.0" encoding="UTF-8"?>
<svg xmlns="http://www.w3.org/2000/svg" xmlns:xlink="http://www.w3.org/1999/xlink" width="2250" height="2250" viewBox="0 0 2250 2250">
<path fill-rule="nonzero" fill="rgb(94.921875%, 94.921875%, 94.921875%)" fill-opacity="1" d="M 25.40625 0 L 2224.589844 0 C 2238.671875 0 2250 11.328125 2250 25.410156 L 2250 2224.59375 C 2250 2238.667969 2238.671875 2250 2224.589844 2250 L 25.40625 2250 C 11.332031 2250 0 2238.667969 0 2224.59375 L 0 25.410156 C 0 11.328125 11.332031 0 25.40625 0 Z M 25.40625 0 "/>
<path fill-rule="nonzero" fill="rgb(11.767578%, 53.318787%, 89.84375%)" fill-opacity="1" d="M 1379.859375 663.070312 C 1376.539062 662.960938 1373.058594 663.121094 1369.109375 663.5 C 1332.058594 667.058594 1304.289062 697.78125 1295.5 744.890625 C 1293.289062 756.738281 1290.429688 795.949219 1289.140625 832.019531 C 1284.390625 965.761719 1267.519531 1009.019531 1212.25 1029.308594 C 1198.460938 1034.371094 1169.101562 1036.390625 1069.5 1039.128906 C 885.226562 1044.179688 852.933594 1048.691406 827.636719 1072.929688 C 802.953125 1096.570312 806.320312 1126.269531 836.132812 1147.859375 C 851.378906 1158.910156 869.726562 1164.808594 905.023438 1170.039062 C 920.234375 1172.300781 920.789062 1172.890625 920.789062 1187.179688 C 920.789062 1204.929688 930.242188 1220.558594 947.269531 1230.941406 C 980.347656 1251.109375 1024.449219 1224.738281 1024.449219 1184.789062 C 1024.449219 1172.300781 1024.851562 1172 1041.5 1172 C 1050.878906 1172 1069.398438 1170.859375 1082.640625 1169.480469 L 1106.730469 1166.960938 L 1106.730469 1179.660156 C 1106.730469 1209.878906 1130.191406 1234.640625 1158.839844 1234.671875 C 1190.429688 1234.699219 1212.480469 1212.050781 1212.511719 1179.550781 L 1212.511719 1161.640625 L 1242.878906 1156.96875 C 1273.570312 1152.25 1291.789062 1143.179688 1294.101562 1131.460938 C 1297.039062 1116.519531 1280.898438 1115.691406 1158.839844 1124.46875 C 984.222656 1137.03125 895.050781 1135.269531 862.878906 1118.628906 C 836.859375 1105.179688 859.195312 1090.710938 914.160156 1085.429688 C 934.9375 1083.429688 1007.480469 1080.238281 1075.371094 1078.339844 C 1210.890625 1074.53125 1223.898438 1072.480469 1258.039062 1049.511719 C 1308.910156 1015.269531 1322.710938 971.101562 1329.660156 820.328125 C 1332.769531 752.949219 1334.121094 742.949219 1342.371094 726.488281 C 1355.828125 699.660156 1368.421875 691.910156 1397.929688 692.320312 C 1411.25 692.5 1425.480469 693.378906 1429.558594 694.28125 C 1433.628906 695.179688 1437.761719 693.691406 1438.710938 690.96875 C 1439.78125 687.941406 1430.351562 681.289062 1414.421875 673.828125 C 1398.398438 666.339844 1389.808594 663.421875 1379.839844 663.070312 Z M 1175.238281 768.398438 C 1174.128906 768.398438 1154.148438 773.691406 1130.859375 780.160156 C 1057.828125 800.429688 1017.289062 804.761719 929.269531 801.71875 C 846.085938 798.851562 840.277344 799.890625 840.277344 817.71875 C 840.277344 830.230469 851.683594 835.460938 887.054688 839.179688 C 903.355469 840.890625 947.542969 841.671875 985.257812 840.921875 C 1079.980469 839.039062 1124.339844 827.058594 1161.769531 793.238281 C 1175.039062 781.261719 1182 768.398438 1175.238281 768.398438 Z M 1256.5 780.109375 C 1255.929688 780.109375 1255.25 780.148438 1254.488281 780.148438 C 1251.710938 780.148438 1237.171875 791.230469 1222.160156 804.769531 C 1172.839844 849.28125 1144.738281 867.378906 1108.691406 877.859375 C 1100.070312 880.371094 1055.101562 884.019531 1008.769531 885.96875 C 866.292969 891.980469 848.179688 893.71875 839.734375 902.171875 C 829.90625 912 835.703125 923.519531 853.105469 928.75 C 860.058594 930.839844 881.617188 931.671875 901.011719 930.589844 C 920.410156 929.511719 972.433594 927.03125 1016.609375 925.078125 C 1065.050781 922.941406 1105.421875 919.191406 1118.308594 915.640625 C 1184.199219 897.46875 1238.308594 851.851562 1253.550781 801.609375 C 1259.800781 781 1260.511719 780.03125 1256.5 780.109375 Z M 1247.480469 897.648438 C 1243.710938 898.308594 1237.320312 903.96875 1227.910156 914.53125 C 1205.839844 939.28125 1172.941406 957.671875 1138.070312 964.71875 C 1126.21875 967.121094 1057.28125 970.199219 984.875 971.589844 C 844.234375 974.28125 840.277344 974.898438 840.277344 993.988281 C 840.277344 999.011719 843.363281 1004.910156 847.136719 1007.109375 C 856.296875 1012.441406 1058.679688 1012.570312 1110.320312 1007.269531 C 1164.878906 1001.671875 1195.390625 991.601562 1217.960938 971.730469 C 1238.339844 953.800781 1245.800781 941.71875 1249.851562 920.128906 C 1252.828125 904.230469 1252.320312 896.808594 1247.480469 897.660156 Z M 1161.621094 1165.429688 C 1174.601562 1166.449219 1183.109375 1181.769531 1173.160156 1193.761719 C 1170.578125 1196.871094 1164.628906 1199.421875 1159.929688 1199.421875 C 1140.609375 1199.421875 1134.699219 1175.140625 1152.089844 1167.21875 C 1155.390625 1165.710938 1158.628906 1165.191406 1161.621094 1165.429688 Z M 968.613281 1172.410156 C 980.582031 1171.621094 993.898438 1183.191406 986.804688 1194.53125 C 984.441406 1198.300781 977.855469 1201.929688 972.164062 1202.609375 C 958.929688 1204.191406 949.542969 1187.859375 957.898438 1177.789062 C 960.785156 1174.308594 964.625 1172.679688 968.613281 1172.410156 Z M 968.613281 1172.410156 "/>
<path fill-rule="nonzero" fill="rgb(11.767578%, 53.318787%, 89.84375%)" fill-opacity="1" d="M 693.097656 1537.207031 L 693.097656 1586.367188 L 685.757812 1586.367188 L 685.757812 1537.207031 L 672.59375 1537.207031 L 672.59375 1529.902344 L 706.261719 1529.902344 L 706.261719 1537.207031 Z M 693.097656 1537.207031 "/>
<path fill-rule="nonzero" fill="rgb(11.767578%, 53.318787%, 89.84375%)" fill-opacity="1" d="M 774.472656 1559.089844 L 769.636719 1545.855469 L 764.835938 1559.089844 Z M 771.609375 1529.902344 L 792.148438 1586.367188 L 784.386719 1586.367188 L 777.109375 1566.390625 L 762.148438 1566.390625 L 754.917969 1586.367188 L 747.121094 1586.367188 L 767.65625 1529.902344 Z M 771.609375 1529.902344 "/>
<path fill-rule="nonzero" fill="rgb(11.767578%, 53.318787%, 89.84375%)" fill-opacity="1" d="M 885.480469 1578.636719 C 879.671875 1584.191406 873.023438 1586.964844 865.546875 1586.964844 C 857.566406 1586.964844 850.769531 1584.152344 845.148438 1578.535156 C 839.523438 1572.910156 836.710938 1566.109375 836.710938 1558.136719 C 836.710938 1550.183594 839.523438 1543.382812 845.148438 1537.738281 C 850.769531 1532.089844 857.566406 1529.265625 865.546875 1529.265625 C 873.003906 1529.265625 880.074219 1532.3125 886.753906 1538.40625 L 881.285156 1543.382812 C 876.25 1538.910156 871.003906 1536.675781 865.546875 1536.675781 C 859.640625 1536.675781 854.582031 1538.773438 850.367188 1542.960938 C 846.183594 1547.148438 844.089844 1552.203125 844.089844 1558.136719 C 844.089844 1564.089844 846.183594 1569.15625 850.367188 1573.34375 C 854.582031 1577.53125 859.640625 1579.625 865.546875 1579.625 C 870.628906 1579.625 874.835938 1578.289062 878.179688 1575.605469 L 878.179688 1558.558594 L 885.480469 1558.558594 Z M 885.480469 1578.636719 "/>
<path fill-rule="nonzero" fill="rgb(11.767578%, 53.318787%, 89.84375%)" fill-opacity="1" d="M 936.257812 1586.367188 L 936.257812 1529.902344 L 943.5625 1529.902344 L 943.5625 1579.023438 L 963.746094 1579.023438 L 963.746094 1586.367188 Z M 936.257812 1586.367188 "/>
<path fill-rule="nonzero" fill="rgb(11.767578%, 53.318787%, 89.84375%)" fill-opacity="1" d="M 1012.761719 1586.367188 L 1020.0625 1586.367188 L 1020.0625 1529.902344 L 1012.761719 1529.902344 Z M 1012.761719 1586.367188 "/>
<path fill-rule="nonzero" fill="rgb(11.767578%, 53.318787%, 89.84375%)" fill-opacity="1" d="M 1071.191406 1529.902344 L 1077.859375 1529.902344 L 1101.148438 1570.203125 L 1101.148438 1529.902344 L 1108.488281 1529.902344 L 1108.488281 1586.367188 L 1102.101562 1586.367188 L 1078.488281 1545.570312 L 1078.488281 1586.367188 L 1071.191406 1586.367188 Z M 1071.191406 1529.902344 "/>
<path fill-rule="nonzero" fill="rgb(11.767578%, 53.318787%, 89.84375%)" fill-opacity="1" d="M 1189.25 1529.902344 L 1189.25 1537.207031 L 1166.140625 1537.207031 L 1166.140625 1554.464844 L 1189.25 1554.464844 L 1189.25 1561.773438 L 1166.140625 1561.773438 L 1166.140625 1579.023438 L 1189.25 1579.023438 L 1189.25 1586.367188 L 1158.828125 1586.367188 L 1158.828125 1529.902344 Z M 1189.25 1529.902344 "/>
<path fill-rule="nonzero" fill="rgb(11.767578%, 53.318787%, 89.84375%)" fill-opacity="1" d="M 1310.820312 1563.007812 L 1310.820312 1586.367188 L 1303.519531 1586.367188 L 1303.519531 1529.902344 L 1310.820312 1529.902344 L 1310.820312 1555.699219 L 1328.25 1555.699219 L 1328.25 1529.902344 L 1335.558594 1529.902344 L 1335.558594 1586.367188 L 1328.25 1586.367188 L 1328.25 1563.007812 Z M 1310.820312 1563.007812 "/>
<path fill-rule="nonzero" fill="rgb(11.767578%, 53.318787%, 89.84375%)" fill-opacity="1" d="M 1416.371094 1529.902344 L 1416.371094 1537.207031 L 1393.25 1537.207031 L 1393.25 1554.464844 L 1416.371094 1554.464844 L 1416.371094 1561.773438 L 1393.25 1561.773438 L 1393.25 1579.023438 L 1416.371094 1579.023438 L 1416.371094 1586.367188 L 1385.941406 1586.367188 L 1385.941406 1529.902344 Z M 1416.371094 1529.902344 "/>
<path fill-rule="nonzero" fill="rgb(11.767578%, 53.318787%, 89.84375%)" fill-opacity="1" d="M 1473.128906 1537.242188 L 1473.128906 1560.957031 L 1479.808594 1560.957031 C 1483.050781 1560.957031 1485.828125 1559.804688 1488.128906 1557.5 C 1490.460938 1555.171875 1491.628906 1552.359375 1491.628906 1549.066406 C 1491.628906 1545.796875 1490.460938 1543.007812 1488.128906 1540.699219 C 1485.828125 1538.394531 1483.050781 1537.242188 1479.808594 1537.242188 Z M 1479.808594 1568.296875 L 1473.128906 1568.296875 L 1473.128906 1586.367188 L 1465.839844 1586.367188 L 1465.839844 1529.902344 L 1481.859375 1529.902344 C 1486.390625 1530.515625 1490.230469 1532.386719 1493.351562 1535.511719 C 1497.089844 1539.277344 1498.96875 1543.792969 1498.96875 1549.066406 C 1498.96875 1554.382812 1497.089844 1558.925781 1493.351562 1562.6875 C 1490.769531 1565.273438 1488.789062 1566.734375 1487.429688 1567.0625 L 1499.960938 1586.367188 L 1491.101562 1586.367188 Z M 1479.808594 1568.296875 "/>
<path fill-rule="nonzero" fill="rgb(11.767578%, 53.318787%, 89.84375%)" fill-opacity="1" d="M 1577.410156 1529.902344 L 1577.410156 1537.207031 L 1554.289062 1537.207031 L 1554.289062 1554.464844 L 1577.410156 1554.464844 L 1577.410156 1561.773438 L 1554.289062 1561.773438 L 1554.289062 1579.023438 L 1577.410156 1579.023438 L 1577.410156 1586.367188 L 1547 1586.367188 L 1547 1529.902344 Z M 1577.410156 1529.902344 "/>
<path fill-rule="nonzero" fill="rgb(11.767578%, 53.318787%, 89.84375%)" fill-opacity="1" d="M 477.246094 1453.984375 L 491.46875 1466.738281 C 474.097656 1482.578125 455.71875 1490.5 436.328125 1490.5 C 415.597656 1490.5 397.917969 1483.191406 383.300781 1468.574219 C 368.683594 1453.957031 361.375 1436.28125 361.375 1415.546875 C 361.375 1394.871094 368.683594 1377.195312 383.300781 1362.519531 C 397.917969 1347.839844 415.597656 1340.5 436.328125 1340.5 C 455.71875 1340.5 474.097656 1348.421875 491.46875 1364.261719 L 477.246094 1377.195312 C 464.160156 1365.578125 450.519531 1359.765625 436.328125 1359.765625 C 420.976562 1359.765625 407.828125 1365.210938 396.878906 1376.097656 C 385.992188 1386.984375 380.550781 1400.132812 380.550781 1415.546875 C 380.550781 1431.019531 385.992188 1444.199219 396.878906 1455.085938 C 407.828125 1465.972656 420.976562 1471.417969 436.328125 1471.417969 C 450.519531 1471.417969 464.160156 1465.605469 477.246094 1453.984375 Z M 477.246094 1453.984375 "/>
<path fill-rule="nonzero" fill="rgb(11.767578%, 53.318787%, 89.84375%)" fill-opacity="1" d="M 587.339844 1340.222656 C 608.074219 1340.222656 625.78125 1347.5625 640.457031 1362.242188 C 655.136719 1376.921875 662.476562 1394.628906 662.476562 1415.363281 C 662.476562 1436.097656 655.136719 1453.800781 640.457031 1468.480469 C 625.78125 1483.160156 608.074219 1490.5 587.339844 1490.5 C 566.605469 1490.5 548.898438 1483.160156 534.21875 1468.480469 C 519.539062 1453.800781 512.203125 1436.097656 512.203125 1415.363281 C 512.203125 1394.628906 519.539062 1376.921875 534.21875 1362.242188 C 548.898438 1347.5625 566.605469 1340.222656 587.339844 1340.222656 Z M 587.339844 1359.398438 C 571.863281 1359.398438 558.652344 1364.871094 547.707031 1375.820312 C 536.820312 1386.707031 531.375 1399.886719 531.375 1415.363281 C 531.375 1430.835938 536.847656 1444.046875 547.796875 1454.996094 C 558.746094 1465.941406 571.925781 1471.417969 587.339844 1471.417969 C 602.8125 1471.417969 615.992188 1465.941406 626.878906 1454.996094 C 637.828125 1444.046875 643.300781 1430.835938 643.300781 1415.363281 C 643.300781 1399.886719 637.828125 1386.707031 626.878906 1375.820312 C 615.992188 1364.871094 602.8125 1359.398438 587.339844 1359.398438 Z M 587.339844 1359.398438 "/>
<path fill-rule="nonzero" fill="rgb(11.767578%, 53.318787%, 89.84375%)" fill-opacity="1" d="M 709.542969 1342.152344 L 757.15625 1424.445312 L 804.585938 1342.152344 L 821.925781 1342.152344 L 821.925781 1488.941406 L 802.933594 1488.941406 L 802.933594 1382.886719 L 757.15625 1462.152344 L 711.191406 1382.886719 L 711.191406 1488.941406 L 692.203125 1488.941406 L 692.203125 1342.152344 Z M 709.542969 1342.152344 "/>
<path fill-rule="nonzero" fill="rgb(11.767578%, 53.318787%, 89.84375%)" fill-opacity="1" d="M 872.9375 1441.96875 L 872.9375 1488.941406 L 853.945312 1488.941406 L 853.945312 1342.152344 L 895.597656 1342.152344 C 907.402344 1343.742188 917.371094 1348.605469 925.503906 1356.738281 C 935.230469 1366.523438 940.089844 1378.265625 940.089844 1391.96875 C 940.089844 1405.789062 935.230469 1417.59375 925.503906 1427.378906 C 915.78125 1437.105469 904.035156 1441.96875 890.273438 1441.96875 Z M 872.9375 1361.234375 L 872.9375 1422.886719 L 890.273438 1422.886719 C 898.714844 1422.886719 905.933594 1419.886719 911.925781 1413.894531 C 917.980469 1407.839844 921.007812 1400.53125 921.007812 1391.96875 C 921.007812 1383.464844 917.980469 1376.21875 911.925781 1370.222656 C 905.933594 1364.230469 898.714844 1361.234375 890.273438 1361.234375 Z M 872.9375 1361.234375 "/>
<path fill-rule="nonzero" fill="rgb(11.767578%, 53.318787%, 89.84375%)" fill-opacity="1" d="M 1008.898438 1418.023438 L 996.332031 1383.617188 L 983.851562 1418.023438 Z M 1001.46875 1342.152344 L 1054.859375 1488.941406 L 1034.679688 1488.941406 L 1015.78125 1437.011719 L 976.878906 1437.011719 L 958.074219 1488.941406 L 937.796875 1488.941406 L 991.191406 1342.152344 Z M 1001.46875 1342.152344 "/>
<path fill-rule="nonzero" fill="rgb(11.767578%, 53.318787%, 89.84375%)" fill-opacity="1" d="M 1073.390625 1342.152344 L 1090.730469 1342.152344 L 1151.289062 1446.921875 L 1151.289062 1342.152344 L 1170.371094 1342.152344 L 1170.371094 1488.941406 L 1153.761719 1488.941406 L 1092.390625 1382.886719 L 1092.390625 1488.941406 L 1073.390625 1488.941406 Z M 1073.390625 1342.152344 "/>
<path fill-rule="nonzero" fill="rgb(11.767578%, 53.318787%, 89.84375%)" fill-opacity="1" d="M 1239.359375 1430.039062 L 1188.628906 1342.152344 L 1210.460938 1342.152344 L 1248.808594 1408.574219 L 1287.25 1342.152344 L 1309.179688 1342.152344 L 1258.351562 1430.039062 L 1258.351562 1488.941406 L 1239.359375 1488.941406 Z M 1239.359375 1430.039062 "/>
<path fill-rule="nonzero" fill="rgb(11.767578%, 53.318787%, 89.84375%)" fill-opacity="1" d="M 1392.660156 1342.152344 L 1410 1342.152344 L 1470.550781 1446.921875 L 1470.550781 1342.152344 L 1489.628906 1342.152344 L 1489.628906 1488.941406 L 1473.03125 1488.941406 L 1411.648438 1382.886719 L 1411.648438 1488.941406 L 1392.660156 1488.941406 Z M 1392.660156 1342.152344 "/>
<path fill-rule="nonzero" fill="rgb(11.767578%, 53.318787%, 89.84375%)" fill-opacity="1" d="M 1578.988281 1418.023438 L 1566.421875 1383.617188 L 1553.941406 1418.023438 Z M 1571.558594 1342.152344 L 1624.949219 1488.941406 L 1604.769531 1488.941406 L 1585.871094 1437.011719 L 1546.96875 1437.011719 L 1528.160156 1488.941406 L 1507.890625 1488.941406 L 1561.289062 1342.152344 Z M 1571.558594 1342.152344 "/>
<path fill-rule="nonzero" fill="rgb(11.767578%, 53.318787%, 89.84375%)" fill-opacity="1" d="M 1665.140625 1342.152344 L 1712.75 1424.445312 L 1760.179688 1342.152344 L 1777.519531 1342.152344 L 1777.519531 1488.941406 L 1758.53125 1488.941406 L 1758.53125 1382.886719 L 1712.75 1462.152344 L 1666.789062 1382.886719 L 1666.789062 1488.941406 L 1647.800781 1488.941406 L 1647.800781 1342.152344 Z M 1665.140625 1342.152344 "/>
<path fill-rule="nonzero" fill="rgb(11.767578%, 53.318787%, 89.84375%)" fill-opacity="1" d="M 1888.628906 1342.152344 L 1888.628906 1361.140625 L 1828.53125 1361.140625 L 1828.53125 1406.003906 L 1888.628906 1406.003906 L 1888.628906 1424.996094 L 1828.53125 1424.996094 L 1828.53125 1469.859375 L 1888.628906 1469.859375 L 1888.628906 1488.941406 L 1809.539062 1488.941406 L 1809.539062 1342.152344 Z M 1888.628906 1342.152344 "/>
</svg>
