<?xml version="1.0" encoding="UTF-8" standalone="no"?>
<svg
   xmlns:dc="http://purl.org/dc/elements/1.1/"
   xmlns:cc="http://creativecommons.org/ns#"
   xmlns:rdf="http://www.w3.org/1999/02/22-rdf-syntax-ns#"
   xmlns:svg="http://www.w3.org/2000/svg"
   xmlns="http://www.w3.org/2000/svg"
   viewBox="0 0 1122.52 793.70667"
   height="793.70667"
   width="1122.52"
   xml:space="preserve"
   id="svg2"
   version="1.1"><metadata
     id="metadata8"><rdf:RDF><cc:Work
         rdf:about=""><dc:format>image/svg+xml</dc:format><dc:type
           rdf:resource="http://purl.org/dc/dcmitype/StillImage" /></cc:Work></rdf:RDF></metadata><defs
     id="defs6"><clipPath
       id="clipPath36"
       clipPathUnits="userSpaceOnUse"><path
         id="path34"
         d="M 1283.04,1271.13 H 584.012 c -18.813,0 -35.731,7.65 -48.063,20.07 -12.328,12.42 -19.98,29.52 -19.98,48.51 v 785.16 c 0,10.8 4.32,20.52 11.34,27.63 7.113,7.11 16.652,11.43 27.363,11.43 h 4.226 v 0 20.34 c -18.718,0.09 -34.109,13.05 -37.707,30.87 -9.269,45.36 -23.402,131.67 -23.402,265.68 0,211.23 0,265.77 0,374.76 0,29.16 8.82,82.62 23.852,150.66 45.179,204.48 145.89,543.42 226.437,807.48 v 0 0 0 c 15.844,52.2 42.934,95.49 79.203,127.89 36.36,32.31 81.989,54 135.629,62.46 141.84,22.41 365.04,46.35 579.69,64.53 214.56,18.18 420.84,30.78 528.48,30.78 216.54,0 136.26,0 264.87,0 50.22,0 95.58,-20.52 128.52,-53.64 32.94,-33.21 53.28,-78.93 53.28,-129.69 l -0.09,-1797.21 c 0.09,-7.65 -3.78,-15.03 -10.17,-20.7 -6.31,-5.69 -14.99,-9.18 -23.18,-9.18 -0.1,0 -0.21,0 -0.31,0 h -597.87 c -158.31,0 -301.77,-64.71 -405.45,-169.11 C 1376.91,1815.36 1312.74,1671 1312.74,1511.52 v -109.54 c -3.95,-38.57 -15.7,-50.3 -48.06,-50.3 H 592.559 c -36.45,0 -66.059,29.88 -66.059,66.6 v -62.55 c 0,-36.81 29.609,-66.69 66.059,-66.69 l 669.331,0.27 c 30.8,0 46.63,10.55 50.85,32.56 v -20.86 c 0,-8.28 -3.33,-15.75 -8.73,-21.15 -5.4,-5.4 -12.69,-8.73 -20.97,-8.73 m 425.52,1816.69 v -887.89 c 0,-3.78 3.06,-6.84 6.84,-6.84 3.69,0 6.75,3.06 6.75,6.84 v 887.89 l 337.68,-0.22 c 53.91,0 97.65,44.1 97.65,98.46 v 428.31 28.8 c 0,54.36 -43.74,98.37 -97.65,98.37 H 922.949 c -42.027,0 -79.828,-26.01 -91.621,-64.17 -27.973,-90.51 -83.445,-318.44 -117.422,-472.86 h -0.027 c -12.82,-58.32 -22.598,-106.26 -26.645,-132.21 -0.007,-0.06 -0.019,-0.12 -0.027,-0.18 -0.051,-0.33 -0.102,-0.65 -0.152,-0.97 -0.004,-0.04 -0.008,-0.08 -0.016,-0.11 -0.047,-0.31 -0.094,-0.61 -0.137,-0.91 -0.019,-0.13 -0.039,-0.25 -0.058,-0.38 -0.039,-0.27 -0.078,-0.53 -0.117,-0.79 -0.004,-0.03 -0.008,-0.06 -0.012,-0.09 -0.102,-0.67 -0.195,-1.33 -0.285,-1.97 v 0 c -1.711,-12.06 -2.52,-38.43 -2.52,-44.28 0,-115.38 0,-274.5 0,-325.44 v 0 c 0,-50.94 48.512,-101.79 99.09,-101.79 h 83.609 c 71.93,0 163.451,0 199.441,0 41.58,0 95.76,20.88 110.16,65.97 l 106.56,369.72 c 8.46,34.11 38.07,56.97 70.65,56.97 l 355.14,-0.23" /></clipPath><linearGradient
       id="linearGradient54"
       spreadMethod="pad"
       gradientTransform="matrix(-1.227e-4,2807.7,2807.7,1.227e-4,1507.8,1260.93)"
       gradientUnits="userSpaceOnUse"
       y2="0"
       x2="1"
       y1="0"
       x1="0"><stop
         id="stop38"
         offset="0"
         style="stop-opacity:1;stop-color:#e5e4e4" /><stop
         id="stop40"
         offset="0.010989"
         style="stop-opacity:1;stop-color:#e5e4e4" /><stop
         id="stop42"
         offset="0.14927217"
         style="stop-opacity:1;stop-color:#e9e9e9" /><stop
         id="stop44"
         offset="0.21978"
         style="stop-opacity:1;stop-color:#e9e9e9" /><stop
         id="stop46"
         offset="0.362637"
         style="stop-opacity:1;stop-color:#d5d4d5" /><stop
         id="stop48"
         offset="0.538462"
         style="stop-opacity:1;stop-color:#f2f2f2" /><stop
         id="stop50"
         offset="0.868132"
         style="stop-opacity:1;stop-color:#fbfbfb" /><stop
         id="stop52"
         offset="1"
         style="stop-opacity:1;stop-color:#e9e9e9" /></linearGradient><clipPath
       id="clipPath68"
       clipPathUnits="userSpaceOnUse"><path
         id="path66"
         d="m 2277.47,1451.73 c 0,-188.41 -151.67,-341.15 -338.76,-341.15 -187.09,0 -338.77,152.74 -338.77,341.15 0,188.48 151.68,341.2 338.77,341.2 187.09,0 338.76,-152.72 338.76,-341.2 z" /></clipPath><linearGradient
       id="linearGradient74"
       spreadMethod="pad"
       gradientTransform="matrix(-2.98e-5,682.344,682.344,2.98e-5,1938.7,1127.08)"
       gradientUnits="userSpaceOnUse"
       y2="0"
       x2="1"
       y1="0"
       x1="0"><stop
         id="stop70"
         offset="0"
         style="stop-opacity:1;stop-color:#bdbcbc" /><stop
         id="stop72"
         offset="1"
         style="stop-opacity:1;stop-color:#918f90" /></linearGradient><clipPath
       id="clipPath84"
       clipPathUnits="userSpaceOnUse"><path
         id="path82"
         d="m 1938.63,1681.48 c -125.56,0 -227.32,-102.5 -227.32,-228.93 0,-126.44 101.76,-228.94 227.32,-228.94 125.53,0 227.34,102.5 227.34,228.94 0,126.43 -101.81,228.93 -227.34,228.93 z m 185.97,-228.93 c 0,-103.43 -83.27,-187.3 -185.97,-187.3 -102.7,0 -185.99,83.87 -185.99,187.3 0,103.44 83.29,187.33 185.99,187.33 102.7,0 185.97,-83.89 185.97,-187.33 z" /></clipPath><linearGradient
       id="linearGradient92"
       spreadMethod="pad"
       gradientTransform="matrix(-1.88e-5,-429.136,-429.136,1.88e-5,1938.64,1669.27)"
       gradientUnits="userSpaceOnUse"
       y2="0"
       x2="1"
       y1="0"
       x1="0"><stop
         id="stop86"
         offset="0"
         style="stop-opacity:1;stop-color:#deddde" /><stop
         id="stop88"
         offset="0.82129452"
         style="stop-opacity:1;stop-color:#4f4c4d" /><stop
         id="stop90"
         offset="1"
         style="stop-opacity:1;stop-color:#4f4c4d" /></linearGradient><clipPath
       id="clipPath102"
       clipPathUnits="userSpaceOnUse"><path
         id="path100"
         d="m 1940.52,1614.08 c -88.54,0 -160.34,-72.33 -160.34,-161.53 0,-89.19 71.8,-161.54 160.34,-161.54 88.62,0 160.45,72.35 160.45,161.54 0,89.2 -71.83,161.53 -160.45,161.53 z m 132.97,-162.4 c 0,-73.99 -59.6,-134.03 -133.1,-134.03 -73.5,0 -133.12,60.04 -133.12,134.03 0,74.08 59.62,134.06 133.12,134.06 73.5,0 133.1,-59.98 133.1,-134.06 z" /></clipPath><linearGradient
       id="linearGradient110"
       spreadMethod="pad"
       gradientTransform="matrix(-1.42e-5,325.25,325.25,1.42e-5,1940.58,1289.2)"
       gradientUnits="userSpaceOnUse"
       y2="0"
       x2="1"
       y1="0"
       x1="0"><stop
         id="stop104"
         offset="0"
         style="stop-opacity:1;stop-color:#deddde" /><stop
         id="stop106"
         offset="0.82129452"
         style="stop-opacity:1;stop-color:#4f4c4d" /><stop
         id="stop108"
         offset="1"
         style="stop-opacity:1;stop-color:#4f4c4d" /></linearGradient><clipPath
       id="clipPath120"
       clipPathUnits="userSpaceOnUse"><path
         id="path118"
         d="m 2353.73,1737.73 c -90.79,133.13 -242.56,220.57 -415.02,220.57 -172.04,0 -327.62,-86.29 -414.35,-219.81 -2.89,-4.39 -4.19,-9.88 -4.19,-15.56 0,-16 12.89,-28.95 28.78,-28.95 9.93,0 18.63,5.06 23.78,12.79 78.85,117.89 214.57,193.23 366.42,193.23 152.07,0 286.01,-77.41 366.5,-193.81 5.27,-7.62 13.57,-12.85 23.51,-12.85 15.87,0 28.76,12.96 28.76,28.96 0,5.66 -1.19,11.02 -4.19,15.43 z" /></clipPath><linearGradient
       id="linearGradient128"
       spreadMethod="pad"
       gradientTransform="matrix(837.744,0,0,-837.744,1520.17,1825.82)"
       gradientUnits="userSpaceOnUse"
       y2="0"
       x2="1"
       y1="0"
       x1="0"><stop
         id="stop122"
         offset="0"
         style="stop-opacity:1;stop-color:#393536" /><stop
         id="stop124"
         offset="0.505495"
         style="stop-opacity:1;stop-color:#918f90" /><stop
         id="stop126"
         offset="1"
         style="stop-opacity:1;stop-color:#393536" /></linearGradient><clipPath
       id="clipPath138"
       clipPathUnits="userSpaceOnUse"><path
         id="path136"
         d="m 2316.12,1207.22 c -82.54,-121.13 -220.58,-200.62 -377.41,-200.62 -156.48,0 -297.97,78.49 -376.83,199.86 -2.64,4.04 -3.82,9 -3.82,14.18 0,14.55 11.76,26.35 26.18,26.35 9.05,0 16.94,-4.65 21.62,-11.64 71.72,-107.25 195.15,-175.73 333.25,-175.73 138.28,0 260.1,70.42 333.3,176.25 4.78,6.92 12.33,11.7 21.36,11.7 14.44,0 26.17,-11.81 26.17,-26.34 0,-5.18 -1.09,-10 -3.82,-14.01 z" /></clipPath><linearGradient
       id="linearGradient146"
       spreadMethod="pad"
       gradientTransform="matrix(761.875,0,0,-761.875,1558.06,1127.09)"
       gradientUnits="userSpaceOnUse"
       y2="0"
       x2="1"
       y1="0"
       x1="0"><stop
         id="stop140"
         offset="0"
         style="stop-opacity:1;stop-color:#393536" /><stop
         id="stop142"
         offset="0.505495"
         style="stop-opacity:1;stop-color:#918f90" /><stop
         id="stop144"
         offset="1"
         style="stop-opacity:1;stop-color:#393536" /></linearGradient><clipPath
       id="clipPath170"
       clipPathUnits="userSpaceOnUse"><path
         id="path168"
         d="m 6491.23,1451.73 c 0,-188.41 -151.7,-341.15 -338.77,-341.15 -187.11,0 -338.79,152.74 -338.79,341.15 0,188.48 151.68,341.2 338.79,341.2 187.07,0 338.77,-152.72 338.77,-341.2 z" /></clipPath><linearGradient
       id="linearGradient176"
       spreadMethod="pad"
       gradientTransform="matrix(-2.98e-5,682.344,682.344,2.98e-5,6152.45,1127.08)"
       gradientUnits="userSpaceOnUse"
       y2="0"
       x2="1"
       y1="0"
       x1="0"><stop
         id="stop172"
         offset="0"
         style="stop-opacity:1;stop-color:#bdbcbc" /><stop
         id="stop174"
         offset="1"
         style="stop-opacity:1;stop-color:#918f90" /></linearGradient><clipPath
       id="clipPath186"
       clipPathUnits="userSpaceOnUse"><path
         id="path184"
         d="m 6152.38,1681.48 c -125.54,0 -227.32,-102.5 -227.32,-228.93 0,-126.44 101.78,-228.94 227.32,-228.94 125.55,0 227.35,102.5 227.35,228.94 0,126.43 -101.8,228.93 -227.35,228.93 z m 186,-228.93 c 0,-103.43 -83.28,-187.3 -186,-187.3 -102.71,0 -185.97,83.87 -185.97,187.3 0,103.44 83.26,187.33 185.97,187.33 102.72,0 186,-83.89 186,-187.33 z" /></clipPath><linearGradient
       id="linearGradient194"
       spreadMethod="pad"
       gradientTransform="matrix(-1.88e-5,-429.136,-429.136,1.88e-5,6152.39,1669.27)"
       gradientUnits="userSpaceOnUse"
       y2="0"
       x2="1"
       y1="0"
       x1="0"><stop
         id="stop188"
         offset="0"
         style="stop-opacity:1;stop-color:#deddde" /><stop
         id="stop190"
         offset="0.82129452"
         style="stop-opacity:1;stop-color:#4f4c4d" /><stop
         id="stop192"
         offset="1"
         style="stop-opacity:1;stop-color:#4f4c4d" /></linearGradient><clipPath
       id="clipPath204"
       clipPathUnits="userSpaceOnUse"><path
         id="path202"
         d="m 6154.28,1614.08 c -88.54,0 -160.35,-72.33 -160.35,-161.53 0,-89.19 71.81,-161.54 160.35,-161.54 88.61,0 160.43,72.35 160.43,161.54 0,89.2 -71.82,161.53 -160.43,161.53 z m 132.97,-162.4 c 0,-73.99 -59.61,-134.03 -133.11,-134.03 -73.51,0 -133.12,60.04 -133.12,134.03 0,74.08 59.61,134.06 133.12,134.06 73.5,0 133.11,-59.98 133.11,-134.06 z" /></clipPath><linearGradient
       id="linearGradient212"
       spreadMethod="pad"
       gradientTransform="matrix(-1.42e-5,325.25,325.25,1.42e-5,6154.32,1289.2)"
       gradientUnits="userSpaceOnUse"
       y2="0"
       x2="1"
       y1="0"
       x1="0"><stop
         id="stop206"
         offset="0"
         style="stop-opacity:1;stop-color:#deddde" /><stop
         id="stop208"
         offset="0.82129452"
         style="stop-opacity:1;stop-color:#4f4c4d" /><stop
         id="stop210"
         offset="1"
         style="stop-opacity:1;stop-color:#4f4c4d" /></linearGradient><clipPath
       id="clipPath222"
       clipPathUnits="userSpaceOnUse"><path
         id="path220"
         d="m 6567.48,1737.73 c -90.78,133.13 -242.58,220.57 -415.02,220.57 -172.05,0 -327.64,-86.29 -414.35,-219.81 -2.88,-4.39 -4.2,-9.88 -4.2,-15.56 0,-16 12.91,-28.95 28.8,-28.95 9.91,0 18.62,5.06 23.75,12.79 78.85,117.89 214.59,193.23 366.45,193.23 152.05,0 286,-77.41 366.48,-193.81 5.28,-7.62 13.58,-12.85 23.5,-12.85 15.88,0 28.79,12.96 28.79,28.96 0,5.66 -1.21,11.02 -4.2,15.43 z" /></clipPath><linearGradient
       id="linearGradient230"
       spreadMethod="pad"
       gradientTransform="matrix(837.773,0,0,-837.773,5733.91,1825.82)"
       gradientUnits="userSpaceOnUse"
       y2="0"
       x2="1"
       y1="0"
       x1="0"><stop
         id="stop224"
         offset="0"
         style="stop-opacity:1;stop-color:#393536" /><stop
         id="stop226"
         offset="0.505495"
         style="stop-opacity:1;stop-color:#918f90" /><stop
         id="stop228"
         offset="1"
         style="stop-opacity:1;stop-color:#393536" /></linearGradient><clipPath
       id="clipPath240"
       clipPathUnits="userSpaceOnUse"><path
         id="path238"
         d="m 6529.88,1207.22 c -82.56,-121.13 -220.58,-200.62 -377.42,-200.62 -156.46,0 -297.97,78.49 -376.83,199.86 -2.62,4.04 -3.83,9 -3.83,14.18 0,14.55 11.75,26.35 26.21,26.35 9.02,0 16.91,-4.65 21.6,-11.64 71.72,-107.25 195.16,-175.73 333.26,-175.73 138.28,0 260.08,70.42 333.28,176.25 4.79,6.92 12.35,11.7 21.37,11.7 14.45,0 26.19,-11.81 26.19,-26.34 0,-5.18 -1.11,-10 -3.83,-14.01 z" /></clipPath><linearGradient
       id="linearGradient248"
       spreadMethod="pad"
       gradientTransform="matrix(761.914,0,0,-761.914,5771.8,1127.09)"
       gradientUnits="userSpaceOnUse"
       y2="0"
       x2="1"
       y1="0"
       x1="0"><stop
         id="stop242"
         offset="0"
         style="stop-opacity:1;stop-color:#393536" /><stop
         id="stop244"
         offset="0.505495"
         style="stop-opacity:1;stop-color:#918f90" /><stop
         id="stop246"
         offset="1"
         style="stop-opacity:1;stop-color:#393536" /></linearGradient><clipPath
       id="clipPath276"
       clipPathUnits="userSpaceOnUse"><path
         id="path274"
         d="m 592.559,1289.04 c -36.45,0 -66.059,29.88 -66.059,66.69 v 62.55 c 0,-36.72 29.609,-66.6 66.059,-66.6 h 672.121 c 32.36,0 44.11,11.73 48.06,50.3 v -80.11 c -4.22,-22.01 -20.05,-32.56 -50.85,-32.56 l -669.331,-0.27" /></clipPath><linearGradient
       id="linearGradient292"
       spreadMethod="pad"
       gradientTransform="matrix(-1.227e-4,2807.7,2807.7,1.227e-4,1507.8,1260.93)"
       gradientUnits="userSpaceOnUse"
       y2="0"
       x2="1"
       y1="0"
       x1="0"><stop
         id="stop278"
         offset="0"
         style="stop-opacity:1;stop-color:#979595" /><stop
         id="stop280"
         offset="0.010989"
         style="stop-opacity:1;stop-color:#979595" /><stop
         id="stop282"
         offset="0.21978"
         style="stop-opacity:1;stop-color:#9a9899" /><stop
         id="stop284"
         offset="0.362637"
         style="stop-opacity:1;stop-color:#8e8c8c" /><stop
         id="stop286"
         offset="0.538462"
         style="stop-opacity:1;stop-color:#9f9d9e" /><stop
         id="stop288"
         offset="0.868132"
         style="stop-opacity:1;stop-color:#a5a4a4" /><stop
         id="stop290"
         offset="1"
         style="stop-opacity:1;stop-color:#9a9899" /></linearGradient><clipPath
       id="clipPath342"
       clipPathUnits="userSpaceOnUse"><path
         id="path340"
         d="m 7857.4,2246.91 c 0,-85.35 -68.71,-154.55 -153.45,-154.55 H 2870.89 c -84.74,0 -153.44,69.2 -153.44,154.55 v 2451.57 c 0,85.33 68.7,154.53 153.44,154.53 h 4833.06 c 84.74,0 153.45,-69.2 153.45,-154.53 z" /></clipPath><linearGradient
       id="linearGradient350"
       spreadMethod="pad"
       gradientTransform="matrix(-1.168e-4,-2671.96,-2671.96,1.168e-4,5287.42,4751.34)"
       gradientUnits="userSpaceOnUse"
       y2="0"
       x2="1"
       y1="0"
       x1="0"><stop
         id="stop344"
         offset="0"
         style="stop-opacity:1;stop-color:#e5e4e4" /><stop
         id="stop346"
         offset="0.66230429"
         style="stop-opacity:1;stop-color:#ffffff" /><stop
         id="stop348"
         offset="1"
         style="stop-opacity:1;stop-color:#ffffff" /></linearGradient><clipPath
       id="clipPath366"
       clipPathUnits="userSpaceOnUse"><path
         id="path364"
         d="m 1715.4,2193.09 c -3.78,0 -6.84,3.06 -6.84,6.84 v 887.89 h 13.59 v -887.89 c 0,-3.78 -3.06,-6.84 -6.75,-6.84" /></clipPath><linearGradient
       id="linearGradient382"
       spreadMethod="pad"
       gradientTransform="matrix(-1.227e-4,2807.7,2807.7,1.227e-4,1507.8,1260.93)"
       gradientUnits="userSpaceOnUse"
       y2="0"
       x2="1"
       y1="0"
       x1="0"><stop
         id="stop368"
         offset="0"
         style="stop-opacity:1;stop-color:#aaa9a9" /><stop
         id="stop370"
         offset="0.010989"
         style="stop-opacity:1;stop-color:#aaa9a9" /><stop
         id="stop372"
         offset="0.21978"
         style="stop-opacity:1;stop-color:#aeacad" /><stop
         id="stop374"
         offset="0.362637"
         style="stop-opacity:1;stop-color:#a09e9f" /><stop
         id="stop376"
         offset="0.538462"
         style="stop-opacity:1;stop-color:#b4b3b3" /><stop
         id="stop378"
         offset="0.868132"
         style="stop-opacity:1;stop-color:#bbbaba" /><stop
         id="stop380"
         offset="1"
         style="stop-opacity:1;stop-color:#aeacad" /></linearGradient><clipPath
       id="clipPath398"
       clipPathUnits="userSpaceOnUse"><path
         id="path396"
         d="m 1066.05,2595.39 c -35.99,0 -127.511,0 -199.441,0 v 89.82 l 175.951,255.6 -14.77,31.79 86.5,92.05 103.77,-98.91 c 5.16,-4.9 11.74,-7.33 18.3,-7.33 7.06,0 14.1,2.81 19.32,8.41 10.17,10.71 9.72,27.72 -0.99,37.89 l -273.241,260.55 c -5.168,4.91 -11.789,7.34 -18.383,7.34 -7.07,0 -14.113,-2.79 -19.328,-8.33 -10.078,-10.71 -9.629,-27.72 1.082,-37.98 l 96.75,-92.25 -59.437,-63.2 -79.434,170.93 -188.793,-37.26 c 33.977,154.42 89.449,382.35 117.422,472.86 11.793,38.16 49.594,64.17 91.621,64.17 H 2059.83 c 53.91,0 97.65,-44.01 97.65,-98.37 v -28.8 h -23.04 c -15.03,0 -37.62,-18.9 -41.67,-31.77 l -90.09,-311.22 h -233.82 l -36,218.61 c -2.88,17.64 -21.33,28.35 -30.78,28.35 h -113.67 c -35.01,0 -86.58,-157.59 -63.18,-194.76 -34.92,-22.77 -47.34,-41.4 -69.93,-103.32 l -54.09,-132.21 658.62,-0.45 -337.68,0.22 h -13.59 l -355.14,0.23 c -32.58,0 -62.19,-22.86 -70.65,-56.97 l -106.56,-369.72 c -14.4,-45.09 -68.58,-65.97 -110.16,-65.97 m -379.335,473.48 c 0.004,0.03 0.008,0.06 0.012,0.09 -0.004,-0.03 -0.008,-0.06 -0.012,-0.09 m 0.129,0.88 c 0.019,0.13 0.039,0.25 0.058,0.38 -0.019,-0.13 -0.039,-0.26 -0.058,-0.38 m 0.195,1.29 c 0.008,0.03 0.012,0.07 0.016,0.11 -0.004,-0.04 -0.008,-0.08 -0.016,-0.11 m 0.168,1.08 c 0.008,0.06 0.02,0.12 0.027,0.18 -0.007,-0.06 -0.019,-0.12 -0.027,-0.18" /></clipPath><linearGradient
       id="linearGradient404"
       spreadMethod="pad"
       gradientTransform="matrix(-5.24e-5,-1199.43,-1199.43,5.24e-5,1420.7,3707.48)"
       gradientUnits="userSpaceOnUse"
       y2="0"
       x2="1"
       y1="0"
       x1="0"><stop
         id="stop400"
         offset="0"
         style="stop-opacity:1;stop-color:#717f8a" /><stop
         id="stop402"
         offset="1"
         style="stop-opacity:1;stop-color:#d0e2ee" /></linearGradient><clipPath
       id="clipPath420"
       clipPathUnits="userSpaceOnUse"><path
         id="path418"
         d="m 686.43,3066.9 c 0.09,0.64 0.183,1.3 0.285,1.97 -0.102,-0.67 -0.195,-1.33 -0.285,-1.97 m 0.297,2.06 c 0.039,0.26 0.078,0.52 0.117,0.79 -0.039,-0.27 -0.078,-0.53 -0.117,-0.79 m 0.175,1.17 c 0.043,0.3 0.09,0.6 0.137,0.91 -0.047,-0.31 -0.094,-0.61 -0.137,-0.91 m 0.153,1.02 c 0.05,0.32 0.101,0.64 0.152,0.97 -0.051,-0.33 -0.102,-0.65 -0.152,-0.97 m 0.179,1.15 c 4.047,25.95 13.825,73.89 26.645,132.21 h 0.027 c -12.847,-58.37 -22.617,-106.23 -26.672,-132.21" /></clipPath><linearGradient
       id="linearGradient436"
       spreadMethod="pad"
       gradientTransform="matrix(-1.227e-4,2807.7,2807.7,1.227e-4,1507.8,1260.93)"
       gradientUnits="userSpaceOnUse"
       y2="0"
       x2="1"
       y1="0"
       x1="0"><stop
         id="stop422"
         offset="0"
         style="stop-opacity:1;stop-color:#aaa9a9" /><stop
         id="stop424"
         offset="0.010989"
         style="stop-opacity:1;stop-color:#aaa9a9" /><stop
         id="stop426"
         offset="0.21978"
         style="stop-opacity:1;stop-color:#aeacad" /><stop
         id="stop428"
         offset="0.362637"
         style="stop-opacity:1;stop-color:#a09e9f" /><stop
         id="stop430"
         offset="0.538462"
         style="stop-opacity:1;stop-color:#b4b3b3" /><stop
         id="stop432"
         offset="0.868132"
         style="stop-opacity:1;stop-color:#bbbaba" /><stop
         id="stop434"
         offset="1"
         style="stop-opacity:1;stop-color:#aeacad" /></linearGradient><clipPath
       id="clipPath446"
       clipPathUnits="userSpaceOnUse"><path
         id="path444"
         d="m 866.609,2595.39 c -35.824,0 -66.793,0 -83.609,0 -50.578,0 -99.09,50.85 -99.09,101.79 v 325.44 c 0,5.85 0.809,32.22 2.52,44.28 v 0 c 0.09,0.64 0.183,1.3 0.285,1.97 0.004,0.03 0.008,0.06 0.012,0.09 0.039,0.26 0.078,0.52 0.117,0.79 0.019,0.12 0.039,0.25 0.058,0.38 0.043,0.3 0.09,0.6 0.137,0.91 0.008,0.03 0.012,0.07 0.016,0.11 0.05,0.32 0.101,0.64 0.152,0.97 0.008,0.06 0.02,0.12 0.027,0.18 4.055,25.98 13.825,73.84 26.672,132.21 l 188.793,37.26 79.434,-170.93 -75.473,-80.26 72.809,-69.39 48.321,51.41 14.77,-31.79 -175.951,-255.6 v -89.82" /></clipPath><linearGradient
       id="linearGradient452"
       spreadMethod="pad"
       gradientTransform="matrix(-5.24e-5,-1199.43,-1199.43,5.24e-5,1420.7,3707.48)"
       gradientUnits="userSpaceOnUse"
       y2="0"
       x2="1"
       y1="0"
       x1="0"><stop
         id="stop448"
         offset="0"
         style="stop-opacity:1;stop-color:#57616a" /><stop
         id="stop450"
         offset="1"
         style="stop-opacity:1;stop-color:#9aa7b0" /></linearGradient><clipPath
       id="clipPath462"
       clipPathUnits="userSpaceOnUse"><path
         id="path460"
         d="m 2059.83,3087.6 v 0 l -658.62,0.45 54.09,132.21 c 22.59,61.92 35.01,80.55 69.93,103.32 -23.4,37.17 28.17,194.76 63.18,194.76 h 113.67 c 9.45,0 27.9,-10.71 30.78,-28.35 l 36,-218.61 h 233.82 l 90.09,311.22 c 4.05,12.87 26.64,31.77 41.67,31.77 h 23.04 v -428.31 c 0,-54.36 -43.74,-98.46 -97.65,-98.46" /></clipPath><linearGradient
       id="linearGradient468"
       spreadMethod="pad"
       gradientTransform="matrix(-5.24e-5,-1199.43,-1199.43,5.24e-5,1420.7,3707.48)"
       gradientUnits="userSpaceOnUse"
       y2="0"
       x2="1"
       y1="0"
       x1="0"><stop
         id="stop464"
         offset="0"
         style="stop-opacity:1;stop-color:#57616a" /><stop
         id="stop466"
         offset="1"
         style="stop-opacity:1;stop-color:#9aa7b0" /></linearGradient><clipPath
       id="clipPath478"
       clipPathUnits="userSpaceOnUse"><path
         id="path476"
         d="m 979.469,2921.19 -72.809,69.39 75.473,80.26 59.437,63.2 -96.75,92.25 c -10.711,10.26 -11.16,27.27 -1.082,37.98 5.215,5.54 12.258,8.33 19.328,8.33 6.594,0 13.215,-2.43 18.383,-7.34 l 273.241,-260.55 c 10.71,-10.17 11.16,-27.18 0.99,-37.89 -5.22,-5.6 -12.26,-8.41 -19.32,-8.41 -6.56,0 -13.14,2.43 -18.3,7.33 l -103.77,98.91 -86.5,-92.05 -48.321,-51.41" /></clipPath><linearGradient
       id="linearGradient484"
       spreadMethod="pad"
       gradientTransform="matrix(-5.24e-5,-1199.43,-1199.43,5.24e-5,1420.7,3707.48)"
       gradientUnits="userSpaceOnUse"
       y2="0"
       x2="1"
       y1="0"
       x1="0"><stop
         id="stop480"
         offset="0"
         style="stop-opacity:1;stop-color:#57616a" /><stop
         id="stop482"
         offset="1"
         style="stop-opacity:1;stop-color:#9aa7b0" /></linearGradient></defs><g
     transform="matrix(1.3333333,0,0,-1.3333333,0,793.70667)"
     id="g10"><g
       transform="scale(0.1)"
       id="g12"><path
         id="path14"
         style="fill:#ffffff;fill-opacity:1;fill-rule:nonzero;stroke:none"
         d="M 0,0 H 8418.87 V 5952.75 H 0 Z" /><path
         id="path16"
         style="fill:#393536;fill-opacity:1;fill-rule:nonzero;stroke:none"
         d="M 7872.3,2092.38 H 2991.51 V 3847.2 h -334.98 v 32.94 c 0,13.77 -11.07,24.93 -24.75,24.93 h -79.2 c -13.59,0 -24.66,-11.16 -24.66,-24.93 V 2140.8 c 0,-22.05 -21.87,-40.05 -43.92,-40.05 H 575.641 V 1530.78 H 7534.17 l -6.12,155.97 h 344.25 c 18.99,0 34.38,15.39 34.38,34.56 v 336.51 c 0,19.08 -15.39,34.56 -34.38,34.56" /><path
         id="path18"
         style="fill:#ed1c24;fill-opacity:1;fill-rule:nonzero;stroke:none"
         d="m 7906.68,1758.39 h -123.21 c -18.99,0 -34.38,15.48 -34.38,34.65 v 187.47 c 0,19.17 15.39,34.56 34.38,34.56 h 123.21 v -256.68" /><path
         id="path20"
         style="fill:#91141f;fill-opacity:1;fill-rule:nonzero;stroke:none"
         d="m 7800.33,2000.35 c -18.92,0 -34.31,-15.49 -34.31,-34.57 v -44.3 c 0,19.06 15.39,34.57 34.31,34.57 h 106.31 v 44.3 h -106.31" /><path
         id="path22"
         style="fill:#f46d57;fill-opacity:1;fill-rule:nonzero;stroke:none"
         d="M 7906.68,1774.32 H 7800.3 c -18.9,0 -34.29,15.48 -34.29,34.56 v 22.14 c 0,-19.08 15.39,-34.56 34.29,-34.56 h 106.38 v -22.14" /><path
         id="path24"
         style="fill:#231f20;fill-opacity:1;fill-rule:nonzero;stroke:none"
         d="m 2509.92,1351.81 v 99.92 c 0,316.92 -255.08,573.79 -569.71,573.79 -314.62,0 -569.69,-256.87 -569.69,-573.79 v -99.92 h 1139.4" /><path
         id="path26"
         style="fill:#4f4c4c;fill-opacity:1;fill-rule:nonzero;stroke:none"
         d="m 1220.22,2078.79 h 1409.22 c 56.61,0 102.6,-46.35 102.6,-103.41 v -623.61 c 0,-13.59 -10.98,-24.66 -24.57,-24.66 h -172.98 c -13.59,0 -24.57,11.07 -24.57,24.66 v 99.99 c 0,316.89 -255.06,573.75 -569.7,573.75 -314.64,0 -569.7,-256.86 -569.7,-573.75 v -99.99 c 0,-13.59 -10.98,-24.66 -24.57,-24.66 h -125.73 v 751.68" /><path
         id="path28"
         style="fill:#231f20;fill-opacity:1;fill-rule:nonzero;stroke:none"
         d="m 6717.68,1351.81 v 99.92 c 0,316.92 -255.1,573.79 -569.73,573.79 -314.63,0 -569.67,-256.87 -569.67,-573.79 v -99.92 h 1139.4" /><g
         id="g30"><g
           clip-path="url(#clipPath36)"
           id="g32"><path
             id="path56"
             style="fill:url(#linearGradient54);fill-opacity:1;fill-rule:nonzero;stroke:none"
             d="M 1283.04,1271.13 H 584.012 c -18.813,0 -35.731,7.65 -48.063,20.07 -12.328,12.42 -19.98,29.52 -19.98,48.51 v 785.16 c 0,10.8 4.32,20.52 11.34,27.63 7.113,7.11 16.652,11.43 27.363,11.43 h 4.226 v 0 20.34 c -18.718,0.09 -34.109,13.05 -37.707,30.87 -9.269,45.36 -23.402,131.67 -23.402,265.68 0,211.23 0,265.77 0,374.76 0,29.16 8.82,82.62 23.852,150.66 45.179,204.48 145.89,543.42 226.437,807.48 v 0 0 0 c 15.844,52.2 42.934,95.49 79.203,127.89 36.36,32.31 81.989,54 135.629,62.46 141.84,22.41 365.04,46.35 579.69,64.53 214.56,18.18 420.84,30.78 528.48,30.78 216.54,0 136.26,0 264.87,0 50.22,0 95.58,-20.52 128.52,-53.64 32.94,-33.21 53.28,-78.93 53.28,-129.69 l -0.09,-1797.21 c 0.09,-7.65 -3.78,-15.03 -10.17,-20.7 -6.31,-5.69 -14.99,-9.18 -23.18,-9.18 -0.1,0 -0.21,0 -0.31,0 h -597.87 c -158.31,0 -301.77,-64.71 -405.45,-169.11 C 1376.91,1815.36 1312.74,1671 1312.74,1511.52 v -109.54 c -3.95,-38.57 -15.7,-50.3 -48.06,-50.3 H 592.559 c -36.45,0 -66.059,29.88 -66.059,66.6 v -62.55 c 0,-36.81 29.609,-66.69 66.059,-66.69 l 669.331,0.27 c 30.8,0 46.63,10.55 50.85,32.56 v -20.86 c 0,-8.28 -3.33,-15.75 -8.73,-21.15 -5.4,-5.4 -12.69,-8.73 -20.97,-8.73 m 425.52,1816.69 v -887.89 c 0,-3.78 3.06,-6.84 6.84,-6.84 3.69,0 6.75,3.06 6.75,6.84 v 887.89 l 337.68,-0.22 c 53.91,0 97.65,44.1 97.65,98.46 v 428.31 28.8 c 0,54.36 -43.74,98.37 -97.65,98.37 H 922.949 c -42.027,0 -79.828,-26.01 -91.621,-64.17 -27.973,-90.51 -83.445,-318.44 -117.422,-472.86 h -0.027 c -12.82,-58.32 -22.598,-106.26 -26.645,-132.21 -0.007,-0.06 -0.019,-0.12 -0.027,-0.18 -0.051,-0.33 -0.102,-0.65 -0.152,-0.97 -0.004,-0.04 -0.008,-0.08 -0.016,-0.11 -0.047,-0.31 -0.094,-0.61 -0.137,-0.91 -0.019,-0.13 -0.039,-0.25 -0.058,-0.38 -0.039,-0.27 -0.078,-0.53 -0.117,-0.79 -0.004,-0.03 -0.008,-0.06 -0.012,-0.09 -0.102,-0.67 -0.195,-1.33 -0.285,-1.97 v 0 c -1.711,-12.06 -2.52,-38.43 -2.52,-44.28 0,-115.38 0,-274.5 0,-325.44 v 0 c 0,-50.94 48.512,-101.79 99.09,-101.79 h 83.609 c 71.93,0 163.451,0 199.441,0 41.58,0 95.76,20.88 110.16,65.97 l 106.56,369.72 c 8.46,34.11 38.07,56.97 70.65,56.97 l 355.14,-0.23" /></g></g><path
         id="path58"
         style="fill:#d3d2d2;fill-opacity:1;fill-rule:nonzero;stroke:none"
         d="m 738.27,3816.69 9.808,-2.97 c 15.844,52.2 42.934,95.49 79.203,127.89 36.36,32.31 81.989,54 135.629,62.46 141.84,22.41 365.04,46.35 579.69,64.53 214.56,18.18 420.84,30.78 528.48,30.78 216.54,0 136.26,0 264.87,0 50.22,0 95.58,-20.52 128.52,-53.64 32.94,-33.21 53.28,-78.93 53.28,-129.69 l -0.09,-1797.21 c 0.09,-7.65 -3.78,-15.03 -10.17,-20.7 -6.39,-5.76 -15.21,-9.27 -23.49,-9.18 h -597.87 c -158.31,0 -301.77,-64.71 -405.45,-169.11 C 1376.91,1815.36 1312.74,1671 1312.74,1511.52 v -210.51 c 0,-8.28 -3.33,-15.75 -8.73,-21.15 -5.4,-5.4 -12.69,-8.73 -20.97,-8.73 H 584.012 c -18.813,0 -35.731,7.65 -48.063,20.07 -12.328,12.42 -19.98,29.52 -19.98,48.51 v 785.16 c 0,10.8 4.32,20.52 11.34,27.63 7.113,7.11 16.652,11.43 27.363,11.43 h 4.226 v 20.34 c -18.718,0.09 -34.109,13.05 -37.707,30.87 -9.269,45.36 -23.402,131.67 -23.402,265.68 0,211.23 0,265.77 0,374.76 0,29.16 8.82,82.62 23.852,150.66 45.179,204.48 145.89,543.42 226.437,807.48 l -9.808,2.97 -9.719,2.97 C 674.82,3643.53 612.18,3434.1 562.859,3253.2 c -24.66,-90.54 -45.988,-173.88 -61.109,-242.55 -15.121,-68.76 -24.211,-122.31 -24.301,-155.07 0,-108.99 0,-163.53 0,-374.76 0,-135.45 14.313,-223.29 23.762,-269.73 5.488,-27.09 29.25,-47.16 57.687,-47.16 v 20.34 h -4.226 c -16.293,0 -31.141,-6.66 -41.762,-17.37 -10.711,-10.8 -17.281,-25.65 -17.281,-42.03 v -785.16 c 0,-24.48 9.902,-46.8 25.832,-62.91 16.019,-16.02 38.16,-26.1 62.551,-26.01 h 699.028 c 27.72,0 49.95,22.5 50.04,50.22 v 210.51 c 0,153.9 61.92,293.13 162,393.93 100.17,100.8 238.32,163.08 391.05,163.08 H 2484 c 13.77,0.09 26.91,5.49 36.9,14.31 9.99,8.82 17.19,21.42 17.19,36 l 0.09,1797.21 c 0,56.25 -22.68,107.19 -59.22,144 -36.54,36.9 -87.21,59.67 -143.01,59.67 -128.61,0 -48.33,0 -264.87,0 -108.99,0 -315.18,-12.6 -530.19,-30.87 -215.01,-18.18 -438.39,-42.03 -581.218,-64.71 h 0.09 c -57.242,-9 -106.742,-32.31 -145.981,-67.41 -39.332,-35.01 -68.402,-81.72 -85.23,-137.07 l 9.719,-2.97" /><path
         id="path60"
         style="fill:#393536;fill-opacity:1;fill-rule:nonzero;stroke:none"
         d="m 2480.05,1451.73 c 0,-301.05 -242.38,-545.171 -541.34,-545.171 -298.98,0 -541.36,244.121 -541.36,545.171 0,301.18 242.38,545.22 541.36,545.22 298.96,0 541.34,-244.04 541.34,-545.22" /><g
         id="g62"><g
           clip-path="url(#clipPath68)"
           id="g64"><path
             id="path76"
             style="fill:url(#linearGradient74);fill-opacity:1;fill-rule:nonzero;stroke:none"
             d="m 2277.47,1451.73 c 0,-188.41 -151.67,-341.15 -338.76,-341.15 -187.09,0 -338.77,152.74 -338.77,341.15 0,188.48 151.68,341.2 338.77,341.2 187.09,0 338.76,-152.72 338.76,-341.2" /></g></g><g
         id="g78"><g
           clip-path="url(#clipPath84)"
           id="g80"><path
             id="path94"
             style="fill:url(#linearGradient92);fill-opacity:1;fill-rule:nonzero;stroke:none"
             d="m 1938.63,1681.48 c -125.56,0 -227.32,-102.5 -227.32,-228.93 0,-126.44 101.76,-228.94 227.32,-228.94 125.53,0 227.34,102.5 227.34,228.94 0,126.43 -101.81,228.93 -227.34,228.93 z m 185.97,-228.93 c 0,-103.43 -83.27,-187.3 -185.97,-187.3 -102.7,0 -185.99,83.87 -185.99,187.3 0,103.44 83.29,187.33 185.99,187.33 102.7,0 185.97,-83.89 185.97,-187.33" /></g></g><g
         id="g96"><g
           clip-path="url(#clipPath102)"
           id="g98"><path
             id="path112"
             style="fill:url(#linearGradient110);fill-opacity:1;fill-rule:nonzero;stroke:none"
             d="m 1940.52,1614.08 c -88.54,0 -160.34,-72.33 -160.34,-161.53 0,-89.19 71.8,-161.54 160.34,-161.54 88.62,0 160.45,72.35 160.45,161.54 0,89.2 -71.83,161.53 -160.45,161.53 z m 132.97,-162.4 c 0,-73.99 -59.6,-134.03 -133.1,-134.03 -73.5,0 -133.12,60.04 -133.12,134.03 0,74.08 59.62,134.06 133.12,134.06 73.5,0 133.1,-59.98 133.1,-134.06" /></g></g><g
         id="g114"><g
           clip-path="url(#clipPath120)"
           id="g116"><path
             id="path130"
             style="fill:url(#linearGradient128);fill-opacity:1;fill-rule:nonzero;stroke:none"
             d="m 2353.73,1737.73 c -90.79,133.13 -242.56,220.57 -415.02,220.57 -172.04,0 -327.62,-86.29 -414.35,-219.81 -2.89,-4.39 -4.19,-9.88 -4.19,-15.56 0,-16 12.89,-28.95 28.78,-28.95 9.93,0 18.63,5.06 23.78,12.79 78.85,117.89 214.57,193.23 366.42,193.23 152.07,0 286.01,-77.41 366.5,-193.81 5.27,-7.62 13.57,-12.85 23.51,-12.85 15.87,0 28.76,12.96 28.76,28.96 0,5.66 -1.19,11.02 -4.19,15.43" /></g></g><g
         id="g132"><g
           clip-path="url(#clipPath138)"
           id="g134"><path
             id="path148"
             style="fill:url(#linearGradient146);fill-opacity:1;fill-rule:nonzero;stroke:none"
             d="m 2316.12,1207.22 c -82.54,-121.13 -220.58,-200.62 -377.41,-200.62 -156.48,0 -297.97,78.49 -376.83,199.86 -2.64,4.04 -3.82,9 -3.82,14.18 0,14.55 11.76,26.35 26.18,26.35 9.05,0 16.94,-4.65 21.62,-11.64 71.72,-107.25 195.15,-175.73 333.25,-175.73 138.28,0 260.1,70.42 333.3,176.25 4.78,6.92 12.33,11.7 21.36,11.7 14.44,0 26.17,-11.81 26.17,-26.34 0,-5.18 -1.09,-10 -3.82,-14.01" /></g></g><path
         id="path150"
         style="fill:#393536;fill-opacity:1;fill-rule:nonzero;stroke:none"
         d="m 1938.59,1712.79 c 17.94,0 35.37,-2.19 52.36,-5.31 10.76,-1.98 15.86,1.54 18.01,8.3 l 6.02,22.63 c 2.4,7.39 -1.85,17.78 -13.01,19.89 -20.51,3.86 -41.58,6.46 -63.26,6.46 -21.67,0 -42.75,-2.6 -63.29,-6.46 -11.15,-2.11 -15.4,-12.5 -13.01,-19.89 l 6.01,-22.63 c 2.19,-6.76 7.27,-10.28 18.03,-8.3 16.99,3.12 34.42,5.31 52.34,5.31 h -0.2" /><path
         id="path152"
         style="fill:#393536;fill-opacity:1;fill-rule:nonzero;stroke:none"
         d="m 1714.2,1582.18 c 8.96,15.65 19.58,29.75 30.76,43.01 7.08,8.42 6.62,14.63 1.88,19.88 l -16.5,16.55 c -5.16,5.78 -16.16,7.28 -23.59,-1.43 -13.57,-15.94 -26.35,-33.03 -37.19,-51.89 -10.84,-18.91 -19.14,-38.62 -26.07,-58.44 -3.76,-10.8 3.03,-19.67 10.59,-21.25 l 22.5,-6.15 c 6.86,-1.47 12.45,1.21 16.13,11.62 5.82,16.35 12.63,32.67 21.59,48.3 l -0.1,-0.2" /><path
         id="path154"
         style="fill:#393536;fill-opacity:1;fill-rule:nonzero;stroke:none"
         d="m 1714.3,1321.15 c -8.96,15.64 -15.77,31.97 -21.59,48.36 -3.68,10.37 -9.27,13.06 -16.13,11.56 l -22.5,-6.09 c -7.56,-1.62 -14.37,-10.49 -10.57,-21.31 6.92,-19.79 15.21,-39.49 26.05,-58.4 10.84,-18.91 23.6,-36 37.19,-51.93 7.43,-8.64 18.45,-7.21 23.59,-1.41 l 16.5,16.58 c 4.74,5.26 5.2,11.51 -1.88,19.88 -11.18,13.27 -21.8,27.35 -30.76,42.97 l 0.1,-0.21" /><path
         id="path156"
         style="fill:#393536;fill-opacity:1;fill-rule:nonzero;stroke:none"
         d="m 1938.79,1190.78 c -17.9,0 -35.35,2.2 -52.34,5.33 -10.78,1.97 -15.86,-1.54 -18.03,-8.34 l -5.99,-22.62 c -2.39,-7.46 1.82,-17.75 13,-19.9 20.53,-3.83 41.61,-6.46 63.28,-6.46 21.66,0 42.73,2.63 63.28,6.46 11.12,2.15 15.39,12.5 12.97,19.9 l -6,22.62 c -2.15,6.8 -7.25,10.31 -18.01,8.34 -16.99,-3.13 -34.44,-5.33 -52.36,-5.33 h 0.2" /><path
         id="path158"
         style="fill:#393536;fill-opacity:1;fill-rule:nonzero;stroke:none"
         d="m 2163.2,1321.36 c -8.96,-15.62 -19.56,-29.7 -30.75,-42.97 -7.1,-8.43 -6.62,-14.62 -1.87,-19.88 l 16.47,-16.58 c 5.17,-5.8 16.19,-7.29 23.6,1.44 13.55,15.96 26.38,32.99 37.22,51.9 10.82,18.91 19.12,38.61 26.06,58.4 3.74,10.82 -3.05,19.72 -10.59,21.31 l -22.5,6.09 c -6.88,1.52 -12.47,-1.19 -16.15,-11.56 -5.82,-16.39 -12.64,-32.72 -21.59,-48.36 l 0.1,0.21" /><path
         id="path160"
         style="fill:#393536;fill-opacity:1;fill-rule:nonzero;stroke:none"
         d="m 2163.1,1582.38 c 8.95,-15.63 15.77,-31.97 21.59,-48.3 3.68,-10.47 9.27,-13.09 16.15,-11.62 l 22.5,6.15 c 7.54,1.58 14.35,10.43 10.55,21.25 -6.92,19.82 -15.2,39.53 -26.02,58.44 -10.84,18.86 -23.63,35.95 -37.22,51.89 -7.41,8.71 -18.47,7.25 -23.6,1.43 l -16.47,-16.55 c -4.75,-5.25 -5.21,-11.5 1.87,-19.88 11.19,-13.26 21.79,-27.36 30.75,-43.01 l -0.1,0.2" /><path
         id="path162"
         style="fill:#393536;fill-opacity:1;fill-rule:nonzero;stroke:none"
         d="m 6693.79,1451.73 c 0,-301.05 -242.36,-545.171 -541.33,-545.171 -298.96,0 -541.35,244.121 -541.35,545.171 0,301.18 242.39,545.22 541.35,545.22 298.97,0 541.33,-244.04 541.33,-545.22" /><g
         id="g164"><g
           clip-path="url(#clipPath170)"
           id="g166"><path
             id="path178"
             style="fill:url(#linearGradient176);fill-opacity:1;fill-rule:nonzero;stroke:none"
             d="m 6491.23,1451.73 c 0,-188.41 -151.7,-341.15 -338.77,-341.15 -187.11,0 -338.79,152.74 -338.79,341.15 0,188.48 151.68,341.2 338.79,341.2 187.07,0 338.77,-152.72 338.77,-341.2" /></g></g><g
         id="g180"><g
           clip-path="url(#clipPath186)"
           id="g182"><path
             id="path196"
             style="fill:url(#linearGradient194);fill-opacity:1;fill-rule:nonzero;stroke:none"
             d="m 6152.38,1681.48 c -125.54,0 -227.32,-102.5 -227.32,-228.93 0,-126.44 101.78,-228.94 227.32,-228.94 125.55,0 227.35,102.5 227.35,228.94 0,126.43 -101.8,228.93 -227.35,228.93 z m 186,-228.93 c 0,-103.43 -83.28,-187.3 -186,-187.3 -102.71,0 -185.97,83.87 -185.97,187.3 0,103.44 83.26,187.33 185.97,187.33 102.72,0 186,-83.89 186,-187.33" /></g></g><g
         id="g198"><g
           clip-path="url(#clipPath204)"
           id="g200"><path
             id="path214"
             style="fill:url(#linearGradient212);fill-opacity:1;fill-rule:nonzero;stroke:none"
             d="m 6154.28,1614.08 c -88.54,0 -160.35,-72.33 -160.35,-161.53 0,-89.19 71.81,-161.54 160.35,-161.54 88.61,0 160.43,72.35 160.43,161.54 0,89.2 -71.82,161.53 -160.43,161.53 z m 132.97,-162.4 c 0,-73.99 -59.61,-134.03 -133.11,-134.03 -73.51,0 -133.12,60.04 -133.12,134.03 0,74.08 59.61,134.06 133.12,134.06 73.5,0 133.11,-59.98 133.11,-134.06" /></g></g><g
         id="g216"><g
           clip-path="url(#clipPath222)"
           id="g218"><path
             id="path232"
             style="fill:url(#linearGradient230);fill-opacity:1;fill-rule:nonzero;stroke:none"
             d="m 6567.48,1737.73 c -90.78,133.13 -242.58,220.57 -415.02,220.57 -172.05,0 -327.64,-86.29 -414.35,-219.81 -2.88,-4.39 -4.2,-9.88 -4.2,-15.56 0,-16 12.91,-28.95 28.8,-28.95 9.91,0 18.62,5.06 23.75,12.79 78.85,117.89 214.59,193.23 366.45,193.23 152.05,0 286,-77.41 366.48,-193.81 5.28,-7.62 13.58,-12.85 23.5,-12.85 15.88,0 28.79,12.96 28.79,28.96 0,5.66 -1.21,11.02 -4.2,15.43" /></g></g><g
         id="g234"><g
           clip-path="url(#clipPath240)"
           id="g236"><path
             id="path250"
             style="fill:url(#linearGradient248);fill-opacity:1;fill-rule:nonzero;stroke:none"
             d="m 6529.88,1207.22 c -82.56,-121.13 -220.58,-200.62 -377.42,-200.62 -156.46,0 -297.97,78.49 -376.83,199.86 -2.62,4.04 -3.83,9 -3.83,14.18 0,14.55 11.75,26.35 26.21,26.35 9.02,0 16.91,-4.65 21.6,-11.64 71.72,-107.25 195.16,-175.73 333.26,-175.73 138.28,0 260.08,70.42 333.28,176.25 4.79,6.92 12.35,11.7 21.37,11.7 14.45,0 26.19,-11.81 26.19,-26.34 0,-5.18 -1.11,-10 -3.83,-14.01" /></g></g><path
         id="path252"
         style="fill:#393536;fill-opacity:1;fill-rule:nonzero;stroke:none"
         d="m 6152.34,1712.79 c 17.95,0 35.37,-2.19 52.35,-5.31 10.78,-1.98 15.86,1.54 18.04,8.3 l 6,22.63 c 2.4,7.39 -1.84,17.78 -13.01,19.89 -20.51,3.86 -41.6,6.46 -63.26,6.46 -21.68,0 -42.75,-2.6 -63.28,-6.46 -11.17,-2.11 -15.39,-12.5 -13.01,-19.89 l 6.02,-22.63 c 2.17,-6.76 7.24,-10.28 18.01,-8.3 16.99,3.12 34.45,5.31 52.36,5.31 h -0.22" /><path
         id="path254"
         style="fill:#393536;fill-opacity:1;fill-rule:nonzero;stroke:none"
         d="m 5927.95,1582.18 c 8.96,15.65 19.59,29.75 30.76,43.01 7.07,8.42 6.6,14.63 1.88,19.88 l -16.49,16.55 c -5.15,5.78 -16.17,7.28 -23.61,-1.43 -13.56,-15.94 -26.35,-33.03 -37.19,-51.89 -10.82,-18.91 -19.14,-38.62 -26.07,-58.44 -3.73,-10.8 3.02,-19.67 10.6,-21.25 l 22.48,-6.15 c 6.88,-1.47 12.48,1.21 16.17,11.62 5.81,16.35 12.62,32.67 21.59,48.3 l -0.12,-0.2" /><path
         id="path256"
         style="fill:#393536;fill-opacity:1;fill-rule:nonzero;stroke:none"
         d="m 5928.07,1321.15 c -8.97,15.64 -15.78,31.97 -21.59,48.36 -3.69,10.37 -9.29,13.06 -16.17,11.56 l -22.48,-6.09 c -7.58,-1.62 -14.37,-10.49 -10.58,-21.31 6.93,-19.79 15.23,-39.49 26.05,-58.4 10.84,-18.91 23.61,-36 37.19,-51.93 7.44,-8.64 18.47,-7.21 23.61,-1.41 l 16.49,16.58 c 4.72,5.26 5.19,11.51 -1.88,19.88 -11.17,13.27 -21.8,27.35 -30.76,42.97 l 0.12,-0.21" /><path
         id="path258"
         style="fill:#393536;fill-opacity:1;fill-rule:nonzero;stroke:none"
         d="m 6152.56,1190.78 c -17.89,0 -35.37,2.2 -52.36,5.33 -10.79,1.97 -15.86,-1.54 -18.01,-8.34 l -6,-22.62 c -2.4,-7.46 1.82,-17.75 13.01,-19.9 20.51,-3.83 41.58,-6.46 63.26,-6.46 21.66,0 42.75,2.63 63.28,6.46 11.14,2.15 15.41,12.5 12.97,19.9 l -5.98,22.62 c -2.18,6.8 -7.28,10.31 -18.04,8.34 -16.98,-3.13 -34.44,-5.33 -52.35,-5.33 h 0.22" /><path
         id="path260"
         style="fill:#393536;fill-opacity:1;fill-rule:nonzero;stroke:none"
         d="m 6376.97,1321.36 c -8.96,-15.62 -19.59,-29.7 -30.78,-42.97 -7.11,-8.43 -6.62,-14.62 -1.87,-19.88 l 16.48,-16.58 c 5.2,-5.8 16.19,-7.29 23.61,1.44 13.56,15.96 26.35,32.99 37.19,51.9 10.82,18.91 19.12,38.61 26.1,58.4 3.73,10.82 -3.05,19.72 -10.61,21.31 l -22.5,6.09 c -6.88,1.52 -12.48,-1.19 -16.15,-11.56 -5.82,-16.39 -12.64,-32.72 -21.58,-48.36 l 0.11,0.21" /><path
         id="path262"
         style="fill:#393536;fill-opacity:1;fill-rule:nonzero;stroke:none"
         d="m 6376.86,1582.38 c 8.94,-15.63 15.76,-31.97 21.58,-48.3 3.67,-10.47 9.27,-13.09 16.15,-11.62 l 22.5,6.15 c 7.56,1.58 14.34,10.43 10.57,21.25 -6.96,19.82 -15.24,39.53 -26.06,58.44 -10.84,18.86 -23.59,35.95 -37.19,51.89 -7.42,8.71 -18.45,7.25 -23.61,1.43 l -16.48,-16.55 c -4.75,-5.25 -5.22,-11.5 1.87,-19.88 11.19,-13.26 21.82,-27.36 30.78,-43.01 l -0.11,0.2" /><path
         id="path264"
         style="fill:#4f4c4c;fill-opacity:1;fill-rule:nonzero;stroke:none"
         d="m 7647.83,1422.95 c 0,-42.68 -34.35,-77.29 -76.72,-77.29 h -502.34 c -42.38,0 -76.72,34.61 -76.72,77.29 v 508.32 c 0,42.67 34.34,77.26 76.72,77.26 h 502.34 c 42.37,0 76.72,-34.59 76.72,-77.26 v -508.32" /><path
         id="path266"
         style="fill:#393536;fill-opacity:1;fill-rule:nonzero;stroke:none"
         d="m 7557.6,1431.54 h -478.93 c -35.45,0 -64.14,28.92 -64.14,64.63 v -60.76 c 0,-35.67 28.69,-64.65 64.14,-64.65 h 478.93 c 35.43,0 64.2,28.98 64.2,64.65 v 60.76 c 0,-35.71 -28.77,-64.63 -64.2,-64.63" /><path
         id="path268"
         style="fill:#7b7979;fill-opacity:1;fill-rule:nonzero;stroke:none"
         d="m 7557.6,1917.12 h -478.93 c -35.45,0 -64.14,-28.96 -64.14,-64.62 v 60.76 c 0,35.72 28.69,64.63 64.14,64.63 h 478.93 c 35.43,0 64.2,-28.91 64.2,-64.63 v -60.76 c 0,35.66 -28.77,64.62 -64.2,64.62" /><g
         id="g270"><g
           clip-path="url(#clipPath276)"
           id="g272"><path
             id="path294"
             style="fill:url(#linearGradient292);fill-opacity:1;fill-rule:nonzero;stroke:none"
             d="m 592.559,1289.04 c -36.45,0 -66.059,29.88 -66.059,66.69 v 62.55 c 0,-36.72 29.609,-66.6 66.059,-66.6 h 672.121 c 32.36,0 44.11,11.73 48.06,50.3 v -80.11 c -4.22,-22.01 -20.05,-32.56 -50.85,-32.56 l -669.331,-0.27" /></g></g><path
         id="path296"
         style="fill:#8c8a8b;fill-opacity:1;fill-rule:nonzero;stroke:none"
         d="m 1312.74,1321.87 v 80.11 c 0.51,4.97 0.89,10.39 1.17,16.3 v -82.89 c 0,-4.91 -0.38,-9.41 -1.17,-13.52" /><path
         id="path298"
         style="fill:#ffffff;fill-opacity:1;fill-rule:nonzero;stroke:none"
         d="m 521.48,2066.83 c 0,57.91 16.922,88.28 50.75,88.28 58.665,0 1086.04,0 1137.94,0 30.44,0 30.44,-44.02 0,-44.02 -49.59,0 -1062.4,0 -1100.721,0 -38.32,0 -71.894,0.86 -87.969,-44.26" /><path
         id="path300"
         style="fill:#ffffff;fill-opacity:1;fill-rule:nonzero;stroke:none"
         d="m 781.43,3790.68 c 39.035,72.66 116.008,116.22 206.191,128.85 278.239,38.93 868.199,77.44 1079.879,77.44 211.66,0 129.68,0 255.35,0 77.42,-0.04 149.71,-38.63 171.11,-110.89 0,102.67 -67.04,185.84 -168.96,185.84 -67.45,0 -107.55,0 -263.56,0 -207.98,0 -792.46,-48.4 -1065.811,-91.67 -106.434,-16.81 -182.703,-86.34 -214.199,-189.57" /><path
         id="path302"
         style="fill:#4f4c4c;fill-opacity:1;fill-rule:nonzero;stroke:none"
         d="m 5138.22,1282.44 c 0,-42.68 -34.35,-77.31 -76.72,-77.31 H 3045.16 c -42.37,0 -76.72,34.63 -76.72,77.31 v 622.36 c 0,42.64 34.35,77.27 76.72,77.27 H 5061.5 c 42.37,0 76.72,-34.63 76.72,-77.27 v -622.36" /><path
         id="path304"
         style="fill:#393536;fill-opacity:1;fill-rule:nonzero;stroke:none"
         d="M 5048.01,1291.05 H 3055.07 c -35.43,0 -64.15,28.93 -64.15,64.59 v -60.76 c 0,-35.67 28.72,-64.61 64.15,-64.61 h 1992.94 c 35.43,0 64.16,28.94 64.16,64.61 v 60.76 c 0,-35.66 -28.73,-64.59 -64.16,-64.59" /><path
         id="path306"
         style="fill:#7b7979;fill-opacity:1;fill-rule:nonzero;stroke:none"
         d="M 5048.01,1890.66 H 3055.07 c -35.43,0 -64.15,-28.96 -64.15,-64.63 v 60.76 c 0,35.71 28.72,64.59 64.15,64.59 h 1992.94 c 35.43,0 64.16,-28.88 64.16,-64.59 v -60.76 c 0,35.67 -28.73,64.63 -64.16,64.63" /><path
         id="path308"
         style="fill:#393536;fill-opacity:1;fill-rule:nonzero;stroke:none"
         d="m 3611.9,2092.36 v -783.79 c 0,-17.87 -14.39,-32.42 -32.15,-32.42 h -97.47 c -17.77,0 -32.18,14.55 -32.18,32.42 v 783.79 h 161.8" /><path
         id="path310"
         style="fill:#393536;fill-opacity:1;fill-rule:nonzero;stroke:none"
         d="m 4609.2,2092.36 v -783.79 c 0,-17.87 -14.41,-32.42 -32.17,-32.42 h -97.48 c -17.75,0 -32.15,14.55 -32.15,32.42 v 783.79 h 161.8" /><path
         id="path312"
         style="fill:#393536;fill-opacity:1;fill-rule:nonzero;stroke:none"
         d="m 5193.44,1703.84 c 0,-17.89 -14.4,-32.42 -32.17,-32.42 H 2943.72 c -17.77,0 -32.16,14.53 -32.16,32.42 v 98.15 c 0,17.89 14.39,32.38 32.16,32.38 h 2217.55 c 17.77,0 32.17,-14.49 32.17,-32.38 v -98.15" /><path
         id="path314"
         style="fill:#393536;fill-opacity:1;fill-rule:nonzero;stroke:none"
         d="m 5193.44,1426.68 c 0,-17.89 -14.4,-32.39 -32.17,-32.39 H 2943.72 c -17.77,0 -32.16,14.5 -32.16,32.39 v 98.14 c 0,17.91 14.39,32.44 32.16,32.44 h 2217.55 c 17.77,0 32.17,-14.53 32.17,-32.44 v -98.14" /><path
         id="path316"
         style="fill:#7b7979;fill-opacity:1;fill-rule:nonzero;stroke:none"
         d="M 5157.5,1550.02 H 2947.48 c -15.75,0 -28.53,-12.88 -28.53,-28.75 v -8.03 c 0,15.86 12.78,28.67 28.53,28.67 H 5157.5 c 15.74,0 28.52,-12.81 28.52,-28.67 v 8.03 c 0,15.87 -12.78,28.75 -28.52,28.75" /><path
         id="path318"
         style="fill:#231f20;fill-opacity:1;fill-rule:nonzero;stroke:none"
         d="M 5157.5,1410.15 H 2947.48 c -15.75,0 -28.53,12.87 -28.53,28.77 v -8.06 c 0,-15.88 12.78,-28.74 28.53,-28.74 H 5157.5 c 15.74,0 28.52,12.86 28.52,28.74 v 8.06 c 0,-15.9 -12.78,-28.77 -28.52,-28.77" /><path
         id="path320"
         style="fill:#7b7979;fill-opacity:1;fill-rule:nonzero;stroke:none"
         d="M 5157.5,1825 H 2947.48 c -15.75,0 -28.53,-12.88 -28.53,-28.73 v -8.03 c 0,15.84 12.78,28.67 28.53,28.67 H 5157.5 c 15.74,0 28.52,-12.83 28.52,-28.67 v 8.03 c 0,15.85 -12.78,28.73 -28.52,28.73" /><path
         id="path322"
         style="fill:#231f20;fill-opacity:1;fill-rule:nonzero;stroke:none"
         d="M 5157.5,1685.15 H 2947.48 c -15.75,0 -28.53,12.87 -28.53,28.73 v -8.04 c 0,-15.88 12.78,-28.72 28.53,-28.72 H 5157.5 c 15.74,0 28.52,12.84 28.52,28.72 v 8.04 c 0,-15.86 -12.78,-28.73 -28.52,-28.73" /><path
         id="path324"
         style="fill:#231f20;fill-opacity:1;fill-rule:nonzero;stroke:none"
         d="m 3611.9,1990.13 h -161.8 v 102.23 h 161.8 v -102.23" /><path
         id="path326"
         style="fill:#231f20;fill-opacity:1;fill-rule:nonzero;stroke:none"
         d="m 3611.9,1639.06 h -161.8 v 32.36 h 161.8 v -32.36" /><path
         id="path328"
         style="fill:#231f20;fill-opacity:1;fill-rule:nonzero;stroke:none"
         d="m 3611.9,1361.95 h -161.8 v 32.34 h 161.8 v -32.34" /><path
         id="path330"
         style="fill:#231f20;fill-opacity:1;fill-rule:nonzero;stroke:none"
         d="m 4609.2,1990.13 h -161.8 v 102.23 h 161.8 v -102.23" /><path
         id="path332"
         style="fill:#231f20;fill-opacity:1;fill-rule:nonzero;stroke:none"
         d="m 4609.2,1639.06 h -161.8 v 32.36 h 161.8 v -32.36" /><path
         id="path334"
         style="fill:#231f20;fill-opacity:1;fill-rule:nonzero;stroke:none"
         d="m 4609.2,1361.95 h -161.8 v 32.34 h 161.8 v -32.34" /><g
         id="g336"><g
           clip-path="url(#clipPath342)"
           id="g338"><path
             id="path352"
             style="fill:url(#linearGradient350);fill-opacity:1;fill-rule:nonzero;stroke:none"
             d="m 7857.4,2246.91 c 0,-85.35 -68.71,-154.55 -153.45,-154.55 H 2870.89 c -84.74,0 -153.44,69.2 -153.44,154.55 v 2451.57 c 0,85.33 68.7,154.53 153.44,154.53 h 4833.06 c 84.74,0 153.45,-69.2 153.45,-154.53 V 2246.91" /></g></g><path
         id="path354"
         style="fill:#d3d2d2;fill-opacity:1;fill-rule:nonzero;stroke:none"
         d="m 7857.4,2246.91 h -13.58 c -0.01,-39 -15.66,-74.17 -41,-99.71 -25.37,-25.53 -60.24,-41.25 -98.87,-41.26 H 2870.89 c -38.63,0.01 -73.5,15.73 -98.86,41.26 -25.34,25.54 -41,60.71 -41,99.71 v 2451.57 c 0,38.98 15.66,74.15 41,99.69 25.36,25.52 60.23,41.25 98.86,41.26 h 4833.06 c 38.63,-0.01 73.5,-15.74 98.87,-41.26 25.34,-25.54 40.99,-60.71 41,-99.69 V 2246.91 h 13.58 13.58 v 2451.57 c 0.01,46.34 -18.69,88.44 -48.89,118.83 -30.17,30.41 -72.04,49.29 -118.14,49.28 v 0 H 2870.89 v 0 c -46.11,0.01 -87.97,-18.87 -118.14,-49.28 -30.19,-30.39 -48.89,-72.49 -48.89,-118.83 V 2246.91 c 0,-46.35 18.7,-88.46 48.89,-118.85 30.17,-30.41 72.03,-49.29 118.14,-49.28 h 4833.06 c 46.1,-0.01 87.97,18.87 118.14,49.28 30.2,30.39 48.9,72.49 48.89,118.85 h -13.58" /><path
         id="path356"
         style="fill:#ffffff;fill-opacity:1;fill-rule:nonzero;stroke:none"
         d="m 7679.49,4804.1 h -4786.1 c -69.41,0 -125.69,-56.68 -125.69,-126.58 v -78.36 c 0,69.92 56.28,126.58 125.69,126.58 h 4786.1 c 69.4,0 125.69,-56.66 125.69,-126.58 v 78.36 c 0,69.9 -56.29,126.58 -125.69,126.58" /><path
         id="path358"
         style="fill:#bdbcbc;fill-opacity:1;fill-rule:nonzero;stroke:none"
         d="m 7679.49,2232.07 h -4786.1 c -69.41,0 -125.69,56.7 -125.69,126.6 v -78.4 c 0,-69.9 56.28,-126.54 125.69,-126.54 h 4786.1 c 69.4,0 125.69,56.64 125.69,126.54 v 78.4 c 0,-69.9 -56.29,-126.6 -125.69,-126.6" /><g
         id="g360"><g
           clip-path="url(#clipPath366)"
           id="g362"><path
             id="path384"
             style="fill:url(#linearGradient382);fill-opacity:1;fill-rule:nonzero;stroke:none"
             d="m 1715.4,2193.09 c -3.78,0 -6.84,3.06 -6.84,6.84 v 887.89 h 13.59 v -887.89 c 0,-3.78 -3.06,-6.84 -6.75,-6.84" /></g></g><path
         id="path386"
         style="fill:#4f4c4c;fill-opacity:1;fill-rule:nonzero;stroke:none"
         d="m 1204.13,1553.53 c 0,-25.58 -20.62,-46.33 -46.02,-46.33 H 739.496 c -25.418,0 -46.016,20.75 -46.016,46.33 v 287.54 c 0,25.63 20.598,46.39 46.016,46.39 h 418.614 c 25.4,0 46.02,-20.76 46.02,-46.39 v -287.54" /><path
         id="path388"
         style="fill:#393536;fill-opacity:1;fill-rule:nonzero;stroke:none"
         d="M 1158.11,1887.46 H 739.496 c -25.418,0 -46.016,-20.76 -46.016,-46.39 v -65.84 c 0,25.61 20.598,46.31 46.016,46.31 h 418.614 c 25.4,0 46.02,-20.7 46.02,-46.31 v 65.84 c 0,25.63 -20.62,46.39 -46.02,46.39" /><path
         id="path390"
         style="fill:#656263;fill-opacity:1;fill-rule:nonzero;stroke:none"
         d="M 1158.11,1536.71 H 739.496 c -25.418,0 -46.016,20.77 -46.016,46.35 v -29.53 c 0,-25.58 20.598,-46.33 46.016,-46.33 h 418.614 c 25.4,0 46.02,20.75 46.02,46.33 v 29.53 c 0,-25.58 -20.62,-46.35 -46.02,-46.35" /><g
         id="g392"><g
           clip-path="url(#clipPath398)"
           id="g394"><path
             id="path406"
             style="fill:url(#linearGradient404);fill-opacity:1;fill-rule:nonzero;stroke:none"
             d="m 1066.05,2595.39 c -35.99,0 -127.511,0 -199.441,0 v 89.82 l 175.951,255.6 -14.77,31.79 86.5,92.05 103.77,-98.91 c 5.16,-4.9 11.74,-7.33 18.3,-7.33 7.06,0 14.1,2.81 19.32,8.41 10.17,10.71 9.72,27.72 -0.99,37.89 l -273.241,260.55 c -5.168,4.91 -11.789,7.34 -18.383,7.34 -7.07,0 -14.113,-2.79 -19.328,-8.33 -10.078,-10.71 -9.629,-27.72 1.082,-37.98 l 96.75,-92.25 -59.437,-63.2 -79.434,170.93 -188.793,-37.26 c 33.977,154.42 89.449,382.35 117.422,472.86 11.793,38.16 49.594,64.17 91.621,64.17 H 2059.83 c 53.91,0 97.65,-44.01 97.65,-98.37 v -28.8 h -23.04 c -15.03,0 -37.62,-18.9 -41.67,-31.77 l -90.09,-311.22 h -233.82 l -36,218.61 c -2.88,17.64 -21.33,28.35 -30.78,28.35 h -113.67 c -35.01,0 -86.58,-157.59 -63.18,-194.76 -34.92,-22.77 -47.34,-41.4 -69.93,-103.32 l -54.09,-132.21 658.62,-0.45 -337.68,0.22 h -13.59 l -355.14,0.23 c -32.58,0 -62.19,-22.86 -70.65,-56.97 l -106.56,-369.72 c -14.4,-45.09 -68.58,-65.97 -110.16,-65.97 m -379.335,473.48 c 0.004,0.03 0.008,0.06 0.012,0.09 -0.004,-0.03 -0.008,-0.06 -0.012,-0.09 m 0.129,0.88 c 0.019,0.13 0.039,0.25 0.058,0.38 -0.019,-0.13 -0.039,-0.26 -0.058,-0.38 m 0.195,1.29 c 0.008,0.03 0.012,0.07 0.016,0.11 -0.004,-0.04 -0.008,-0.08 -0.016,-0.11 m 0.168,1.08 c 0.008,0.06 0.02,0.12 0.027,0.18 -0.007,-0.06 -0.019,-0.12 -0.027,-0.18" /></g></g><path
         id="path408"
         style="fill:#393536;fill-opacity:1;fill-rule:nonzero;stroke:none"
         d="m 732.398,1739.43 c -11.75,0 -21.269,9.57 -21.269,21.41 0,11.89 9.519,21.48 21.269,21.48 h 430.912 c 11.77,0 21.31,-9.59 21.31,-21.48 0,-11.84 -9.54,-21.41 -21.31,-21.41 H 732.398" /><path
         id="path410"
         style="fill:#393536;fill-opacity:1;fill-rule:nonzero;stroke:none"
         d="m 732.398,1653.28 c -11.75,0 -21.269,9.61 -21.269,21.44 0,11.84 9.519,21.43 21.269,21.43 h 430.912 c 11.77,0 21.31,-9.59 21.31,-21.43 0,-11.83 -9.54,-21.44 -21.31,-21.44 H 732.398" /><path
         id="path412"
         style="fill:#393536;fill-opacity:1;fill-rule:nonzero;stroke:none"
         d="m 732.398,1567.12 c -11.75,0 -21.269,9.61 -21.269,21.41 0,11.9 9.519,21.49 21.269,21.49 h 430.912 c 11.77,0 21.31,-9.59 21.31,-21.49 0,-11.8 -9.54,-21.41 -21.31,-21.41 H 732.398" /><g
         id="g414"><g
           clip-path="url(#clipPath420)"
           id="g416"><path
             id="path438"
             style="fill:url(#linearGradient436);fill-opacity:1;fill-rule:nonzero;stroke:none"
             d="m 686.43,3066.9 c 0.09,0.64 0.183,1.3 0.285,1.97 -0.102,-0.67 -0.195,-1.33 -0.285,-1.97 m 0.297,2.06 c 0.039,0.26 0.078,0.52 0.117,0.79 -0.039,-0.27 -0.078,-0.53 -0.117,-0.79 m 0.175,1.17 c 0.043,0.3 0.09,0.6 0.137,0.91 -0.047,-0.31 -0.094,-0.61 -0.137,-0.91 m 0.153,1.02 c 0.05,0.32 0.101,0.64 0.152,0.97 -0.051,-0.33 -0.102,-0.65 -0.152,-0.97 m 0.179,1.15 c 4.047,25.95 13.825,73.89 26.645,132.21 h 0.027 c -12.847,-58.37 -22.617,-106.23 -26.672,-132.21" /></g></g><g
         id="g440"><g
           clip-path="url(#clipPath446)"
           id="g442"><path
             id="path454"
             style="fill:url(#linearGradient452);fill-opacity:1;fill-rule:nonzero;stroke:none"
             d="m 866.609,2595.39 c -35.824,0 -66.793,0 -83.609,0 -50.578,0 -99.09,50.85 -99.09,101.79 v 325.44 c 0,5.85 0.809,32.22 2.52,44.28 v 0 c 0.09,0.64 0.183,1.3 0.285,1.97 0.004,0.03 0.008,0.06 0.012,0.09 0.039,0.26 0.078,0.52 0.117,0.79 0.019,0.12 0.039,0.25 0.058,0.38 0.043,0.3 0.09,0.6 0.137,0.91 0.008,0.03 0.012,0.07 0.016,0.11 0.05,0.32 0.101,0.64 0.152,0.97 0.008,0.06 0.02,0.12 0.027,0.18 4.055,25.98 13.825,73.84 26.672,132.21 l 188.793,37.26 79.434,-170.93 -75.473,-80.26 72.809,-69.39 48.321,51.41 14.77,-31.79 -175.951,-255.6 v -89.82" /></g></g><g
         id="g456"><g
           clip-path="url(#clipPath462)"
           id="g458"><path
             id="path470"
             style="fill:url(#linearGradient468);fill-opacity:1;fill-rule:nonzero;stroke:none"
             d="m 2059.83,3087.6 v 0 l -658.62,0.45 54.09,132.21 c 22.59,61.92 35.01,80.55 69.93,103.32 -23.4,37.17 28.17,194.76 63.18,194.76 h 113.67 c 9.45,0 27.9,-10.71 30.78,-28.35 l 36,-218.61 h 233.82 l 90.09,311.22 c 4.05,12.87 26.64,31.77 41.67,31.77 h 23.04 v -428.31 c 0,-54.36 -43.74,-98.46 -97.65,-98.46" /></g></g><g
         id="g472"><g
           clip-path="url(#clipPath478)"
           id="g474"><path
             id="path486"
             style="fill:url(#linearGradient484);fill-opacity:1;fill-rule:nonzero;stroke:none"
             d="m 979.469,2921.19 -72.809,69.39 75.473,80.26 59.437,63.2 -96.75,92.25 c -10.711,10.26 -11.16,27.27 -1.082,37.98 5.215,5.54 12.258,8.33 19.328,8.33 6.594,0 13.215,-2.43 18.383,-7.34 l 273.241,-260.55 c 10.71,-10.17 11.16,-27.18 0.99,-37.89 -5.22,-5.6 -12.26,-8.41 -19.32,-8.41 -6.56,0 -13.14,2.43 -18.3,7.33 l -103.77,98.91 -86.5,-92.05 -48.321,-51.41" /></g></g><path
         id="path488"
         style="fill:#393536;fill-opacity:1;fill-rule:nonzero;stroke:none"
         d="m 1792.13,3090.74 h -179.31 v 650.8 h 179.31 v -650.8" /><path
         id="path490"
         style="fill:#393536;fill-opacity:1;fill-rule:nonzero;stroke:none"
         d="m 1176.17,2661.36 13.05,-3.76 106.65,369.96 0.06,0.24 c 7.01,28.21 31.31,46.68 57.47,46.67 l 706.38,-0.43 c 30.73,-0.01 58.66,12.57 78.75,32.82 20.11,20.23 32.57,48.3 32.57,79.16 v 457.13 c 0,30.85 -12.46,58.92 -32.57,79.15 -20.09,20.25 -48.02,32.83 -78.74,32.83 H 922.984 c -23.832,-0.01 -46.464,-7.37 -64.933,-20.24 -18.461,-12.86 -32.844,-31.35 -39.703,-53.53 -19.887,-64.37 -53.114,-195.83 -82.996,-322.2 -14.934,-63.16 -29.004,-124.97 -40.098,-176.33 -11.098,-51.43 -19.191,-92.14 -22.281,-114.07 l 0.004,0.03 -0.004,-0.01 c -0.977,-6.99 -1.586,-16.66 -2.028,-25.71 -0.429,-9.05 -0.64,-17.06 -0.644,-20.49 0,-115.3 0,-274.48 0,-325.44 0.086,-29.83 13.914,-58.14 34.418,-79.4 20.547,-21.17 48.34,-35.83 78.265,-35.92 50.555,0 229.166,0 283.086,0 23.03,0.04 48.77,5.62 71.6,17.63 11.39,6.02 22.04,13.7 31.01,23.3 8.95,9.58 16.18,21.13 20.43,34.49 l 0.05,0.18 0.06,0.18 -13.05,3.76 -12.94,4.12 c -2.94,-9.2 -7.87,-17.18 -14.41,-24.2 -9.78,-10.51 -23.34,-18.72 -38.13,-24.16 -14.77,-5.47 -30.72,-8.15 -44.62,-8.13 -53.92,0 -232.531,0 -283.086,0 -20.625,-0.09 -42.382,10.68 -58.746,27.64 -16.414,16.89 -26.859,39.45 -26.773,60.51 0,50.96 0,210.14 0,325.44 -0.004,2.49 0.199,10.59 0.613,19.19 0.399,8.6 1.059,18.12 1.789,23.2 l 0.004,0.02 c 2.832,20.25 10.899,61.03 21.934,112.1 16.562,76.7 39.871,177.11 62.703,270.2 22.82,93.04 45.226,178.94 59.793,226.04 4.933,15.97 15.367,29.57 29.281,39.28 13.902,9.69 31.199,15.36 49.402,15.35 H 2059.79 c 23.25,-0.01 44.19,-9.44 59.47,-24.8 15.25,-15.38 24.67,-36.52 24.67,-60.01 v -457.13 c 0,-23.5 -9.42,-44.64 -24.67,-60.01 -15.28,-15.36 -36.22,-24.8 -59.47,-24.81 l -706.38,0.43 h -0.01 c -39.03,-0.02 -73.93,-27.33 -83.83,-67.28 l 13.18,-3.27 -13.05,3.76 -106.58,-369.71 13.05,-3.77 -12.94,4.12 12.94,-4.12" /><path
         id="path492"
         style="fill:#4f4c4c;fill-opacity:1;fill-rule:nonzero;stroke:none"
         d="m 6742.21,1327.26 h 119.41 c 13.56,0 24.53,11.04 24.53,24.69 v 623.57 c 0,57.09 -45.94,103.36 -102.6,103.36 H 5512.4 c -56.7,0 -102.63,-46.27 -102.63,-103.36 v -623.57 c 0,-13.65 10.99,-24.69 24.53,-24.69 h 119.45 c 13.54,0 24.53,11.04 24.53,24.69 v 99.92 c 0,316.92 255.04,573.79 569.67,573.79 314.63,0 569.73,-256.87 569.73,-573.79 v -99.92 c 0,-13.65 10.97,-24.69 24.53,-24.69" /></g></g></svg>