<?xml version="1.0" encoding="UTF-8"?>
<svg id="Layer_1" xmlns="http://www.w3.org/2000/svg" version="1.1" xmlns:xlink="http://www.w3.org/1999/xlink" viewBox="0 0 841.89 595.28">
    <!-- Generator: Adobe Illustrator 29.6.1, SVG Export Plug-In . SVG Version: 2.1.1 Build 9)  -->
    <defs>
        <style>
            .st0 {
            fill: url(#linear-gradient);
            }

            .st1 {
            fill: #d7e2f0;
            }
        </style>
        <linearGradient id="linear-gradient" x1="0" y1="506.99" x2="448.85" y2="506.99" gradientUnits="userSpaceOnUse">
            <stop offset="0" stop-color="#53e9fc"/>
            <stop offset="1" stop-color="#0092b8"/>
        </linearGradient>
    </defs>
    <path class="st1" d="M549.5,594.9c-8.84-25.78-26.89-45.44-53.62-59.32-27.5-12.8-62.91-12.29-101.87-5.79-.22.05-.44.1-.66.15-38.34,8.32-78.45-4.07-104.48-31.93-7.81-8.36-15.7-17.74-23.54-27.54-23.4-27.98-55.52-36.46-89.62-40.51-31.03-3.13-55.65.42-75.06,9.41v155.55s448.85,0,448.85,0Z"/>
    <path class="st0" d="M448.85,594.9c-8.84-27.3-26.89-48.11-53.62-62.81-27.5-13.55-62.91-13.02-101.87-6.13-.22.05-.44.1-.66.15-38.34,8.8-78.45-4.31-104.48-33.81-7.81-8.85-15.7-18.79-23.54-29.16-23.4-29.62-55.52-38.6-89.62-42.89C44.04,416.95,19.42,420.71,0,430.22v164.68s448.85,0,448.85,0Z"/>
</svg>